<svg xmlns="http://www.w3.org/2000/svg" viewBox="0 0 130.95 109.54"><defs><style>.cls-1{isolation:isolate;}.cls-2{fill:#d5bd8c;}.cls-3{fill:#5f6060;opacity:0.2;mix-blend-mode:multiply;}.cls-4{fill:none;stroke:#fff;stroke-linecap:round;stroke-linejoin:round;stroke-width:1.5px;}</style></defs><title>1</title><g class="cls-1"><g id="Layer_1" data-name="Layer 1"><path class="cls-2" d="M372.47,696.23c-7.54-3-13.94-2.19-18.67,1.14-15.79,11.12-12.86,50.75,28.81,74.81,31.86,18.39,57.39,10.85,63.45-5a22.06,22.06,0,0,0,.52-13.85c-2.16-7.91-9.56-20.47-27.95-30.18-.07,0,0,3.55,0,3.55,17.73,10.25,22,19.45,23.12,24.44,2.37,10.46-.05,16.19-.57,16.15-9.27-.68-20-3.94-31.58-10.62-27.94-16.13-38.47-39.25-37.61-56.1,0-.66,5,2.17,5.1,1.53,0-.32,0-3.29,0-3.61s-4.7-1.75-4.62-2.21" transform="translate(-344.21 -674.04)"/><path class="cls-3" d="M409.6,756.62c-27.94-16.13-38.47-39.25-37.61-56.1a.06.06,0,0,1,.05-.06,29,29,0,0,0-11.45-1.05c-3.61,1.7-5.35,2.25-7.78,5.4a22.21,22.21,0,0,1-1.6,2.33c-.28.72-.53,1.44-.75,2.17a29.16,29.16,0,0,0-.62,4.26,18.92,18.92,0,0,1-.61,3,45.87,45.87,0,0,0,3.94,18.5,73,73,0,0,0,7.08,12.15c11.5,7.46,28.23,13.16,55.84,13.16h.78C414.49,759.31,412.06,758.05,409.6,756.62Z" transform="translate(-344.21 -674.04)"/><path class="cls-2" d="M377.09,698.44c-9.55-5.38-17.63-5.06-23.29-1.07L381,681.66a16.73,16.73,0,0,1,10.11-2.83" transform="translate(-344.21 -674.04)"/><path class="cls-2" d="M412.11,674.79c-19.34,0-35,9.06-35,20.22v11.64c0,11.17,15.68,20.22,35,20.22s35-9,35-20.22V695C447.13,683.85,431.45,674.79,412.11,674.79Z" transform="translate(-344.21 -674.04)"/><path class="cls-3" d="M387.16,700.34c0-8,12.24-14.55,27.35-14.55,12.82,0,23.58,4.7,26.54,11l.34-.6a2.77,2.77,0,0,1,0-.3c.11-7.92-6.74-11.84-13.52-13.89a63.76,63.76,0,0,0-15.54-2.8h0l-.66.08h0a88.51,88.51,0,0,0-16.5,3c-5.06,2.17-10.16,5.94-11.09,8.62-.4,1.14-.35,2.39-.82,3.52,0,.1-.1.19-.14.29a2.7,2.7,0,0,1,.09.59,10.63,10.63,0,0,0,4.78,8.43A8.25,8.25,0,0,1,387.16,700.34Z" transform="translate(-344.21 -674.04)"/><path class="cls-3" d="M398.64,690.94c-1.8,0-1.8,0-1.32,1.72.22.65,8.21,3.55,13,5.27,2.5-.22-2.59-2.6-5-3.46C402.53,693.48,401.35,692.27,398.64,690.94Z" transform="translate(-344.21 -674.04)"/><path class="cls-3" d="M422.7,697.18c-2.5,0-5.71,0-8.78,0-.16.28-3.73.17-2.82,1.08a1.76,1.76,0,0,0,1.23.36c1,0,.88-.25,1-.2,3.56.6,9,1,9.73,1.05s3.38-1.36,2.94-1.93C424.41,695.64,424.15,695.29,422.7,697.18Z" transform="translate(-344.21 -674.04)"/><path class="cls-3" d="M431.62,711.86a56,56,0,0,1-23.57,3.35h-2.46a5.28,5.28,0,0,1-1.9-.1v11.17a60.48,60.48,0,0,0,8.42.59c19.34,0,35-9,35-20.22v-8.41C445.24,705.24,438.08,709.45,431.62,711.86Z" transform="translate(-344.21 -674.04)"/><ellipse class="cls-4" cx="67.9" cy="20.97" rx="35.02" ry="20.22"/><path class="cls-4" d="M424,725.67c13.49-2.81,23.13-10.26,23.13-19V695" transform="translate(-344.21 -674.04)"/><path class="cls-4" d="M377.09,695v11.64c0,11.17,15.68,20.22,35,20.22a60.18,60.18,0,0,0,6.51-.35" transform="translate(-344.21 -674.04)"/><ellipse class="cls-4" cx="67.9" cy="20.97" rx="29.05" ry="15.47"/><path class="cls-4" d="M383.21,697.11c1.49-7.79,13.86-13.88,28.9-13.88,14.87,0,27.14,5.95,28.84,13.63" transform="translate(-344.21 -674.04)"/><polygon class="cls-4" points="67.88 23.07 56.23 14.78 53.06 14.78 54.17 16.7 67.88 23.07"/><polygon class="cls-4" points="77.67 18.93 67.88 23.07 78.6 23.07 80.98 20.45 77.67 18.93"/><ellipse class="cls-4" cx="67.88" cy="22.59" rx="1.28" ry="0.74"/><line class="cls-4" x1="36.78" y1="30.25" x2="36.78" y2="41.44"/><line class="cls-4" x1="42.1" y1="34.64" x2="42.1" y2="46.39"/><line class="cls-4" x1="47.66" y1="37.47" x2="47.66" y2="49.06"/><line class="cls-4" x1="54.6" y1="39.68" x2="54.6" y2="51.15"/><line class="cls-4" x1="62.78" y1="40.97" x2="62.78" y2="52.61"/><line class="cls-4" x1="71.06" y1="41.24" x2="71.06" y2="52.61"/><line class="cls-4" x1="78.96" y1="40.28" x2="78.96" y2="50.98"/><line class="cls-4" x1="86.23" y1="38.2" x2="86.23" y2="49.94"/><line class="cls-4" x1="92.15" y1="35.55" x2="92.15" y2="46.79"/><line class="cls-4" x1="96.95" y1="32.27" x2="96.95" y2="43.91"/><line class="cls-4" x1="100.22" y1="28.78" x2="100.22" y2="39.68"/><path class="cls-4" d="M418.63,722.29c57.27,32.52,20.61,82.59-36,49.89-41.67-24.06-44.6-63.69-28.81-74.81,5.66-4,13.74-4.31,23.29,1.07" transform="translate(-344.21 -674.04)"/><path class="cls-4" d="M377.09,702.82c-7.29-4.11-16.07-5-20.7-1.77s-7.27,10.23-6.9,18.52c.31,6.81,3.77,30.47,35.37,48.72,14.51,8.37,35,14.43,48.92,6.34,5.92-3.44,9.17-8.82,9.14-15.14,0-5.25-.44-19.29-24.29-32.84v-4.36" transform="translate(-344.21 -674.04)"/><path class="cls-4" d="M377.09,698.44c-9.55-5.38-17.63-5.06-23.29-1.07L381,681.66a16.73,16.73,0,0,1,10.11-2.83" transform="translate(-344.21 -674.04)"/><line class="cls-4" x1="35.57" y1="13.2" x2="26.87" y2="18.22"/><path class="cls-4" d="M440.93,767.24c-9.27-.68-19.76-3.94-31.33-10.62-27.94-16.13-38.47-39.25-37.61-56.1" transform="translate(-344.21 -674.04)"/><path class="cls-2" d="M445.62,707.54l-27,14.75c34.29,19.47,34.91,45.75,17.73,56l27.4-15.82C480.51,752.06,479.62,726.85,445.62,707.54Z" transform="translate(-344.21 -674.04)"/><path class="cls-3" d="M474.24,739.89,446.9,755.52c2.29,10.08-1.95,17.67-10.54,22.81l27.4-15.82A22.6,22.6,0,0,0,474.24,739.89Z" transform="translate(-344.21 -674.04)"/><path class="cls-4" d="M445.62,707.54c34,19.31,34.89,44.52,18.14,55" transform="translate(-344.21 -674.04)"/><path class="cls-4" d="M445.62,707.54c34,19.31,34.89,44.52,18.14,55l-27.4,15.82c17.18-10.29,16.56-36.57-17.73-56" transform="translate(-344.21 -674.04)"/><line class="cls-4" x1="123.82" y1="80.94" x2="105.99" y2="91.24"/><line class="cls-4" x1="126.71" y1="73.01" x2="106.89" y2="84.45"/><line class="cls-4" x1="125.71" y1="65.61" x2="105.89" y2="77.05"/><line class="cls-4" x1="122.75" y1="57.76" x2="102.92" y2="69.2"/><line class="cls-4" x1="116.8" y1="51.15" x2="96.98" y2="62.59"/><line class="cls-4" x1="111.32" y1="44.22" x2="91.5" y2="55.66"/><line class="cls-4" x1="104.79" y1="39.69" x2="84.97" y2="51.13"/><line class="cls-4" x1="101.41" y1="33.5" x2="74.43" y2="48.25"/></g></g></svg>