<svg xmlns="http://www.w3.org/2000/svg" viewBox="0 0 84 56.03"><defs><style>.cls-1{isolation:isolate;}.cls-2{fill:#d5bd8c;}.cls-3{fill:#5f6060;opacity:0.2;mix-blend-mode:multiply;}.cls-4{fill:none;stroke:#fff;stroke-linecap:round;stroke-linejoin:round;stroke-width:1.5px;}</style></defs><title>2</title><g class="cls-1"><g id="Layer_1" data-name="Layer 1"><path class="cls-2" d="M371.51,735.37c12.86-7.48,25.64-15.11,38.69-22.26,1.93-1.06,5.58-.66,7.65.49,10.09,5.6,19.93,11.64,29.79,17.62,3,1.81,3.08,7.61-.05,10.86a32.77,32.77,0,0,1-7.25,5.25q-16.87,9.78-33.93,19.26a4.92,4.92,0,0,1-4.08,0c-7.56-4.19-15.07-8.5-22.42-13-1.58-1-8.88-6.19-10.1-7.76a8.64,8.64,0,0,1-2-6A5.45,5.45,0,0,1,371.51,735.37Z" transform="translate(-366.65 -711.75)"/><path class="cls-3" d="M447.64,731.22l-1.8-1.09c-6.73,4.69-14.16,8.15-21.45,11.87-3.79,1.94-7.49,4-11.23,6-2.86,1.54-6.13,4.2-9.36,4.8-4.31.8-9.53-2.7-5.42-5.69,2.32-1.69,6-3.61,8-4.82,1.69-1.06-1.57-2.3-3.17-3.27a2.42,2.42,0,0,1-2.1,1.29l-.36,0c-1.84,1.21-3.39,2.82-5.23,4.07-.39.26-.79.5-1.2.73a31.66,31.66,0,0,0-3.92,5.41v0c.37.43-.36,1.33-.42,1.92-.16.87.77,1.38.85,2.24.45.54,5.79,2.94,5.65,3.79-.18,1.08.15,3.54.05,4.62,3.77,2.19,2,1.28,5.84,3.39a4.92,4.92,0,0,0,4.08,0q17.05-9.47,33.93-19.26a32.77,32.77,0,0,0,7.25-5.25C450.73,738.83,450.61,733,447.64,731.22Z" transform="translate(-366.65 -711.75)"/><path class="cls-4" d="M372.52,734.78c12.87-7.48,24.63-14.52,37.68-21.67,1.93-1.06,5.58-.66,7.65.49,10.09,5.6,19.93,11.64,29.79,17.62,3,1.81,3.08,7.61-.05,10.86a32.77,32.77,0,0,1-7.25,5.25q-16.87,9.78-33.93,19.26a4.92,4.92,0,0,1-4.08,0c-7.56-4.19-14.81-7.88-22.42-13-2.6-1.9-7.58-5.83-10.1-7.76a5.36,5.36,0,0,1-2.41-5,4.8,4.8,0,0,1,2.41-4.09" transform="translate(-366.65 -711.75)"/><path class="cls-4" d="M437.75,735.37l4.9,3.28c-12.73,7.43-25,14.64-37.28,21.68a5.19,5.19,0,0,1-4.09,0,83.54,83.54,0,0,1-9.41-5.17c-2.73-1.73-2.22-4.75-.91-6.64,1.63-2.35,4.24-4.11,6.66-5.79s5-2.84,8.29-4.63l-11.66-7.27-14.4,9.24" transform="translate(-366.65 -711.75)"/><path class="cls-4" d="M444.53,730.67c-12.52,7.13-25,14.23-37.54,21.41-2.7,1.55-5.11,2.24-7.87,0a83.93,83.93,0,0,0-7.27-4.74" transform="translate(-366.65 -711.75)"/></g></g></svg>