<svg xmlns="http://www.w3.org/2000/svg" viewBox="0 0 126 135.15"><defs><style>.cls-1{isolation:isolate;}.cls-2{fill:#d5bd8c;}.cls-3{fill:#5f6060;opacity:0.2;mix-blend-mode:multiply;}.cls-4{fill:none;stroke:#fff;stroke-linecap:round;stroke-linejoin:round;stroke-width:1.5px;}</style></defs><title>3</title><g class="cls-1"><g id="Layer_1" data-name="Layer 1"><path class="cls-2" d="M470.62,794.91c.52-4-5.3-8.9-5.3-8.9s1.8-7.2-6.92-14c-12.35-9.69-17.8-9.34-23.18-16.48,0,0-9.71-7-28-41.44-11.81-22.27-36-43.95-44-39.19,0,0-4.1,2.18-4.78,6.5-.65,4.07,1.8,11,5.43,19.21-8.32-3.48-16.07-1.11-17.16,3.26a.59.59,0,0,0,0,.14c-3,12.43,7.17,16.39,8.57,18.62,11.18,17.9,7.41,48,7.41,48l4.34,2.52,3.36-1.82s-.72-16.51.11-26.26v0l.7-4.87,8.78,13a288.25,288.25,0,0,1,12,28.39c7.56,19.87,21.84,26.31,41.3,26.31s31.9-2.29,35.84-5.46l1.55-7.45Zm-100.09-50.1v0Zm31.07-7.47s-19.68-20.71-26.44-28-6.09-3.52-10.07-12.73c-6.61-15.25-2.8-17.41-2.8-17.41,10.91-4.48,32.49,23.24,39,35.83A23.82,23.82,0,0,1,401.6,737.34Zm32.16,31.9h0Z" transform="translate(-345.4 -673.44)"/><path class="cls-3" d="M372,738.58c-1.05-1-2.16-2-3.34-3a15.61,15.61,0,0,0-2.75-1.82c1,12.15,1.79,25.89,1,39.16l.19.12,3.36-1.82s-.72-16.51.11-26.26l.7-4.87.27.39A6.11,6.11,0,0,1,372,738.58Z" transform="translate(-345.4 -673.44)"/><path class="cls-3" d="M391.48,700.12V692c-11-12.14-23-20.21-28.22-17.11a11.07,11.07,0,0,0-3.2,2.85l1,.7c.34.23.68.45,1,.65l.17.1h0c-.29-.22.33-.07.08,0h0C369.9,676.26,382.3,688.24,391.48,700.12Z" transform="translate(-345.4 -673.44)"/><path class="cls-3" d="M431.11,767.84c-8-7.2-16.28-14.18-23.36-22.34a8.43,8.43,0,0,1-.77,1.73,53.53,53.53,0,0,0-6,16.09c.34.48.67,1,1,1.49,1.42,2.3,2.43,5.11,4.19,7.18,3.76,4.42,10,4.41,15.06,3.52.19,0,3.42-.9,3.6-.92,1-.72,2.56-1.21,3.6-1.88,1.79-1.18,3.44-2.21,5.36-3.28A7.73,7.73,0,0,1,431.11,767.84Z" transform="translate(-345.4 -673.44)"/><path class="cls-3" d="M463.45,779.6c-2.71-1.69-6.19.17-7.61,2a14.61,14.61,0,0,1,2.94.7,7.55,7.55,0,0,1,3.23,1.86c.31-.19,2.88,1.35,3.17,1.14.73-.53.23-1.79.15-2.72a12.46,12.46,0,0,0-.54-2.17Z" transform="translate(-345.4 -673.44)"/><path class="cls-3" d="M466.45,789.14a7.87,7.87,0,0,1,.92-.76c-4.05-5.27-10.53-6.77-11.45-7.12-3.75-1.42-5.73,18.42-3.64,20.16,1,.8,5.59-.1,8.81-.81A16.12,16.12,0,0,1,466.45,789.14Z" transform="translate(-345.4 -673.44)"/><path class="cls-3" d="M432.17,803.16c-7.79.35-15.34-.53-22.35-4.13a43.68,43.68,0,0,1-5.2-3.19c-.1,1.22-.2,2.44-.31,3.66,7.6,6,17.35,8.34,28.95,8.34,19.46,0,31.9-2.29,35.84-5.46l1.19-5.72C460.07,803.91,444.13,802.62,432.17,803.16Z" transform="translate(-345.4 -673.44)"/><path class="cls-3" d="M370.53,744.81v0Z" transform="translate(-345.4 -673.44)"/><path class="cls-4" d="M435.22,755.49s-9.71-7-28-41.44c-11.81-22.27-36-43.95-44-39.19s4.9,30.79,17.64,52.07,20.3,40.46,24.36,44.66,12.46,7.14,23.1,1S441.52,763.89,435.22,755.49Z" transform="translate(-345.4 -673.44)"/><path class="cls-4" d="M465.32,786s.14-9.38-6.44-6.72-8.18,6.55-7.06,22.79" transform="translate(-345.4 -673.44)"/><path class="cls-4" d="M367,733.37C378.8,744.15,392,781.53,392,781.53c7.56,19.87,21.84,26.31,41.3,26.31s31.9-2.29,35.84-5.46l1.55-7.45" transform="translate(-345.4 -673.44)"/><path class="cls-4" d="M401.34,715c-6.56-12.59-28.14-40.31-39-35.83,0,0-4.78-.16,3.76,19.69.58,1.34,1.66,3.66,1.66,3.66l10.44,9.53,23.19,25.63S408.16,728.13,401.34,715Z" transform="translate(-345.4 -673.44)"/><path class="cls-4" d="M367,773.07l3.36-1.82s-1.13-23.47,1.05-32.77" transform="translate(-345.4 -673.44)"/><path class="cls-4" d="M433.76,769.24A68.65,68.65,0,0,1,418.14,757c-7.42-7.84-40.8-48.34-50.43-54.48s-19.7-3.76-21,1.28c-3.14,12.54,7.14,16.52,8.54,18.76,11.18,17.9,7.41,48,7.41,48l4.34,2.52V757.31c0-14-3.22-26.46,0-23.94,10.08,7.89,17.36,23.38,24.92,43.26s21.84,26.31,41.3,26.31,31.9-2.29,35.84-5.46c5-4.06-3.78-11.47-3.78-11.47s1.8-7.2-6.92-14c-12.35-9.69-17.8-9.34-23.18-16.48" transform="translate(-345.4 -673.44)"/><path class="cls-4" d="M386.17,762.3c-14.72-34.75-22.11-35-31.62-43.7s-7.8-14.77-7.8-14.77" transform="translate(-345.4 -673.44)"/><path class="cls-4" d="M363.26,674.86s-4.1,2.18-4.78,6.5c-2.14,13.5,29.6,58.25,26.32,77.77" transform="translate(-345.4 -673.44)"/><path class="cls-4" d="M370.15,766.72c0,.08-3.11,1.48-3.11,1.48L363.11,766" transform="translate(-345.4 -673.44)"/><path class="cls-4" d="M465.32,786c-3.18-2.58-8.54-4.07-9.89-4.83" transform="translate(-345.4 -673.44)"/></g></g></svg>