<svg xmlns="http://www.w3.org/2000/svg" viewBox="0 0 113.68 74.89"><defs><style>.cls-1{isolation:isolate;}.cls-2{fill:#d5bd8c;}.cls-3{fill:#5f6060;opacity:0.2;mix-blend-mode:multiply;}.cls-4{fill:none;stroke:#fff;stroke-linecap:round;stroke-linejoin:round;stroke-width:1.5px;}</style></defs><title>4</title><g class="cls-1"><g id="Layer_1" data-name="Layer 1"><path class="cls-2" d="M463.5,739.45l-.36-.31c2.95-1.52,1.94-3.43,1.06-5.19a7.79,7.79,0,0,0-3.1-2.79c-15.29-8.9-30.72-17.58-45.9-26.67-4.84-2.91-8.3-.26-11.9,1.74-8.18,4.54-16.14,9.47-24.22,14.19-6.84,4-13.78,7.85-20.55,12-1.36.83-2.16,2.57-3.22,3.89l-1.58,3.17c-1.48,4.59-1.1,5.66,2.77,7.93,11.49,6.73,23,13.5,34.49,20.19,4.34,2.52,8.79,4.85,13.88,7.64a.22.22,0,0,0,0-.08c2.38,2.1,4.54,1.78,7.17.06,5-3.28,10.22-6.21,15.41-9.18,11.61-6.64,23.27-13.18,34.85-19.85C465.81,744.14,465.82,743.5,463.5,739.45Z" transform="translate(-352.18 -702.45)"/><path class="cls-3" d="M444.22,721.47c-2.27,1.35-4,3.24-6.2,4.7-1.78,1.2-1.95.27-1.14,1.78.65,1.2,2.63,1.77,1.44,2.47-2.5,1.49-10,5.3-10.18,8.55s2.26,4.08,4.64,5.07a5,5,0,0,1-1.69-2.15c-.79-2.26.65-4.09,2.35-5.4,2.31-1.78,5.19-2.79,7.71-4.23l1.06-.58c-.46-.38-.92-.75-1.41-1.09-1.11-.76-.24-.78-1-2-.35-.57-.21-1,2-2.63l1.89-1.19c1.84-1.13,1.72-.84,3.29-1.77l-2.71-1.56Z" transform="translate(-352.18 -702.45)"/><path class="cls-3" d="M422.55,726.23c-3.16,1.75-6.23,3.65-9.36,5.46-2.23,1.29-5.35,2.43-7.27,4.12a5.44,5.44,0,0,0-1,1.27,37.73,37.73,0,0,0,9.85-3.74c5-2.84,10.42-6.17,14.88-9C427.72,722.16,425.32,724.7,422.55,726.23Z" transform="translate(-352.18 -702.45)"/><path class="cls-3" d="M463.5,739.45l-.36-.31c2.95-1.52,1.94-3.43,1.06-5.19a6,6,0,0,0-1.9-2h0c-10.88,7.94-23.48,13.74-35.08,20.59-5.31,3.14-11.4,5.69-16.36,9.36-4.78,3.53-5.79,7.9-5.95,13.28,2.35,2.05,4.51,1.73,7.12,0,5-3.28,10.22-6.21,15.41-9.18,11.61-6.64,23.27-13.18,34.85-19.85C465.81,744.14,465.82,743.5,463.5,739.45Z" transform="translate(-352.18 -702.45)"/><path class="cls-4" d="M451.61,737.87c-12.15,7.13-24.16,14.53-36.52,21.28-6.31,3.46-10.94,7.41-10.22,16.06-5.09-2.79-9.54-5.12-13.88-7.64-11.52-6.69-23-13.46-34.49-20.19-3.87-2.27-4.25-3.34-2.77-7.93" transform="translate(-352.18 -702.45)"/><path class="cls-4" d="M463.5,739.45c2.32,4,2.31,4.69-1.21,6.71-11.58,6.67-23.24,13.21-34.85,19.85-5.19,3-10.42,5.9-15.41,9.18-2.64,1.72-4.81,2-7.18-.07" transform="translate(-352.18 -702.45)"/><path class="cls-4" d="M418.72,764.81c10.17-5.81,20.36-11.59,30.5-17.45,4.67-2.69,9.14-5.75,13.92-8.22,2.95-1.52,1.94-3.43,1.06-5.19a7.79,7.79,0,0,0-3.1-2.79c-15.29-8.9-30.72-17.58-45.9-26.67-4.84-2.91-8.3-.26-11.9,1.74-8.18,4.54-16.14,9.47-24.22,14.19-6.84,4-13.78,7.85-20.55,12-1.36.83-2.16,2.57-3.22,3.89" transform="translate(-352.18 -702.45)"/><path class="cls-4" d="M427,723.6c-12.29,7.13-24.55,14.29-36.86,21.38-4.33,2.5-8.62,5-9.86,10.33a33.74,33.74,0,0,0-.44,5.14" transform="translate(-352.18 -702.45)"/><path class="cls-4" d="M412,715.28c-4.61,2.22-8.47,6-14.27,5.67a19,19,0,0,1-11.09-3.69" transform="translate(-352.18 -702.45)"/><path class="cls-4" d="M420.7,720.43l-15.06,8.72c-4.34,2.49-4.6,3.69-1.59,7.53" transform="translate(-352.18 -702.45)"/><path class="cls-4" d="M438.93,730.34c-2.12,1.19-4.26,2.33-6.34,3.57-6.65,4-6.52,7.17.38,11.1a17.6,17.6,0,0,1,2,1.57" transform="translate(-352.18 -702.45)"/><path class="cls-4" d="M402.07,708.15q16.46,9.51,32.89,19c5.84,3.4,11.76,6.68,17.36,10.42,1.58,1.06,2.19,3.58,3.25,5.43" transform="translate(-352.18 -702.45)"/><path class="cls-4" d="M443.68,722l-7.92,5.16" transform="translate(-352.18 -702.45)"/><path class="cls-4" d="M427,712.5l-7.93,5.16" transform="translate(-352.18 -702.45)"/></g></g></svg>