<svg xmlns="http://www.w3.org/2000/svg" viewBox="0 0 138.17 94.66"><defs><style>.cls-1{isolation:isolate;}.cls-2{fill:#d5bd8c;}.cls-3{opacity:0.2;mix-blend-mode:multiply;}.cls-4{fill:#5f6060;}.cls-5{fill:none;stroke:#fff;stroke-linecap:round;stroke-linejoin:round;stroke-width:1.5px;}</style></defs><title>5</title><g class="cls-1"><g id="Layer_1" data-name="Layer 1"><path class="cls-2" d="M477.13,719.9a7,7,0,0,0-1.39-1.89c-.36-.42-.9-.15-1.36-.46l-8.62-5.79a43.62,43.62,0,0,0-6.92-4c-1.81-.78-3.64-1.94-5.39-2.85a29.11,29.11,0,0,1-4.72-2.58c-5.14-3.95-10.88-7.49-17.3-8.47-3.68-.56-8,0-10.22,3-1.93,2.53-1.82,6-1.36,9.2a4,4,0,0,0,1.19,2.69c1.43,1.06,3.56-.26,4.19-1.93s.36-3.54.66-5.3c0,0,1.28-2.43,4.62-1a69.29,69.29,0,0,1,8.15,4.19c2.21,1.26,5.38,3,7.56,4.31,3.21,1.9,7,3.42,10.22,5.32s6.74,3.18,9.4,5.73a9.06,9.06,0,0,1,.84.91c-1.24,1.64-3.1,1.91-4.93,2.87-2.22,1.16-4.48,2.94-6.75,4-.92.42-1.81.88-2.7,1.35a74,74,0,0,0-10,6.47c-1.31,1-2.78,1.39-3.49,2.87-1,.18-1.81,1.33-2.74,1.76-2.93,1.34-5.56,3.34-8.61,4.38-7,2.39-14.31,7.82-21,11.22-2.41,1.23-3.28,2.48-5.74,3.58a11.88,11.88,0,0,1-4.89,1.39c-2.06,0-3.94-1.1-5.7-2.17-9.75-5.94-19.09-12.62-29.42-17.48-3.1-1.45-7-3.9-10.4-3.57a12,12,0,0,0-8,5.06c-1.75,2.55-1.47,6.56-.64,9.54A10.56,10.56,0,0,0,342.8,755c1.27,1.11,3.33-.72,4.17-2.18,1-1.67,1-4.58,1.24-6.49,0,0,1.73-1.83,5-.66,4.25,1.52,8,3.93,11.9,6.25,10.47,6.3,21,11.47,31.51,17.77a3.94,3.94,0,0,1,1.31,1.08c-.12,2.06-.14,4.49-.18,6.55a7.57,7.57,0,0,0,3.22,5.88c2,1.55,3.73,2.34,6.21,1.86s6-2.89,8.22-4l2.28-1.18a17.73,17.73,0,0,0,4.06-2.59c1-1,2.59-1.7,3.69-2.61a18,18,0,0,0,3.2-3.54,22,22,0,0,0,2.55-4.69c.37-1.62.63-2.95,1-4.57.53-2.31.2-4.7.59-7,.52-3.06.57-5.07,3.09-6.89a2.51,2.51,0,0,0,1-.94c.06-.16.72-.15.7-.31.55-.21.45.22,1,0a10.63,10.63,0,0,0,.33,2.62c.3,1.8-.14,4.81.16,6.61a4.56,4.56,0,0,0,1.89,3.18c2.14,1.42,4,2.52,6.55,2.18s4.89-2,7.12-3.34l3.32-1.91a54.54,54.54,0,0,0,8.79-5.88,4.79,4.79,0,0,0,.92-.49c2.58-1.76,4.68-5.85,5.24-8.92a46,46,0,0,0,.7-9.52c-.06-1.84-.45-3,.59-4.47.57-.82.46-1.32,1.29-1.88A4.45,4.45,0,0,0,477.13,719.9Zm-50.5,32.64c-.3,2.4.2,4.94-.1,7.34a24.14,24.14,0,0,1-1.29,5.65c-1.07,2.55-2.95,4.19-5.16,5.86a67.68,67.68,0,0,1-13.22,7.34c-.62.28-1.7,1.29-2.35,1.09-1.07-.32-1-2.39-1.06-3.5-.05-1.29-.67-1.89-.43-3.15a18.79,18.79,0,0,0,0-3.27c0-.83.8-1.77.17-2.3a4.72,4.72,0,0,1,.72-2.46c.9-1.48,3.38-2.78,4.86-3.67,6.21-3.74,12.09-7.94,18.68-11C427.24,751.33,426.73,751.71,426.63,752.54Zm20.05,2.94a2.37,2.37,0,0,1-2.15-.35,2.54,2.54,0,0,1-.51-1.76c-.07-3.69.31-7.4,0-11.08l.08-.13a12.28,12.28,0,0,1,3.7-3.69,27.32,27.32,0,0,1,2.56-1.37c6-3,11.82-6.36,17.61-9.74l.24,6c.12,2.78.19,5.72-1.2,8.12-.62,1.07-1.49,2-2.21,3a9.79,9.79,0,0,1-1.61,1.79C459.61,748.48,453.07,754.25,446.68,755.48Z" transform="translate(-339.93 -691.6)"/><g class="cls-3"><path class="cls-4" d="M477.13,719.9a5,5,0,0,0-1.09-1.55l-.55.31c-3.92,1.9-7.41,5-11.22,7.14-4.21,2.42-8.63,4.52-12.75,7.11s-7.8,6-12,8.52c-3.78,2.28-8.13,3.54-12.11,5.42a57.48,57.48,0,0,0-5.56,3,24.36,24.36,0,0,1-2.15,1.28,6.38,6.38,0,0,1-.75.25c-.38.27-1.8,1-2.28,1.31-1.1.72-2.24,1.37-3.37,2-5.15,3-11.5,7.15-16.94,9.78-.39,1.19-.49,4.37.3,5.56a16.57,16.57,0,0,1,1.86,0,2.56,2.56,0,0,1,1.74,3.07,6.34,6.34,0,0,1,0,.72c0,.17,0,.34-.05.51a5.59,5.59,0,0,1-.07,1.82,3.74,3.74,0,0,1-.09.48q0,.47-.06.93a16.81,16.81,0,0,0,.05,2.46c0,.08.23,1.25.34,1.67a3.28,3.28,0,0,0,.55,1.32l.09.17h0c2,1.55,3.73,2.34,6.21,1.86s6-2.89,8.22-4l2.28-1.18a17.73,17.73,0,0,0,4.06-2.59c1-1,2.59-1.7,3.69-2.61a18,18,0,0,0,3.2-3.54,22,22,0,0,0,2.55-4.69c.37-1.62.63-2.95,1-4.57.53-2.31.2-4.7.59-7,.52-3.06.57-5.07,3.09-6.89a2.51,2.51,0,0,0,1-.94c.06-.16.72-.15.7-.31.55-.21.45.22,1,0v.09a2.64,2.64,0,0,1,2.69,2.39c.32,3.4-.18,7.11.5,10.46,1.82,1.15,3.51,1.94,5.74,1.65,2.55-.34,4.89-2,7.12-3.34l3.32-1.91c3-1.76,5.37-2.66,8-5,.32-.12,1.41-1.21,1.7-1.4,2.58-1.76,4.68-5.85,5.24-8.92a46,46,0,0,0,.7-9.52c-.06-1.84-.45-3,.59-4.47.57-.82.46-1.32,1.29-1.88A4.45,4.45,0,0,0,477.13,719.9Zm-55.49,54c-2.86,2.06-6.08,3.65-9.11,5.44-2.1,1.24-4.21,2.4-6.7,1.83a2.13,2.13,0,0,1-1.71-1.57c-.66-.66-.63-2.3-.67-3.25-.05-1.29-.67-1.89-.43-3.15a18.79,18.79,0,0,0,0-3.27c0-.83.8-1.77.17-2.3a4.72,4.72,0,0,1,.72-2.46c.9-1.48,3.38-2.78,4.86-3.67,6.21-3.74,12.09-7.94,18.68-11a3.2,3.2,0,0,1-.29.7,2.23,2.23,0,0,1,2.37,2.41C429.11,761.92,428.87,768.68,421.64,773.87Zm48.14-33.82a5.66,5.66,0,0,1-.23.82c-1.44,3.89-3.06,7-6.56,9.37a69.34,69.34,0,0,1-6.77,3.84c-.75.39-1.48.75-2.24,1.11a2.57,2.57,0,0,0-.38.23c-.09.08-.19.15-.3.23s-.4.31-.43.25l-.16.09c-3.06,2.3-6.41,2-8.12-.82l-.06,0a1.94,1.94,0,0,1-.47-1.17,4.87,4.87,0,0,1,0-2.52c0-3.06.26-6.11,0-9.15l.08-.13a12.28,12.28,0,0,1,3.7-3.69,27.32,27.32,0,0,1,2.56-1.37c5.45-2.7,10.72-5.72,16-8.78a2.28,2.28,0,0,1,1.25-.73l.39-.23v.16a2.46,2.46,0,0,1,2.81,2.4A33.05,33.05,0,0,1,469.78,740.05Z" transform="translate(-339.93 -691.6)"/></g><path class="cls-5" d="M473.36,716.89c-2,1.21-4,2.44-6.08,3.64-2.35,1.38-4.71,2.72-7.07,4.09-4.6,2.69-9.24,5.33-13.79,8.09a41.79,41.79,0,0,0-5.3,3.87,62,62,0,0,1-7.18,4.76c-3,2-6.41,3-9.72,4.32a45,45,0,0,0-6,3.17c-5.36,3.1-10.69,6.25-16,9.37A38.72,38.72,0,0,0,397.9,761" transform="translate(-339.93 -691.6)"/><path class="cls-5" d="M466.4,720.87c-.92-.63-1.81-1.31-2.77-1.87q-7.81-4.56-15.68-9.07c-4.19-2.41-8.39-4.79-12.59-7.18a19,19,0,0,0-6.31-2.29c-.52-.09-1.09.26-1.65.28-.92,0-.61.8-.76,1.24a36,36,0,0,0-1.4,6.17c-.07.5-.87.93-1.38,1.33-.32.24-.76.33-1.09.57-1,.72-1.42.77-2.32,0a5.31,5.31,0,0,1-1.87-3.75A17,17,0,0,1,420,698a8,8,0,0,1,5.15-4.22c.22-.06.52,0,.65-.12,2.12-1.95,4.48-1.43,6.74-.51a52,52,0,0,1,5.75,3c4.29,2.43,8.56,4.92,12.82,7.39,3.36,2,6.7,3.92,10.06,5.85,2.9,1.68,5.83,3.3,8.72,5,1.21.71,2.34,1.57,3.55,2.3a28,28,0,0,0,3,1.54,1.39,1.39,0,0,1,.87,1.45c0,.88.05,1.77,0,2.65a3,3,0,0,1-1.29,2.58,5.8,5.8,0,0,0-2.48,5.27c.06,2.57.07,5.16-.12,7.73a19.25,19.25,0,0,1-2.51,7.51,22.93,22.93,0,0,1-9.61,9.18c-3.37,1.88-6.69,3.84-10.06,5.73a10.39,10.39,0,0,1-4.52,1.56,6.12,6.12,0,0,1-4-1.43,13.8,13.8,0,0,0-1.65-.9,4.49,4.49,0,0,1-2.27-3.21,52.06,52.06,0,0,1-.49-5.74c-.08-1.14-.15-2.28-.22-3.42" transform="translate(-339.93 -691.6)"/><path class="cls-5" d="M476.12,718.33c-1.14.62-2.3,1.22-3.42,1.88-1.49.89-2.93,1.87-4.43,2.75-4.59,2.67-9.25,5.22-13.78,8-2.29,1.4-4.61,2.76-6.84,4.27s-4.08,3.37-6.33,4.76-4.63,2.8-7,4.19a29,29,0,0,1-5.62,2.24,47.72,47.72,0,0,0-8.53,4.38c-6.79,4-13.62,7.9-20.43,11.84l-3.2,1.87" transform="translate(-339.93 -691.6)"/><path class="cls-5" d="M348.3,738.21c.41-.86,1.27-.79,2-.87a11,11,0,0,1,6.85,1.64q9.5,5.53,19,11c5.56,3.22,11.13,6.4,16.68,9.62,1.06.61,2.06,1.32,3.1,2" transform="translate(-339.93 -691.6)"/><path class="cls-5" d="M340.79,746.61a10.19,10.19,0,0,1,3.88-6.88c1.08-.76,3.07-2.12,4.58-2.23" transform="translate(-339.93 -691.6)"/><path class="cls-5" d="M346.57,738.56a5.27,5.27,0,0,1,2.73-.39c2.26.09,5.07,2,6.95,3,4.14,2.36,8.25,4.79,12.38,7.17,3.9,2.26,7.81,4.49,11.71,6.74l12,7c.6.35,1.18.73,1.77,1.1" transform="translate(-339.93 -691.6)"/><path class="cls-5" d="M426.19,693.58A7.14,7.14,0,0,0,428,694c2.31-.07,4.11,1.22,6,2.26,4.17,2.34,8.24,4.86,12.39,7.25,4.88,2.83,9.8,5.6,14.68,8.41,3,1.75,6,3.53,9.06,5.31a15,15,0,0,1,1.22.87" transform="translate(-339.93 -691.6)"/><path class="cls-5" d="M347.42,746.61a5.34,5.34,0,0,1,5.41-1,38.12,38.12,0,0,1,8.5,4.11c5.61,3.21,11.2,6.48,16.8,9.71,4.49,2.59,9,5.15,13.47,7.74,1.65,1,3.23,2,4.88,3a1.51,1.51,0,0,0,1.19.1c1.59-.7,2.43-.19,2.44,1.58,0,2.46-.08,4.93,0,7.4a8.27,8.27,0,0,0,.83,4,5.2,5.2,0,0,0,4.11,2.28,8.44,8.44,0,0,0,4.63-1.22c4.36-2.5,8.76-4.91,13-7.54a21,21,0,0,0,9.37-13.24,33.67,33.67,0,0,0,.58-4.63" transform="translate(-339.93 -691.6)"/><path class="cls-5" d="M451.6,736.89c2-1.11,4.65-2.64,6.62-3.76q4.32-2.48,8.62-5l1.33-.78a1.62,1.62,0,0,1,2.3,1.44,86.88,86.88,0,0,1-.18,10.71,14.61,14.61,0,0,1-4,7.86,21.14,21.14,0,0,1-5.32,3.74c-3.37,2-6.74,4-10.17,5.84-1.54.84-3.23,1.18-4.84,0-.16-.11-.23-.36-.34-.54" transform="translate(-339.93 -691.6)"/><path class="cls-5" d="M414.47,774.88s-2.69,1.63-3.19,1.9c-1.06.58-2,1.31-3.11,1.85-1.27.64-2.6,1.15-3.92,1.72a4.21,4.21,0,0,1-1.25-3c0-3.09-.08-6.19,0-9.28a5.41,5.41,0,0,1,2.85-4.63c5.4-3.16,10.83-6.27,16.24-9.4,1.58-.92,3.16-1.85,4.75-2.76a1.71,1.71,0,0,1,2.21,1,1.52,1.52,0,0,1,.1.55c0,3.24.13,6.5-.15,9.72a13.57,13.57,0,0,1-6.6,10.8c-4.33,2.68-8.79,5.16-13.25,7.63a3.86,3.86,0,0,1-4.51-.09,1.89,1.89,0,0,1-.34-.55" transform="translate(-339.93 -691.6)"/><path class="cls-5" d="M467.73,728.05a8.51,8.51,0,0,1,.21,1.21c0,1.73-.05,3.47,0,5.19a15.59,15.59,0,0,1-8.51,14.5c-3.84,2.08-7.59,4.33-11.39,6.49a7.85,7.85,0,0,1-1.22.55c-1.51.55-2,.27-2.3-1.32a15.38,15.38,0,0,1-.23-2.54c0-2.47,0-4.93,0-7.4a6,6,0,0,1,3.21-5.41c1.36-.82,2.72-1.62,4.09-2.43" transform="translate(-339.93 -691.6)"/><path class="cls-5" d="M426.41,751.91a6.59,6.59,0,0,1,.1.88c0,3,.06,6-.15,9a12.39,12.39,0,0,1-2.17,5.63,14.63,14.63,0,0,1-6.28,5.55c-1.19.56-2.28,1.33-3.44,2" transform="translate(-339.93 -691.6)"/><path class="cls-5" d="M432.7,758.87a14.87,14.87,0,0,0,.1-2.21c-.22-2.33-.25-4.59,1.21-6.64a7.83,7.83,0,0,1,4-3c1.43-.48,1.95-.43,2.63.58a2.51,2.51,0,0,1,.34,1.31c0,1.84,0,3.68,0,5.52a12.75,12.75,0,0,0,.88,5.08c.08.15,0-.18,0,0" transform="translate(-339.93 -691.6)"/><path class="cls-5" d="M397.35,770.58c0,2.21,0,4.42.12,6.63s.49,4.26,2.32,5.73a3.15,3.15,0,0,0,1,.35" transform="translate(-339.93 -691.6)"/><path class="cls-5" d="M340.79,746.61c0,1.4-.14,2.8-.1,4.19a5,5,0,0,0,2,4.09,1.67,1.67,0,0,0,2.22,0,7.12,7.12,0,0,1,1.44-.77c.86-.36,1.36-.61,1.42-1.45a31.79,31.79,0,0,1,.63-4,10,10,0,0,0,.48-2.74" transform="translate(-339.93 -691.6)"/><path class="cls-5" d="M423.15,709.6a12.92,12.92,0,0,1,1.84-7.39c.33-.54.76-1.22,1.64-1" transform="translate(-339.93 -691.6)"/><path class="cls-5" d="M345.54,750.69c-.11.7-.26,1.4-.32,2.11-.05.54,0,1.1,0,1.65" transform="translate(-339.93 -691.6)"/><path class="cls-5" d="M397.9,761c-1.4.38-2.8.75-3.53,2.21" transform="translate(-339.93 -691.6)"/></g></g></svg>