<svg xmlns="http://www.w3.org/2000/svg" viewBox="0 0 112.85 82.43"><defs><style>.cls-1{isolation:isolate;}.cls-2{fill:#d5bd8c;}.cls-3{fill:#5f6060;opacity:0.2;mix-blend-mode:multiply;}.cls-4{fill:none;stroke:#fff;stroke-linecap:round;stroke-linejoin:round;stroke-width:1.5px;}</style></defs><title>6</title><g class="cls-1"><g id="Layer_1" data-name="Layer 1"><path class="cls-2" d="M464.72,729.28c-2-14.26-17.91-29.73-33.82-29.73-4.86-1.94-26,1.07-34.57,6.29h0c-8.21,3.22-17.14,11.24-22.8,27.84a4,4,0,0,1-2.15,2.74,87.52,87.52,0,0,0-13.72,11.71c-1.65,1.7-5.5,5.5-2.67,7.56,2.58,1.89,7.44,1.18,12.3,4.31,12.4,8,18.38,18.63,23.74,19.68s12.3-1.94,22.19-5.41,17.36-7.74,19.61-8.71c10.53-2,19.85-5.91,26-12.71C465.34,745.59,466.2,739.58,464.72,729.28Z" transform="translate(-353.24 -698.21)"/><path class="cls-3" d="M464.72,729.28c-.92-6.43-4.67-13.11-10-18.5a28.69,28.69,0,0,1,3.08,9.15c1.47,10.3.61,16.31-5.92,23.57-6.11,6.8-15.43,10.7-26,12.71-2.26,1-9.72,5.25-19.61,8.71s-16.83,6.47-22.19,5.41a6.37,6.37,0,0,1-1.6-.59c-1.63-.39-3.23-.84-4.82-1.35C383.6,774,387.47,779,391,779.68c5.36,1.06,12.3-1.94,22.19-5.41s17.36-7.74,19.61-8.71c10.53-2,19.85-5.91,26-12.71C465.34,745.59,466.2,739.58,464.72,729.28Z" transform="translate(-353.24 -698.21)"/><path class="cls-4" d="M447.58,709.48c-8.26-4.82-18.63-4.72-29.05-2.8-2-.95-4.89-1.16-8-2-9.14-2.49-27.57,1.44-37,29a4,4,0,0,1-2.15,2.74,87.52,87.52,0,0,0-13.72,11.71c-1.65,1.7-5.5,5.5-2.67,7.56,2.58,1.89,7.44,1.18,12.3,4.31,12.4,8,18.38,18.63,23.74,19.68s12.3-1.94,22.19-5.41,17.36-7.74,19.61-8.71c10.53-2,19.85-5.91,26-12.71,6.53-7.26,7.39-13.27,5.91-23.57-2-14.26-17.91-29.73-33.82-29.73-4.16,0-14.16,3.91-12.37,7.13.87,1.56,14.22,7.66,17.09,22.75,3,15.79-3.13,34-2.78,36.13" transform="translate(-353.24 -698.21)"/><path class="cls-4" d="M372.75,735.37s1.72,7.49,19,17.63,41,12.56,41,12.56" transform="translate(-353.24 -698.21)"/><path class="cls-4" d="M417.93,706.61a47.06,47.06,0,0,0-8.62,5.91" transform="translate(-353.24 -698.21)"/><path class="cls-4" d="M430.9,699.55c-4.86-1.94-26,1.07-34.57,6.29" transform="translate(-353.24 -698.21)"/><ellipse class="cls-4" cx="65.29" cy="8.47" rx="5.01" ry="2.89"/></g></g></svg>