<svg xmlns="http://www.w3.org/2000/svg" viewBox="0 0 90.22 78.82"><defs><style>.cls-1{isolation:isolate;}.cls-2{fill:#d5bd8c;}.cls-3{fill:#5f6060;opacity:0.2;mix-blend-mode:multiply;}.cls-4{fill:none;stroke:#fff;stroke-linecap:round;stroke-linejoin:round;stroke-width:1.5px;}</style></defs><title>7</title><g class="cls-1"><g id="Layer_1" data-name="Layer 1"><path class="cls-2" d="M451.77,735.67a2.41,2.41,0,0,0,.2-.94c-.22-5.93-1.28-11.83-1.86-17.75a88.62,88.62,0,0,1-.5-10.43c.07-3.45-2.36-4.61-4.77-5.68-1.94-.85-4.16-1.35-5.19,1.51l0,.25c-2.56-.57-4.2,1.18-6.24,2.35-4.08,2.33-12.75,9.84-21.81,10.87-.72-1.37-2.46-2.14-5.31-2.14l3.79,3.65a6.84,6.84,0,0,0-5.38-.5c-2.56.58-2,2.39-2.25,3.78a1.92,1.92,0,0,1-.39,1c-5.08,6-9.86,12.45-15.73,17.62s-13.44,8.8-18.83,15.12l-.85,1.74a21.42,21.42,0,0,0-.86,3.37l-.14,0s-1,.61-1,1.39,0,5.77,0,6.44a4.87,4.87,0,0,0,2,4.17,29.21,29.21,0,0,0,16.14,5.94c16.81.86,30-7.45,40.3-19.09,5-5.64,13.18-10.59,14.62-7,4.08-1.91,15.61-8.34,15.61-8.34v-7.83Z" transform="translate(-363.85 -699.46)"/><path class="cls-3" d="M410.81,718.15a2.06,2.06,0,0,0,.75.17,21.93,21.93,0,0,1,3,.85c5.07,1.21,9.16,3.52,14,5.42,6.4,2.53,10.31-.94,14.46-4.71a25.4,25.4,0,0,0,2.15-6.9c.68-3.07-.17-9.32-4.49-10.26a5.81,5.81,0,0,1-1-.32l0,.23c-2.56-.57-4.2,1.18-6.24,2.35-4.06,2.32-12.66,9.76-21.67,10.85A12.85,12.85,0,0,0,410.81,718.15Z" transform="translate(-363.85 -699.46)"/><path class="cls-3" d="M449.2,708.35c-.22.75-3.07,13.42-24.15,26.16-14,9.26-14.6,25.41-28.09,32.22-6.87,3.48-12.59,5.9-19.72,3.9-.13,2-.33,3.89-.51,5.84a29.45,29.45,0,0,0,6.06,1c16.81.86,30-7.45,40.3-19.09,5-5.64,13.18-10.59,14.62-7,4.08-1.91,15.61-8.34,15.61-8.34v-7.83l-.7.2C452.29,735.88,450,708.37,449.2,708.35Z" transform="translate(-363.85 -699.46)"/><path class="cls-4" d="M453.32,735.24v7.83s-11.53,6.43-15.61,8.34c-1.44-3.63-9.61,1.32-14.62,7-10.32,11.64-23.49,20-40.3,19.09a29.21,29.21,0,0,1-16.14-5.94,4.87,4.87,0,0,1-2-4.17c0-.67,0-5.65,0-6.44s1-1.39,1-1.39" transform="translate(-363.85 -699.46)"/><path class="cls-4" d="M435.47,746.2c4.35-2.27,8.81-4.34,13-6.88,1.59-1,3.58-3.08,3.52-4.59-.22-5.93-1.28-11.83-1.86-17.75a88.62,88.62,0,0,1-.5-10.43c.07-3.45-2.36-4.61-4.77-5.68-1.94-.85-4.16-1.35-5.19,1.51" transform="translate(-363.85 -699.46)"/><path class="cls-4" d="M409.92,716c9.64-.21,19.14-8.52,23.46-11,2.45-1.4,4.31-3.65,7.91-1.7s4.39,4.49,4.09,8c-.85,9.82-8.74,16.14-15.07,14.43-3.4-.92-6.31-3.65-9.44-5.56" transform="translate(-363.85 -699.46)"/><path class="cls-4" d="M411.48,718.55c-1.91-2-4-2.33-6.81-1.69-3.24.73-1.54,3.46-2.64,4.77-5.08,6-9.86,12.45-15.73,17.62s-13.44,8.8-18.83,15.12l-.85,1.74c-2.45,7.32-.4,9.64,6.27,13,13.81,7,31.26.36,39.63-9.36" transform="translate(-363.85 -699.46)"/><path class="cls-4" d="M450.26,718.45c-6.54,4.75-9.57,16.12-9.57,24.62" transform="translate(-363.85 -699.46)"/><path class="cls-4" d="M415.13,726.37,400,746.2" transform="translate(-363.85 -699.46)"/><path class="cls-4" d="M406.26,722.2c-5.45,6.64-10.7,12.31-16.25,18.93" transform="translate(-363.85 -699.46)"/><path class="cls-4" d="M409.92,727.7c-1.13-7.24,1.12-10.78,7.3-8.63,3.65,1,3.65,3.67,3.59,5.22s-.4,4.36-1,4.48c-2.73.52-3.77-1.9-4.6-4a30.21,30.21,0,0,1-1.09-4.67" transform="translate(-363.85 -699.46)"/><path class="cls-4" d="M384.36,745.15c3.1,1.05,11.09,4.72,12.17,6.6" transform="translate(-363.85 -699.46)"/><path class="cls-4" d="M406.26,713.71c4.61,0,6.32,2,5.52,5.32" transform="translate(-363.85 -699.46)"/><path class="cls-4" d="M409.92,720.64c-1.22.52-6.79,2.56-7.5,0" transform="translate(-363.85 -699.46)"/><path class="cls-4" d="M390,738s12.7,5.91,13.58,8" transform="translate(-363.85 -699.46)"/><path class="cls-4" d="M395.49,731.66s12.45,6.2,13.06,8.17" transform="translate(-363.85 -699.46)"/><path class="cls-4" d="M400.49,726s11.57,6.35,12,8.16" transform="translate(-363.85 -699.46)"/></g></g></svg>