<svg xmlns="http://www.w3.org/2000/svg" viewBox="0 0 46.11 40.52"><defs><style>.cls-1{isolation:isolate;}.cls-2{fill:#d5bd8c;}.cls-3{fill:#5f6060;opacity:0.2;mix-blend-mode:multiply;}.cls-4{fill:none;stroke:#fff;stroke-linecap:round;stroke-linejoin:round;stroke-width:1.5px;}</style></defs><title>1</title><g class="cls-1"><g id="Layer_1" data-name="Layer 1"><path class="cls-2" d="M417.79,720.24a9.17,9.17,0,0,1,8,4.64l3.16,5.47a18.77,18.77,0,0,1,0,18.79l-3.16,5.47c-1.78,3.09-6.41,4.75-9.53,4.75l-15.66-.51-4.77-1.59L393,755.14s-4.33-9.46-4.64-9.87a49.39,49.39,0,0,1-1.43-4.85s.8-6.14.86-6.33,6.11-11.18,6.11-11.18l4.63-2.44,18.65,0" transform="translate(-386.15 -719.49)"/><path class="cls-3" d="M427,726.93c-3.06-.13-6.12-.25-9.18-.34-2.64-.08-5.3-.07-7.95-.11a22.91,22.91,0,0,1,3.52,16.62c-1.19,6.66-5.51,10.88-9.33,15.86l12.22.4c3.12,0,7.75-1.66,9.53-4.75l3.16-5.47a18.77,18.77,0,0,0,0-18.79Z" transform="translate(-386.15 -719.49)"/><path class="cls-4" d="M417.79,720.24a9.17,9.17,0,0,1,8,4.64l3.16,5.47a18.77,18.77,0,0,1,0,18.79l-3.16,5.47a9.18,9.18,0,0,1-8,4.64" transform="translate(-386.15 -719.49)"/><path class="cls-4" d="M411.82,749.14l-3.17,5.47a9.27,9.27,0,0,1-16.07,0l-3.16-5.47a18.77,18.77,0,0,1,0-18.79l3.16-5.47a9.27,9.27,0,0,1,16.07,0l3.17,5.47A18.82,18.82,0,0,1,411.82,749.14Z" transform="translate(-386.15 -719.49)"/><path class="cls-4" d="M399.38,728.6c1.13,0,1.92.84,2.84,1.73.75.73,2.59,1,3.12,2.19.45,1-.84,2.66-.61,3.88a17.16,17.16,0,0,1,.29,3.34c0,1.22,1.41,2.54,1.21,3.63a19.08,19.08,0,0,1-.78,3.65c-.53,1.17-2.7,1.18-3.46,1.91a3.4,3.4,0,0,1-2.61,1.35c-1.13,0-1.59-.57-2.51-1.45-.76-.73-1.87-1.16-2.4-2.33-.44-1-1.9-1.87-2.13-3.09s1.29-2.45,1.29-3.67a17.17,17.17,0,0,1,.31-3.35,14.3,14.3,0,0,1,.77-3.29c.53-1.17.22-2.94,1-3.67C396.6,728.54,398.25,728.6,399.38,728.6Z" transform="translate(-386.15 -719.49)"/><line class="cls-4" x1="14.47" y1="39.77" x2="31.65" y2="39.77"/><path class="cls-4" d="M400.62,720.24" transform="translate(-386.15 -719.49)"/><path class="cls-4" d="M400.86,742.25s2.17-1.42,1.88.62-1.22,1.82-1.22,1.82" transform="translate(-386.15 -719.49)"/><path class="cls-4" d="M400.76,735.94s3.74-1.79,2.6-.05.31,2.2.31,2.2" transform="translate(-386.15 -719.49)"/><path class="cls-4" d="M395.07,743.62s1-1.47,1.58-1.13,3,2.4,1.37,2.62" transform="translate(-386.15 -719.49)"/><path class="cls-4" d="M398.65,737.83s-1.93-3.15-1.83-1.33-1.06,3.18.81,2.65" transform="translate(-386.15 -719.49)"/><path class="cls-4" d="M401.67,730s-2.7.32-2,1.61,1.93,1.67,2.46,1.06" transform="translate(-386.15 -719.49)"/><path class="cls-4" d="M400,748.78s-2.84.34-2.23,1.13,2.23.87,2.23.87" transform="translate(-386.15 -719.49)"/><line class="cls-4" x1="31.65" y1="0.75" x2="14.47" y2="0.75"/></g></g></svg>