<svg xmlns="http://www.w3.org/2000/svg" viewBox="0 0 113.58 117.3"><defs><style>.cls-1{isolation:isolate;}.cls-2{fill:#d5bd8c;}.cls-3{fill:#5f6060;opacity:0.2;mix-blend-mode:multiply;}.cls-4{fill:none;stroke:#fff;stroke-linecap:round;stroke-linejoin:round;stroke-width:1.5px;}</style></defs><title>2</title><g class="cls-1"><g id="Layer_1" data-name="Layer 1"><path class="cls-2" d="M463.3,750.75s-2.65-5.41-1.09-5.87a12.62,12.62,0,0,0,3.32-1.84l-3-1.54-4.33-4.15,1.56-3.23,3.54-6.65,1-7.22-1-2.52c0-.2,0-.4,0-.6,0-22.07-24.3-36-54.28-36-28.46,0-54.28,17.61-54.28,37.5a11.21,11.21,0,0,0,.42,3l-1.6,3.92,3.54,2.43a35,35,0,0,0,4.3,7.23l-1.28.29-4.41,1-1,3.7,4,.5V752.9a24.05,24.05,0,0,0-2.06,9.64c0,19.19,23.46,34.76,52.39,34.76s53.19-13.92,53.19-33.11c0-2.07-1.08-5.74-1.6-7.7l.75-3.66Z" transform="translate(-352.81 -680.37)"/><path class="cls-3" d="M463.3,750.75s-2.65-5.41-1.09-5.87a12.62,12.62,0,0,0,3.32-1.84l-3-1.54-4.33-4.15,1.55-3.23,3.55-6.65,1-7.22-.56-1.44c-12.29,15.73-37.95,26.56-67.64,26.56a115.22,115.22,0,0,1-25.49-2.8c1.15,1.48,2.35,2.92,3.59,3.42,3.74,1.52,10.19,3.82,3.69,8.55-2.81,2-.08,5.91-3.69,5L372.1,763l1.33,5.76s-2.81,1-2.53,5.17a54.63,54.63,0,0,0,1.49,5.9h-2.07l.58,6.58C380.45,793.09,394,797.3,409,797.3c28.94,0,53.19-13.28,53.19-32.47a45.33,45.33,0,0,0-1.6-8.34l.75-3.66Z" transform="translate(-352.81 -680.37)"/><path class="cls-4" d="M462.21,759.2c0,16.79-23.57,30.4-52.65,30.4S356.91,776,356.91,759.2" transform="translate(-352.81 -680.37)"/><path class="cls-4" d="M356.91,759.2v7.32c0,16.79,23.57,30.4,52.65,30.4s52.65-13.61,52.65-30.4V759.2" transform="translate(-352.81 -680.37)"/><path class="cls-4" d="M380.15,772c-.67-.27-1-1.37-1.62-1.66s-1.42-.34-2-.65-1.22-.74-1.84-1.08-1.28-.64-1.88-1-1.33-.58-1.92-1-1.21-.77-1.77-1.2-1.34-.66-1.87-1.11-.65-1.43-1.16-1.92-1.51-.55-2-1.07-.64-1.36-1.06-1.92-1-1.07-1.38-1.66-.9-1.17-1.22-1.8.08-1.59-.17-2.25a20.13,20.13,0,0,1-.81-1.95,16.8,16.8,0,0,1-.49-2.07c-.09-.7-.63-1.4-.63-2.12" transform="translate(-352.81 -680.37)"/><path class="cls-4" d="M395.14,775.65c-.73-.13-1.54.05-2.29-.11s-1.43-.56-2.17-.74-1.43-.53-2.16-.73-1.51-.28-2.22-.49-1.46-.48-2.15-.72" transform="translate(-352.81 -680.37)"/><path class="cls-4" d="M424.65,775.58c-.71.13-1.43.18-2.15.29s-1.36.73-2.08.82-1.53-.76-2.25-.68-1.41.36-2.13.41-1.41.57-2.14.6-1.45-.12-2.17-.11-1.45-.21-2.17-.21-1.43.5-2.28.48-1.52-.61-2.26-.63-1.07.1-1.69.06" transform="translate(-352.81 -680.37)"/><path class="cls-4" d="M464.26,721.56c0,17.44-24.49,31.58-54.7,31.58S354.85,739,354.85,721.56" transform="translate(-352.81 -680.37)"/><path class="cls-4" d="M354.85,721.56c0-17.44,14.08-40.44,54.71-40.44,42.69,0,54.7,23,54.7,40.44" transform="translate(-352.81 -680.37)"/><path class="cls-4" d="M448.35,773.85c.6-.41,1-1.08,1.56-1.51s1.08-.94,1.62-1.4,1.45-.55,2-1,1.06-1,1.53-1.54.64-1.36,1.07-1.92,1-1.07,1.38-1.66.26-1.5.57-2.13,1.25-1,1.5-1.67a20,20,0,0,0,.65-2.08c.18-.69-.29-1.51-.2-2.22a16.35,16.35,0,0,0,0-2.1c0-.86.72-.86.72-1.72" transform="translate(-352.81 -680.37)"/><path class="cls-4" d="M435.22,778.92c.7-.24,1.67.35,2.35.09s1.74.33,2.41,0,.64-2.18,1.29-2.48" transform="translate(-352.81 -680.37)"/><path class="cls-4" d="M385.43,779.84c.71.22,1.08,1.59,1.8,1.8s1.36.81,2.09,1,1.78-1.07,2.52-.91,1.46.2,2.2.34,1.52-.14,2.26,0,1.41.47,2.16.57,1.28,1.89,2,2,1.64-1.48,2.39-1.42,1.4,1.43,2.15,1.47,1.55-1.41,2.3-1.39,1.48.33,2.23.33,1.44-.73,2.17-.75,1.51,1.31,2.24,1.27,1.46-.27,2.19-.33,1.52.43,2.25.35,1.44-.44,2.17-.53,1.3-1.3,2-1.41,1.53.33,2.25.2,1.68.88,2.4.73,1.55-1.24,2.26-1.41" transform="translate(-352.81 -680.37)"/><path class="cls-4" d="M359.28,747.52c0,1.18-.29,1.18-.29,2.36s-.65,1.18-.65,2.36-.15,1.18-.15,2.35a18,18,0,0,0,.25,2.21c.08.71.7,1.35.87,2.05a21,21,0,0,0,.65,2c.25.67.85,1.16,1.17,1.81s-.29,1.81.11,2.42,1.29.88,1.74,1.45.59,1.39,1.09,1.93,1.21.84,1.75,1.34,1,1,1.6,1.46,1.07,1,1.66,1.41,1.25.73,1.87,1.13,1.2.79,1.84,1.15,1.46.29,2.11.63,1.13,1,1.79,1.27,1.46.24,2.13.53" transform="translate(-352.81 -680.37)"/><path class="cls-4" d="M373.57,757.05s6.9,5.55,6.9,12.8c0,4.56-1.57,6.22-1.57,9.79s2.19,4.21,3.26,4.21,3.25-.64,3.25-4.21-1.57-5.23-1.57-9.79,2.66-4.12,3.71-3.37" transform="translate(-352.81 -680.37)"/><line class="cls-4" x1="20.76" y1="76.68" x2="5.88" y2="66.61"/><path class="cls-4" d="M387.78,766.65s-3.55-2.37,2.32,1.58,5.85,12.06,8.5,12.06,7.47-9.24,18.56-14c7.76-3.33,21.89-10.64,32.59-15.15,8.18-3.46,13.55-.41,13.55-.41s-.51-5.18-2.87-7.11" transform="translate(-352.81 -680.37)"/><path class="cls-4" d="M448.42,763.87s-2.47,1.45-2.47,5.62c0,1.78,1.11,2.13,1.11,4.19,0,3.13-2.38,3.9-3,3.9s-2.05.35-2.05-1.7,1.14-3.37,1.14-5.06c0-1.43-2.17-2-2.78-1.53" transform="translate(-352.81 -680.37)"/><line class="cls-4" x1="95.61" y1="83.5" x2="108.55" y2="72.46"/><path class="cls-4" d="M440.38,769.29c-5.85,4-5,13.24-7.68,13.24s-2.4-9.19-23.14-12" transform="translate(-352.81 -680.37)"/><path class="cls-4" d="M409.61,769.39c2-.08,1.75.13,3.73,0s4.1.55,6.06.28,3.88-1.32,5.8-1.67,3.91-1.1,5.78-1.54c2.07-.49,4.44.59,6.22.07,2.16-.64,3.87-2,5.48-2.62,2.68-1.05,5.07-1.54,5.8-2.35,1.89-2.09,2.23-4.74,3.31-6.18,3.31-4.39,2.84-2.12,2.95-5.55" transform="translate(-352.81 -680.37)"/><path class="cls-4" d="M384.05,768a38.33,38.33,0,0,0,7.44,1.74" transform="translate(-352.81 -680.37)"/><path class="cls-4" d="M362.22,749.49c-.7,3.08-.48,2.7,1.62,6.16.87,1.44,2.53,2.73,4.55,4.37a30.38,30.38,0,0,0,5.1,3.71,52.76,52.76,0,0,0,5.78,2.58" transform="translate(-352.81 -680.37)"/><path class="cls-4" d="M424.7,764.55s1.82-2.32,3.53,0" transform="translate(-352.81 -680.37)"/><path class="cls-4" d="M423.85,779.25s.6-3.35,2.32-1" transform="translate(-352.81 -680.37)"/><path class="cls-4" d="M435.3,766.59s5.66-3.49,2.12-3.52" transform="translate(-352.81 -680.37)"/><path class="cls-4" d="M441.77,760.11s.3-2.83,2.12-1.52" transform="translate(-352.81 -680.37)"/><path class="cls-4" d="M436,778.2s.3-2.82,2.12-1.51" transform="translate(-352.81 -680.37)"/><path class="cls-4" d="M413.91,783.22s-1.28-2.55-2.56-1.17" transform="translate(-352.81 -680.37)"/><path class="cls-4" d="M449.75,758.07s-2.93-3.47-2.93-1-.51,2.48-.51,2.48" transform="translate(-352.81 -680.37)"/><path class="cls-4" d="M417.34,777.5s1.78.8-.8,1.41" transform="translate(-352.81 -680.37)"/><path class="cls-4" d="M394.09,778.12s1,2.55-2,1.84" transform="translate(-352.81 -680.37)"/><path class="cls-4" d="M374.18,769.29s-1.55-.41-2,1.84" transform="translate(-352.81 -680.37)"/><path class="cls-4" d="M437.32,757.85s1.17,2.42-.37,1.68" transform="translate(-352.81 -680.37)"/><path class="cls-4" d="M405,780.56s-1.87,2.81-.66,2.31" transform="translate(-352.81 -680.37)"/><path class="cls-4" d="M419,766.94s-1.86,2.81-.65,2.31" transform="translate(-352.81 -680.37)"/><path class="cls-4" d="M409.85,778.75s-1-2.28-1.66-.69" transform="translate(-352.81 -680.37)"/><path class="cls-4" d="M375.82,762.23c-.3,0-3.23.8-2.93,0a26.29,26.29,0,0,0,.68-2.7" transform="translate(-352.81 -680.37)"/><path class="cls-4" d="M367.54,754.85s-.91-1.21-.81,0" transform="translate(-352.81 -680.37)"/><path class="cls-4" d="M438.07,748.42s-6.16,4.42-5.95,5.68,0,5.21-.82,4-10.2-4.66-11.84-2.36-5,8.9-7.13,6-6.56-3-7.06,0-11.72,5.79-11.72,5.79-3.72-4.39-1.16-5.46,2.4-.33,2.47-1.81,2.35-7.43,4.7-7.62" transform="translate(-352.81 -680.37)"/><path class="cls-4" d="M369.86,743.29c.43,1.07.74,6.11-.36,6.26s-.6,4.14,1.47,3.28,5.92.72,5.92,1.75,1.93-2.83,3.42-1,0-5.28,0-5.28" transform="translate(-352.81 -680.37)"/><path class="cls-4" d="M367.93,742.05s-5.66-.19-6.37,2-1.24,1.71-2.87.28-1.55-6.92-4-4.21-.5-3.7,1-3.7,3.82-1.64,5.55,0" transform="translate(-352.81 -680.37)"/><path class="cls-4" d="M448,744s5.31.56,4.66,2.34,3,1.28,4.48-.29,1.58-4.2,3.26-2.42a3.31,3.31,0,0,0,5.1-.6c.57-1.33-1.21-.33-3-1.54s-.72-2.5-2.1-3.57a3.71,3.71,0,0,0-3.26-.37" transform="translate(-352.81 -680.37)"/><path class="cls-4" d="M417.18,734.58c.64,1.57-.5,3.5-.5,3.5" transform="translate(-352.81 -680.37)"/><path class="cls-4" d="M438.08,729.66s-.22.86,1.56,1.29" transform="translate(-352.81 -680.37)"/><path class="cls-4" d="M445.28,715.11s1.28,1.07.71,2.07" transform="translate(-352.81 -680.37)"/><path class="cls-4" d="M423.46,716.4a2.57,2.57,0,0,0,3,.71" transform="translate(-352.81 -680.37)"/><path class="cls-4" d="M394.08,717.68s-.08,1.5-1.22,1.71" transform="translate(-352.81 -680.37)"/><path class="cls-4" d="M418.11,717.31a2.27,2.27,0,0,0-.73,2.94" transform="translate(-352.81 -680.37)"/><path class="cls-4" d="M394.65,744.85s.5,1.71-1.18,1.86" transform="translate(-352.81 -680.37)"/><path class="cls-4" d="M402.06,700.21s-.92-.93-1,.35" transform="translate(-352.81 -680.37)"/><path class="cls-4" d="M400.62,685.83s-1.65-.6-1.72.68" transform="translate(-352.81 -680.37)"/><path class="cls-4" d="M400.49,703.42s.57,1,0,1.49" transform="translate(-352.81 -680.37)"/><path class="cls-4" d="M377.1,720.46s-1.71,1-1.14,2" transform="translate(-352.81 -680.37)"/><path class="cls-4" d="M383.81,738.58s-.86,1.64-2.21.64" transform="translate(-352.81 -680.37)"/><path class="cls-4" d="M387.52,704.17s-1.86-.54-1.07.74" transform="translate(-352.81 -680.37)"/><path class="cls-4" d="M411.4,689s-.71,1.07-1.42.5" transform="translate(-352.81 -680.37)"/><path class="cls-4" d="M405.2,714.18s-.93,1.07.43,1.29" transform="translate(-352.81 -680.37)"/><path class="cls-4" d="M430.3,702.06s1,.64,0,1.07" transform="translate(-352.81 -680.37)"/><path class="cls-4" d="M432.29,747s-.63,1.37.37,1.44" transform="translate(-352.81 -680.37)"/><path class="cls-4" d="M417.38,703.42a1.38,1.38,0,0,1-.35,1.49" transform="translate(-352.81 -680.37)"/><path class="cls-4" d="M413.88,698.38s-1.11-1-1.82-.24" transform="translate(-352.81 -680.37)"/><path class="cls-4" d="M435.79,689.68s.43.47-.5.69" transform="translate(-352.81 -680.37)"/><path class="cls-4" d="M372.25,703.42s-1.06.36,0,.85" transform="translate(-352.81 -680.37)"/><path class="cls-4" d="M456.9,734.08s-1.21-.5-1.21.5" transform="translate(-352.81 -680.37)"/><path class="cls-4" d="M392.86,695.64a.64.64,0,0,1,0,1" transform="translate(-352.81 -680.37)"/><path class="cls-4" d="M406.34,721.24a.51.51,0,0,1,0,.79" transform="translate(-352.81 -680.37)"/><path class="cls-4" d="M366.13,765.42s2.24.8,1,1.76" transform="translate(-352.81 -680.37)"/><path class="cls-4" d="M377.28,774s-1.18-1.5-3.1.35" transform="translate(-352.81 -680.37)"/><path class="cls-4" d="M455,764.06s-.6-.9-1.56.13" transform="translate(-352.81 -680.37)"/><path class="cls-4" d="M450.7,768s-1.7-.6-1.11-1.37" transform="translate(-352.81 -680.37)"/></g></g></svg>