<svg xmlns="http://www.w3.org/2000/svg" viewBox="0 0 113.69 81.71"><defs><style>.cls-1{isolation:isolate;}.cls-2{fill:#d5bd8c;}.cls-3{fill:#5f6060;opacity:0.2;mix-blend-mode:multiply;}.cls-4{fill:none;}.cls-4,.cls-5{stroke:#fff;stroke-linecap:round;stroke-linejoin:round;stroke-width:1.5px;}.cls-5{fill:#d7b885;}</style></defs><title>3</title><g class="cls-1"><g id="Layer_1" data-name="Layer 1"><path class="cls-2" d="M433.69,706.08l6.77,13.22,3.61,6,1.19,3.79,8.89,16.07,2.64,6.52L465.57,765v8.87l-25.39-5.38.75,4.73.17,2.83-1.59,3.55-3.08-.36-1.85-3.88L435,772l1.09-4.33-4.89-1-48.32-10.2,2.78,12-.37,6.83a4.77,4.77,0,0,1-4.06,2.45c-3.09.26-4.75-4.52-4.75-4.52l1.5-11.72,1.29-5.78-25.57-5.46V741.7s1.14-5.8,1.55-6.87,5.68-9.34,5.68-9.34l9.2-8.58,11.5-7.32,10.57-4.22,11.24-2.63L419.58,700l10.58-.42,3.2,2Z" transform="translate(-352.9 -698.65)"/><path class="cls-3" d="M376.67,751.49a1.47,1.47,0,0,1-.29-.49c-1.14-.14-2.68-1.81-3.82-1.92-4.51-.45-8.55-3-6.83-8,7.87-23,35.31-28.33,56.22-31,4-.5,8.63-1.49,13-1.6l-1.27-2.47-.28-3.8c-18.5-1.5-38.13,2.34-54.16,11.82-7.53,4.46-14.33,10.26-18.23,18.21-2,4.1-4.32,7.82-7.37,10.41v7.43l24.41,5.22A6.78,6.78,0,0,0,376.67,751.49Z" transform="translate(-352.9 -698.65)"/><path class="cls-3" d="M434.66,762.8c-.08-.21-2.14-2-2.13-2.18-4.75-1.3-8.34-2.06-13.23-3-12.59-2.43-20.45-4.49-33.14-6.29-3,1-4.8,2.82-4.88,4.32,0,.64-.18,1.22-.14,1.56.52,4.26-.31,8.95-1,12.24-.9,4.37.37,7.22,2.74,7.15l2.34-1.42.37-6.83-2.78-12,48.32,10.2,4.09.87A9.66,9.66,0,0,0,434.66,762.8Z" transform="translate(-352.9 -698.65)"/><path class="cls-3" d="M465.57,768a8.13,8.13,0,0,1-2.15-.36c-7-2.2-13.15-2.78-20.28-5.41-1.24-.46-2.68.91-3.95.56-1,1.88-.72,5.05-1.25,7.55-.8,3.76-1.94,7.38.88,8.88l1.31-.47,1-2.68-.17-2.83-.75-4.73,25.39,5.38Z" transform="translate(-352.9 -698.65)"/><path class="cls-3" d="M438.07,750.86c4.88-2,2.91-6.57.75-9.57.84,8.07-11.36,9.38-17,8.54C423.24,751.24,430.93,753.77,438.07,750.86Z" transform="translate(-352.9 -698.65)"/><path class="cls-3" d="M432.25,723.93c4.88-2,2.91-6.57.75-9.58.84,8.07-11.36,9.39-17,8.54C417.42,724.3,425.12,726.84,432.25,723.93Z" transform="translate(-352.9 -698.65)"/><path class="cls-3" d="M412.9,721.37c-3.74,1-6.94,9-12.57,8.15.89.89,2.42,7.34,3.56,11.86a25.56,25.56,0,0,1-11,.94c1.12,1.12,6.19,2.93,11.79,2.19.26.87.45,1.38.54,1.32a11.25,11.25,0,0,0,2-1.85,14.82,14.82,0,0,0,1.88-.63c3.18-1.29,3.45-3.69,2.65-6C414.68,731.81,416.36,725.13,412.9,721.37Z" transform="translate(-352.9 -698.65)"/><ellipse class="cls-4" cx="45.04" cy="36.68" rx="12.7" ry="7.33"/><path class="cls-4" d="M386.81,750.82a5,5,0,0,0,1.32-3.26c0-4-5.68-7.33-12.69-7.33-5.69,0-10.51,2.16-12.12,5.13" transform="translate(-352.9 -698.65)"/><ellipse class="cls-4" cx="67.4" cy="17.26" rx="12.7" ry="7.33"/><path class="cls-4" d="M443.3,762.12c2.24.47,2.18.76,4.42,1.23s2.1,1.12,4.33,1.59,2.21.64,4.45,1.11,2.26.35,4.51.83,3.22,2.43,4.45.5c1.33-2.08-1.18-2-2.32-4.24s-1.47-2-2.61-4.21-.14-2.72-1.28-4.9-1.67-1.92-2.81-4.11-.76-2.39-1.91-4.58-1.39-2.06-2.54-4.25-1.08-2.22-2.23-4.41-1-2.25-2.17-4.44-1.24-2.14-2.39-4.33-1.1-2.22-2.24-4.41-1.56-2-2.7-4.17-.82-2.36-2-4.55-1.49-2-2.64-4.21-1.23-2.15-2.37-4.35" transform="translate(-352.9 -698.65)"/><path class="cls-4" d="M389.89,751c2.52.53,2.44.93,5,1.46s2.58.24,5.1.78,2.55.4,5.07.94,2.38,1.21,4.9,1.74,2.58.24,5.1.77,2.46.84,5,1.37,2.65,0,5.17.49,2.55.43,5.08,1" transform="translate(-352.9 -698.65)"/><path class="cls-4" d="M361.88,745.44l4.24,1.49c2.12.75,2.13.7,4.25,1.45" transform="translate(-352.9 -698.65)"/><path class="cls-4" d="M430.16,699.54c-42.25,0-76.51,19.78-76.51,44.17" transform="translate(-352.9 -698.65)"/><line class="cls-4" x1="87.28" y1="69.85" x2="112.67" y2="75.23"/><line class="cls-4" x1="30.82" y1="57.92" x2="83.14" y2="68.97"/><line class="cls-4" x1="0.75" y1="51.5" x2="24.92" y2="56.62"/><path class="cls-4" d="M372.19,748.86s6.45,1.67,6.45,7.71c0,6.86-2.36,9.35-2.36,14.72s3.3,6.34,4.9,6.34,4.9-1,4.9-6.34-2.36-7.86-2.36-14.72,5.58-5.08,5.58-5.08" transform="translate(-352.9 -698.65)"/><path class="cls-4" d="M430,759.65s6.12,1.29,6.12,5.88-1.58,6.25-1.58,9.84,2.21,4.24,3.27,4.24,3.28-.65,3.28-4.24-1.58-5.25-1.58-9.84,3.73-3.39,3.73-3.39" transform="translate(-352.9 -698.65)"/><path class="cls-4" d="M432.57,706.26c-39.05,0-70.7,17.06-70.7,38.11" transform="translate(-352.9 -698.65)"/><path class="cls-4" d="M353.65,743.71a4,4,0,0,1,4.42-2,4.41,4.41,0,0,1,3.8,3.46" transform="translate(-352.9 -698.65)"/><path class="cls-4" d="M430.16,699.54s1.93-.93,3.2,2a6,6,0,0,1,.33,4.52" transform="translate(-352.9 -698.65)"/><path class="cls-4" d="M399,744.4s-1.49,5.29-6.16,1.43" transform="translate(-352.9 -698.65)"/><path class="cls-4" d="M386.61,724.5s-2.06,3,1.49,3.55" transform="translate(-352.9 -698.65)"/><path class="cls-4" d="M375.85,730.34s3.55,2.48,1.12,4-3.92.89-3.92.89" transform="translate(-352.9 -698.65)"/><path class="cls-4" d="M444.85,745.18s-2.8,3,0,5,4.72,0,4.72,0" transform="translate(-352.9 -698.65)"/><path class="cls-4" d="M435,728.05s2.8-3.36,4.48,0,0,3.17,0,3.17" transform="translate(-352.9 -698.65)"/><path class="cls-4" d="M432.57,753.25s-2.83,1.52-.5,3.28" transform="translate(-352.9 -698.65)"/><path class="cls-4" d="M404.16,734.36s2.24,2.11,0,3.36-3,0-3,0" transform="translate(-352.9 -698.65)"/><path class="cls-4" d="M394.92,732.59s1.51-3.63,3,.12" transform="translate(-352.9 -698.65)"/><path class="cls-4" d="M390.16,737.72s2.7-.09,2.28,3.38" transform="translate(-352.9 -698.65)"/><path class="cls-4" d="M416.92,716.92s1.25,3.69,2.47,2.68" transform="translate(-352.9 -698.65)"/><path class="cls-4" d="M422.41,714.31s1.19-2.8,3.24-1.68" transform="translate(-352.9 -698.65)"/><ellipse class="cls-4" cx="73.46" cy="44.01" rx="12.7" ry="7.33"/><path class="cls-4" d="M423.46,747.24s4.84-1.38,2.41-2.76" transform="translate(-352.9 -698.65)"/><path class="cls-4" d="M431.26,741.93s-1.45-3.48.6-2.36" transform="translate(-352.9 -698.65)"/><path class="cls-4" d="M379.51,744.37c-.56.85,1.5,4.13,3.18,2.4" transform="translate(-352.9 -698.65)"/><path class="cls-4" d="M367.68,746.69c-.56.85,12.26,5.19,17.32,5.35" transform="translate(-352.9 -698.65)"/><path class="cls-4" d="M398.27,715.91s3.27-2.61,3.46,0" transform="translate(-352.9 -698.65)"/><path class="cls-4" d="M424.24,728.05s-2.18,2.79.75,2.84" transform="translate(-352.9 -698.65)"/><path class="cls-4" d="M449.57,763.49s3.4-8.24,10.82-6" transform="translate(-352.9 -698.65)"/><path class="cls-4" d="M456.79,762s2.89-1.2,2.8,1.47" transform="translate(-352.9 -698.65)"/><path class="cls-5" d="M410.8,714.62c-1.8,3.2.71,6.91.68,12.5,0,6.67-3.24,14.51-7,18.74.68-6.29-6-12.09-4.32-19.54S410.8,714.62,410.8,714.62Z" transform="translate(-352.9 -698.65)"/><path class="cls-4" d="M407.67,724.15s-.6,8.68-2.64,21" transform="translate(-352.9 -698.65)"/></g></g></svg>