<svg xmlns="http://www.w3.org/2000/svg" viewBox="0 0 48.07 186.02"><defs><style>.cls-1{isolation:isolate;}.cls-2{fill:#d5bd8c;}.cls-3{opacity:0.2;mix-blend-mode:multiply;}.cls-4{fill:#5f6060;}.cls-5{fill:none;stroke:#fff;stroke-linecap:round;stroke-linejoin:round;stroke-width:1.5px;}</style></defs><title>4</title><g class="cls-1"><g id="Layer_1" data-name="Layer 1"><path class="cls-2" d="M418.3,694V671.89h-.11a4.6,4.6,0,0,0,1.72-3.38V653c0-3.46-4.86-6.26-10.85-6.26s-10.85,2.8-10.85,6.26v15.51a4.6,4.6,0,0,0,1.72,3.38h-.11V694c0,10.82-14,11.72-14,26.88v97c0,7.43,10.42,13.45,23.28,13.45s23.28-6,23.28-13.45v-97C432.34,705.67,418.3,704.77,418.3,694Z" transform="translate(-385.03 -645.99)"/><g class="cls-3"><path class="cls-4" d="M418.3,694V671.89h-.11a4.6,4.6,0,0,0,1.72-3.38V654.39c-.1.13-.19.26-.3.39a7.62,7.62,0,0,1-1.19,1.55l-1.51,1.17a6.42,6.42,0,0,1-2,.81,7.39,7.39,0,0,1-4.88.82,5.15,5.15,0,0,1-.68,0A5.89,5.89,0,0,1,408,659v9.48a9.81,9.81,0,0,1-.57,3.38h0V694c0,10.82,4.61,11.72,4.61,26.88v97c0,6.77-2.85,12.35-6.55,13.29,1.16.1,2.35.16,3.56.16,12.86,0,23.28-6,23.28-13.45v-97C432.34,705.67,418.3,704.77,418.3,694Z" transform="translate(-385.03 -645.99)"/></g><path class="cls-5" d="M399.82,671.89V694c0,10.82-14,11.72-14,26.88v97c0,7.43,10.42,13.45,23.28,13.45s23.28-6,23.28-13.45v-97c0-15.16-14-16.06-14-26.88V671.89" transform="translate(-385.03 -645.99)"/><ellipse class="cls-5" cx="24.03" cy="7.02" rx="10.85" ry="6.27"/><ellipse class="cls-5" cx="24.03" cy="7.02" rx="6.54" ry="3.78"/><path class="cls-5" d="M398.21,653v15.51c0,3.46,4.86,6.27,10.85,6.27s10.85-2.81,10.85-6.27V653" transform="translate(-385.03 -645.99)"/><path class="cls-5" d="M432.34,796.14c0,7.43-10.42,13.45-23.28,13.45s-23.28-6-23.28-13.45" transform="translate(-385.03 -645.99)"/><path class="cls-5" d="M432.34,729.24c0,7.42-10.42,13.44-23.28,13.44s-23.28-6-23.28-13.44" transform="translate(-385.03 -645.99)"/><path class="cls-5" d="M426.42,748.89c-4.26,2.75-10.46,4.49-17.36,4.49-12.86,0-23.28-6-23.28-13.45" transform="translate(-385.03 -645.99)"/><path class="cls-5" d="M418.3,688.52c-1.91,1.78-5.33,3-9.24,3-3.75,0-7.05-1.1-9-2.77" transform="translate(-385.03 -645.99)"/><path class="cls-5" d="M418.39,803.23a37.8,37.8,0,0,1-9.33,1.13c-12.86,0-23.28-6-23.28-13.45" transform="translate(-385.03 -645.99)"/><line class="cls-5" x1="8.51" y1="160.18" x2="8.51" y2="176.31"/><path class="cls-5" d="M402.9,690.39v4.82c0,7.21-9.36,18.69-9.36,28.79v12.62" transform="translate(-385.03 -645.99)"/><line class="cls-5" x1="16.27" y1="162.83" x2="16.27" y2="170.08"/><path class="cls-5" d="M406,691.26v5.21c0,3.6-4.68,25.66-4.68,30.71v7.18" transform="translate(-385.03 -645.99)"/><line class="cls-5" x1="28.64" y1="4.36" x2="19.41" y2="9.69"/><line class="cls-5" x1="25.54" y1="3.34" x2="18" y2="7.7"/><line class="cls-5" x1="30.37" y1="6.09" x2="22.52" y2="10.62"/></g></g></svg>