<svg xmlns="http://www.w3.org/2000/svg" viewBox="0 0 40.52 46.11"><defs><style>.cls-1{isolation:isolate;}.cls-2{fill:#d5bd8c;}.cls-3{fill:#5f6060;opacity:0.2;mix-blend-mode:multiply;}.cls-4{fill:none;stroke:#fff;stroke-linecap:round;stroke-linejoin:round;stroke-width:1.5px;}</style></defs><title>5</title><g class="cls-1"><g id="Layer_1" data-name="Layer 1"><path class="cls-2" d="M428.57,748a9.19,9.19,0,0,1-4.64,8l-5.48,3.17a18.8,18.8,0,0,1-18.78,0L394.19,756c-3.09-1.78-4.52-5.42-4.52-8.54L390,730.8l1.6-4.77,2.12-2.89s9.46-4.33,9.87-4.63a47.07,47.07,0,0,1,4.85-1.44s6.14.8,6.32.86S425.89,724,425.89,724l2.44,4.63-.05,18.65" transform="translate(-388.8 -716.31)"/><path class="cls-3" d="M428.32,734.16a20.24,20.24,0,0,1-10.46,8.14c-2.1.68-5.19,1.29-6.6,2.19-.75.49-2.39.51-2.89,2.73-1,4.44-.33,9.84-.17,14.42a18.74,18.74,0,0,0,10.25-2.48l5.48-3.17a9.19,9.19,0,0,0,4.64-8l-.29-.64Z" transform="translate(-388.8 -716.31)"/><path class="cls-4" d="M428.57,748a9.19,9.19,0,0,1-4.64,8l-5.48,3.17a18.8,18.8,0,0,1-18.78,0L394.19,756a9.18,9.18,0,0,1-4.64-8" transform="translate(-388.8 -716.31)"/><path class="cls-4" d="M399.67,742l-5.48-3.16a9.28,9.28,0,0,1,0-16.08l5.48-3.16a18.75,18.75,0,0,1,18.78,0l5.48,3.16a9.28,9.28,0,0,1,0,16.08L418.45,742A18.8,18.8,0,0,1,399.67,742Z" transform="translate(-388.8 -716.31)"/><path class="cls-4" d="M419.26,729.54A3,3,0,0,1,418.1,732c-.73.75-1.05,2.06-2.22,2.59a15,15,0,0,1-3.37.88c-1.09.21-2.24,1.54-3.45,1.54s-2.19-2.25-3.28-2.45-2.33,0-3.32-.47c-1.17-.53-2.77-.33-3.49-1.08a5.08,5.08,0,0,1-1.12-3.49c0-1.13.93-1.88,1.82-2.81.73-.75,1.1-2.39,2.27-2.91,1-.45,2.52.41,3.74.18s2.16-.9,3.38-.9,2.25.84,3.35,1,2.88-1,3.87-.56c1.17.53,1.59,2.24,2.32,3C419.49,727.51,419.26,728.41,419.26,729.54Z" transform="translate(-388.8 -716.31)"/><line class="cls-4" x1="0.75" y1="14.47" x2="0.75" y2="31.65"/><path class="cls-4" d="M428.57,730.78" transform="translate(-388.8 -716.31)"/><path class="cls-4" d="M402.4,727.91s3.31-.68,2,1.14-1.25,1.74-.81,2.27" transform="translate(-388.8 -716.31)"/><path class="cls-4" d="M406.87,732.54s-1.92-1.6-2.6,0,.41,1.44.41,1.44" transform="translate(-388.8 -716.31)"/><path class="cls-4" d="M413.7,730.31s-.55,2.41-2.29,1.27-.69,2.25-.69,2.25" transform="translate(-388.8 -716.31)"/><path class="cls-4" d="M413.67,726.17s.15,2,1.67,1.14,1.9.48,1.9.48" transform="translate(-388.8 -716.31)"/><path class="cls-4" d="M407.21,723.23s1.69,1.17,1.12,1.57c-2,1.43-.26,4.88-.48,3.22" transform="translate(-388.8 -716.31)"/><path class="cls-4" d="M418.84,731.83s-.32-2.69-1.6-2-1.67,1.93-1.07,2.46" transform="translate(-388.8 -716.31)"/><path class="cls-4" d="M400,730.19s-.34-2.84-1.14-2.23-.87,2.23-.87,2.23" transform="translate(-388.8 -716.31)"/><line class="cls-4" x1="39.77" y1="31.65" x2="39.77" y2="14.47"/></g></g></svg>