<svg xmlns="http://www.w3.org/2000/svg" viewBox="0 0 84.71 91.05"><defs><style>.cls-1{isolation:isolate;}.cls-2{fill:#d5bd8c;}.cls-3{fill:#5f6060;opacity:0.2;mix-blend-mode:multiply;}.cls-4{fill:none;stroke:#fff;stroke-linecap:round;stroke-linejoin:round;stroke-width:1.5px;}</style></defs><title>7</title><g class="cls-1"><g id="Layer_1" data-name="Layer 1"><path class="cls-2" d="M369.74,711.46v9.46l-1.92,3.22,1.92,1.56v9.35l-1.68,2.71,1.68,2.29v12.39l54.77,31.62,26.08-48.18v-41l-52.53,10.72s-2.45-2.08-4.84-1.21a13.18,13.18,0,0,0-4.56,3.48Z" transform="translate(-366.8 -693.96)"/><path class="cls-3" d="M449.55,695.1a8.62,8.62,0,0,1-1.84,4c-2,2.53-2.95,6.51-4.5,9.36-2.17,4-4.5,7.85-6.58,11.87s-4.12,7.75-5.8,11.82c-.79,1.94-1.49,4-2.46,5.84-.76,1.45-2.08,2.69-2.77,4.12-1.5,3.12-.05,7.94-.84,11.45a34.6,34.6,0,0,0-1.22,5.19,38.12,38.12,0,0,0,.39,5.54,112.52,112.52,0,0,1,.47,12.18c-.07,2.33-.68,4.81-.57,7.19l.68.39,26.08-48.18v-41Z" transform="translate(-366.8 -693.96)"/><path class="cls-3" d="M399,706.56a6.41,6.41,0,0,1-6.58,5.7,6.81,6.81,0,0,1-3.47-.87,6.94,6.94,0,0,0,6.19,6,5.31,5.31,0,0,0,5.47-3.27C401.92,711.61,400.54,708.85,399,706.56Z" transform="translate(-366.8 -693.96)"/><path class="cls-3" d="M423.7,723.72a5.83,5.83,0,0,1-6,5.18,6.18,6.18,0,0,1-3.15-.8,6.31,6.31,0,0,0,5.62,5.48,4.86,4.86,0,0,0,5-3C426.33,728.31,425.08,725.8,423.7,723.72Z" transform="translate(-366.8 -693.96)"/><path class="cls-3" d="M370.41,725c-.42,2.73.48,3.19,1.25,4s21.76,11.5,22.88,12.9c1.81,2.65,23.51,15.35,26.36,15.62,2.29.22,3.75,1.18,2.37-.62C420.55,753.38,371.79,727.09,370.41,725Z" transform="translate(-366.8 -693.96)"/><path class="cls-3" d="M369.71,740.36c-.42,2.73,3.7,4.59,4.46,5.42s16.95,10.19,19.67,11.51c3.21.7,25.39,16.54,28.25,16.81.51,0,1,1.39,1.33,1.36,1.18-.11,1.29-2,.69-2.89C421.57,768.88,371.09,742.44,369.71,740.36Z" transform="translate(-366.8 -693.96)"/><path class="cls-3" d="M398.94,729.34a3.6,3.6,0,0,0,.37.41l.58.39a19.9,19.9,0,0,1,2.87,2l.23.23a6.45,6.45,0,0,1,1,.2,5,5,0,0,0,3.59-2.91c1.16-2.3-.09-4.81-1.47-6.89a5.83,5.83,0,0,1-6,5.18,6.18,6.18,0,0,1-3.15-.8,6.83,6.83,0,0,0,.18.81A5.57,5.57,0,0,1,398.94,729.34Z" transform="translate(-366.8 -693.96)"/><path class="cls-3" d="M418,708.72a5,5,0,0,1-5.14,4.45,5.31,5.31,0,0,1-2.71-.68,5.41,5.41,0,0,0,4.83,4.7,4.14,4.14,0,0,0,4.28-2.55C420.23,712.66,419.16,710.51,418,708.72Z" transform="translate(-366.8 -693.96)"/><path class="cls-3" d="M438.83,713c-.36,2.34-5.5,7-8.57,7-1.06,0-4.43-.07-5.17-.5a14,14,0,0,0,7.6,3.84c2,.19,3.1-.14,4-1.88C437.67,719.43,440,714.74,438.83,713Z" transform="translate(-366.8 -693.96)"/><path class="cls-3" d="M437.29,707.73a15,15,0,0,1-6.27,9.41c-.87.63-4.91,2.1-5.65,1.68,1.81,1.88,3.33.74,5.79,1,2,.19,2.6-.49,4-1.88C437.22,715.82,439.87,711.21,437.29,707.73Z" transform="translate(-366.8 -693.96)"/><path class="cls-3" d="M444.27,698.4a5,5,0,0,1-5.15,4.45,5.27,5.27,0,0,1-2.7-.69,5.41,5.41,0,0,0,4.83,4.71,4.18,4.18,0,0,0,4.28-2.56C446.53,702.34,445.45,700.19,444.27,698.4Z" transform="translate(-366.8 -693.96)"/><path class="cls-4" d="M369.76,752.42c.68.4.78.22,1.47.61s.45.8,1.13,1.2.89,0,1.57.43.57.6,1.25,1,.69.38,1.37.77.62.51,1.3.9.8.19,1.48.58.74.29,1.43.69.51.69,1.19,1.08.84.12,1.53.51l1.37.79c.69.39.63.49,1.31.89s.65.46,1.33.85.7.37,1.38.76.59.56,1.27,1,.78.22,1.47.62.69.38,1.37.78.63.49,1.31.89.7.37,1.39.77.79.2,1.47.59.56.62,1.24,1,.68.41,1.37.8.79.21,1.47.61.65.46,1.33.86.63.49,1.32.89.81.17,1.5.56.54.65,1.22,1,.71.35,1.4.74.64.47,1.33.87.88.06,1.56.45.66.45,1.34.85.49.74,1.17,1.13l1.37.8c.69.39.83.14,1.52.54s.75.27,1.44.67.66.45,1.34.85.61.53,1.3.93.63.49,1.31.89.66.46,1.35.86.75,1,1.52.77.29-.86.66-1.55.24-.76.61-1.44.74-.49,1.11-1.17.1-.84.47-1.52.24-.77.61-1.45.77-.47,1.15-1.16.17-.8.54-1.49.3-.72.67-1.41.57-.58.94-1.26.13-.82.51-1.51.63-.54,1-1.23,0-.87.41-1.56.42-.66.79-1.35.67-.53,1-1.21.1-.84.47-1.53.64-.54,1-1.23.16-.8.53-1.49l.74-1.38c.38-.68.41-.67.78-1.36s.23-.76.61-1.45.36-.69.74-1.38.5-.62.87-1.31.32-.72.69-1.41.42-.66.79-1.35.49-.63.86-1.32.39-.67.77-1.36.43-.66.8-1.34.15-.82.52-1.51.32-.72.69-1.4.6-.57,1-1.26.27-.75.64-1.44.52-.61.9-1.3.43-.66.8-1.35.11-.84.49-1.53.41-.67.79-1.36" transform="translate(-366.8 -693.96)"/><path class="cls-4" d="M369.84,740.2c1.83,1,1.92.89,3.74,1.94s1.72,1.24,3.54,2.29,1.74,1.21,3.56,2.27,1.67,1.32,3.49,2.37,1.82,1.08,3.64,2.13,2,.71,3.85,1.77,1.91.89,3.74,1.95,1.89.93,3.72,2,1.72,1.24,3.54,2.3,1.62,1.42,3.44,2.47,1.87,1,3.7,2,1.93.88,3.75,1.93,1.69,1.3,3.51,2.36,2,.75,3.83,1.81,1.5,2.47,3.53,1.88.87-1.68,1.87-3.55,1.17-1.78,2.17-3.66,1.35-1.68,2.36-3.55.94-1.91,1.94-3.78,1-1.88,2-3.75.91-1.93,1.91-3.8l2-3.74c1-1.87.78-2,1.78-3.87s.93-1.91,1.93-3.78.92-1.92,1.92-3.79,1.18-1.78,2.18-3.66,1-1.86,2-3.74,1.25-1.74,2.26-3.62" transform="translate(-366.8 -693.96)"/><path class="cls-4" d="M369.94,734.39c1.83,1.05,1.66,1.34,3.48,2.4s1.61,1.41,3.44,2.46,2.17.46,4,1.51l3.65,2.1c1.83,1,1.46,1.69,3.28,2.75s1.87,1,3.7,2,2.17.45,4,1.51,1.68,1.32,3.5,2.37,1.95.85,3.77,1.9,1.84,1,3.66,2.1S408,757,409.82,758s1.93.86,3.76,1.92,1.62,1.41,3.45,2.46,2.1.59,3.93,1.64,1.47,2.7,3.51,2.15,1.08-1.65,2.08-3.47,1.15-1.74,2.15-3.56.77-1.95,1.77-3.77,1.29-1.67,2.29-3.49.53-2.08,1.53-3.9,1.3-1.66,2.3-3.48,1.22-1.71,2.22-3.53l2-3.64,2-3.64c1-1.82.72-2,1.72-3.8s.88-1.89,1.88-3.71.84-1.92,1.85-3.75,1.22-1.7,2.23-3.52" transform="translate(-366.8 -693.96)"/><path class="cls-4" d="M369.93,724.73c1.83,1,1.57,1.5,3.39,2.55s1.87,1,3.69,2,1.74,1.19,3.57,2.25,2,.7,3.85,1.75,1.59,1.46,3.41,2.52,2,.73,3.84,1.78,1.84,1,3.67,2.08,1.62,1.4,3.45,2.45,1.92.88,3.75,1.94,1.89.95,3.71,2,1.63,1.4,3.46,2.45,2,.68,3.86,1.74,1.6,1.45,3.42,2.51,1.84,1,3.67,2.1,1.73,2.11,3.76,1.51.88-1.72,1.88-3.61,1.55-1.59,2.56-3.48.81-2,1.81-3.89.58-2.11,1.58-4,1.26-1.76,2.26-3.65,1-1.88,2-3.77,1.06-1.86,2.06-3.75.89-2,1.89-3.85,1.34-1.71,2.35-3.6.72-2,1.72-3.93,1.3-1.74,2.3-3.63.89-2,1.9-3.85.94-1.93,1.94-3.83" transform="translate(-366.8 -693.96)"/><path class="cls-4" d="M369.77,720.77c1.83,1.05,1.75,1.18,3.58,2.24s1.69,1.28,3.51,2.33,2,.79,3.8,1.85,1.65,1.34,3.48,2.4,1.87,1,3.7,2,1.85,1,3.68,2,1.88,1,3.71,2l3.65,2.11c1.83,1.05,1.82,1.06,3.65,2.12s1.8,1.09,3.63,2.14,1.76,1.17,3.58,2.22,2,.79,3.81,1.84,1.88,1,3.71,2,1.85,1,3.68,2.08,1.61,3.11,3.65,2.54,1.23-2,2.24-3.81.54-2.1,1.54-3.95,1.45-1.61,2.45-3.46.38-2.2,1.38-4,1-1.83,2.05-3.68,1.52-1.57,2.52-3.42.76-2,1.76-3.85,1.35-1.66,2.35-3.52.4-2.17,1.41-4,1.46-1.6,2.46-3.45.59-2.08,1.59-3.93,1.29-1.71,2.3-3.56.73-2,1.74-3.86" transform="translate(-366.8 -693.96)"/><path class="cls-4" d="M437.23,697.69c-.78.16-.8.08-1.58.24s-.77.21-1.55.37-.79.12-1.57.28-.81.06-1.59.22-.77.22-1.55.38-.77.2-1.55.36-.77.23-1.55.39-.81.06-1.59.22-.77.21-1.55.37-.78.2-1.56.36-.79.12-1.58.28-.77.18-1.56.34-.79.13-1.57.29-.8.06-1.59.22-.77.23-1.55.39-.78.19-1.56.35-.77.19-1.55.35-.78.19-1.57.35-.8.08-1.58.24l-1.57.33c-.78.16-.79.1-1.58.26s-.75.31-1.53.47l-1.57.33c-.79.16-.84-.07-1.62.09s-.77.27-1.56.43" transform="translate(-366.8 -693.96)"/><path class="cls-4" d="M401.48,729.74c.68.39.7.35,1.38.74s.7.35,1.38.74.65.43,1.33.82.56.59,1.24,1,.74.28,1.41.67.67.42,1.35.81.74.27,1.42.67.6.51,1.28.9l1.35.77c.68.39.73.31,1.41.7s.61.5,1.29.89.7.35,1.38.74l1.37.77c.68.39.75.26,1.43.65s.55.61,1.23,1l1.37.77c.68.4.65.9,1.4.69s.35-.68.72-1.36.53-.61.9-1.29.17-.79.54-1.48.55-.59.92-1.28.32-.71.69-1.4.3-.73.67-1.42.47-.63.84-1.32.41-.67.78-1.36.17-.79.54-1.48.47-.63.84-1.32.48-.63.85-1.32.24-.76.61-1.45.42-.66.8-1.34.3-.73.67-1.42.43-.65.8-1.34.28-.74.65-1.43.49-.62.86-1.31.45-.65.82-1.34.32-.72.69-1.41.41-.67.78-1.36.26-.74.64-1.43.3-.73.67-1.42.51-.62.88-1.31.28-.74.65-1.43.45-.64.83-1.33.24-.76.61-1.45.54-.6.91-1.28.39-.68.76-1.37.4-.68.77-1.37l.76-1.37c.37-.7.2-.78.58-1.48l.75-1.37c.37-.69.35-.71.72-1.4s.58-.58.95-1.27,1.05-.77.56-1.39-.69.2-1.48.36l-1.57.31c-.79.16-.82,0-1.6.19s-.8.13-1.59.29-.76.31-1.54.48" transform="translate(-366.8 -693.96)"/><path class="cls-4" d="M389.53,707.45c-.76.15-.76.12-1.52.27s-.75.21-1.51.36-.79,0-1.55.21l-1.51.31c-.76.15-.75.2-1.51.36l-1.52.3c-.76.16-.77.14-1.53.29s-.74.25-1.5.41-.78.08-1.54.24-.76.13-1.52.29-.77.12-1.54.27-.73.29-1.5.44-1.48-.53-1.61.24.75.39,1.43.78.66.42,1.33.81.72.31,1.39.7l1.35.79,1.35.78c.68.39.63.47,1.31.86s.65.42,1.33.81.74.27,1.42.66.63.46,1.31.85.65.43,1.33.82.73.29,1.4.68.67.4,1.34.79.66.42,1.34.81.69.36,1.37.75.61.49,1.29.88.76.26,1.43.65.6.53,1.28.92.7.34,1.38.73.65.44,1.33.83.72.32,1.4.71" transform="translate(-366.8 -693.96)"/><path class="cls-4" d="M369.71,739.86c0,.79,0,.79,0,1.57s0,.79,0,1.57,0,.79,0,1.57,0,.79,0,1.58,0,.78,0,1.57,0,.78,0,1.57,0,.79,0,1.58,0,.78,0,1.57" transform="translate(-366.8 -693.96)"/><path class="cls-4" d="M369.72,725.28v1.53c0,.76,0,.76,0,1.53s0,.76,0,1.53,0,.76,0,1.53,0,.77,0,1.53,0,.77,0,1.54" transform="translate(-366.8 -693.96)"/><path class="cls-4" d="M369.74,711.46v1.68c0,.84,0,.84,0,1.68v1.68c0,.85,0,.85,0,1.69s0,.85,0,1.69" transform="translate(-366.8 -693.96)"/><path class="cls-4" d="M450.69,694.89c0,.78,0,.78,0,1.57s-.07.79-.07,1.57-.05.79-.05,1.58,0,.78,0,1.57-.08.79-.08,1.58.09.78.09,1.57v1.57c0,.79,0,.79,0,1.58s-.09.79-.09,1.58v1.57c0,.79.05.79.05,1.58s.09.78.09,1.57-.11.79-.11,1.58-.07.79-.07,1.58,0,.78,0,1.57,0,.79,0,1.58,0,.79,0,1.57.12.79.12,1.58.05.79.05,1.58-.14.79-.14,1.57,0,.79,0,1.58,0,.79,0,1.58.06.79.06,1.58.14.79.14,1.58,0,.79,0,1.59-.1.79-.1,1.58" transform="translate(-366.8 -693.96)"/><path class="cls-4" d="M424.51,743.07c0,.78,0,.78,0,1.57s0,.78,0,1.57,0,.79,0,1.58v1.57" transform="translate(-366.8 -693.96)"/><path class="cls-4" d="M424.53,774.7c0,.77,0,.77,0,1.55v1.56c0,.78,0,.78,0,1.56s0,.78,0,1.56,0,.78,0,1.57,0,.78,0,1.56" transform="translate(-366.8 -693.96)"/><path class="cls-4" d="M370.11,739.86a1.5,1.5,0,0,0-.9,0c-.43.17-1.14.3-1-.25a.85.85,0,0,0-.21-1,1,1,0,0,1,.08-1.38,4,4,0,0,0,1-1.57c.16-.48.74-.08,1,.07" transform="translate(-366.8 -693.96)"/><path class="cls-4" d="M370.11,721s-.89-1-1.5-.39.77,1.84,0,2.3-1.43,1.46-.83,1.92,1,1.23,1.52.61.92-1.16,1.77-.67" transform="translate(-366.8 -693.96)"/><path class="cls-4" d="M373.45,747.38c.31.26.26.33.57.59s.49,0,.8.3" transform="translate(-366.8 -693.96)"/><path class="cls-4" d="M379.22,749.66c-.31.25-.71-.24-1,0s-.19.38-.5.63,0,.6-.33.85-.41.12-.72.37" transform="translate(-366.8 -693.96)"/><path class="cls-4" d="M378.67,754.27" transform="translate(-366.8 -693.96)"/><path class="cls-4" d="M388.2,753.36c-.23.31-.43.16-.66.47s.09.55-.14.85" transform="translate(-366.8 -693.96)"/><path class="cls-4" d="M383.31,750.88c.07.4.4.33.48.73s-.32.47-.24.87" transform="translate(-366.8 -693.96)"/><path class="cls-4" d="M387.49,760c0,.42.46.42.46.84s-.5.42-.5.83" transform="translate(-366.8 -693.96)"/><path class="cls-4" d="M383.15,757.25c-.25-.24-.27-.22-.53-.45s-.56.1-.81-.13-.11-.4-.37-.63" transform="translate(-366.8 -693.96)"/><path class="cls-4" d="M392.92,756.28c.39-.23.41-.19.79-.42s.64.19,1,0" transform="translate(-366.8 -693.96)"/><path class="cls-4" d="M397.49,759.93c-.08.42,0,.43-.08.85s-.25.39-.33.81" transform="translate(-366.8 -693.96)"/><path class="cls-4" d="M390.18,757.88c-.38,0-.38-.18-.77-.18s-.38-.14-.76-.14" transform="translate(-366.8 -693.96)"/><path class="cls-4" d="M392.21,761.79c.17.33-.06.45.11.78s.26.27.43.6.49.16.66.49.2.31.37.64" transform="translate(-366.8 -693.96)"/><path class="cls-4" d="M399.41,766.28c-.3.22-.18.39-.48.62s-.48,0-.79.22" transform="translate(-366.8 -693.96)"/><path class="cls-4" d="M401.24,761.58c.15,0,.15,0,.3,0" transform="translate(-366.8 -693.96)"/><path class="cls-4" d="M407.64,765.36l-.62.22c-.3.12-.28.19-.58.3" transform="translate(-366.8 -693.96)"/><path class="cls-4" d="M404.06,770.37c-.18-.36,0-.46-.16-.82s.21-.55,0-.91-.59-.15-.77-.51" transform="translate(-366.8 -693.96)"/><path class="cls-4" d="M404.74,762.92c-.25.29-.2.34-.45.63s-.21.32-.46.6" transform="translate(-366.8 -693.96)"/><path class="cls-4" d="M411.93,767.16c0-.23-.1-.23-.1-.46" transform="translate(-366.8 -693.96)"/><path class="cls-4" d="M415.57,776.52c-.38.15-.34.27-.72.43s-.52-.18-.9,0" transform="translate(-366.8 -693.96)"/><path class="cls-4" d="M411.92,771.74c.23.3.75-.09,1,.22s-.12.57.11.88.11.39.34.7" transform="translate(-366.8 -693.96)"/><path class="cls-4" d="M419.24,770.41c.23-.19.31-.1.54-.29s.16-.28.39-.47" transform="translate(-366.8 -693.96)"/><path class="cls-4" d="M422.68,775.92c-.35.12-.28.31-.63.43s-.26.35-.61.47" transform="translate(-366.8 -693.96)"/><path class="cls-4" d="M419.55,778.85c.23.38.22.39.45.77s.53.21.76.59" transform="translate(-366.8 -693.96)"/><path class="cls-4" d="M429.8,773.28c-.27-.15-.33,0-.6-.19l-.54-.31c-.26-.15-.17-.31-.44-.47" transform="translate(-366.8 -693.96)"/><path class="cls-4" d="M428.3,768.61c.4-.07.42,0,.83,0l.8-.15" transform="translate(-366.8 -693.96)"/><path class="cls-4" d="M430.6,765c0-.34.65-.3.67-.64s-.12-.36-.1-.71-.14-.35-.12-.7" transform="translate(-366.8 -693.96)"/><path class="cls-4" d="M436.06,759.49c-.32.17-.41,0-.73.18s-.43,0-.74.14" transform="translate(-366.8 -693.96)"/><path class="cls-4" d="M433.39,763.13c.3.15.32.11.62.26s.45-.18.75,0" transform="translate(-366.8 -693.96)"/><path class="cls-4" d="M435.94,754.55c.23,0,.23.13.46.13" transform="translate(-366.8 -693.96)"/><path class="cls-4" d="M439.93,752.62c-.46,0-.46-.23-.92-.23" transform="translate(-366.8 -693.96)"/><path class="cls-4" d="M439.33,746.15c0,.31-.13.31-.13.62s0,.31,0,.62" transform="translate(-366.8 -693.96)"/><path class="cls-4" d="M444.07,748.06c-.46,0-.46-.21-.91-.21" transform="translate(-366.8 -693.96)"/><path class="cls-4" d="M446,739.18c-.23-.38-.2-.41-.43-.79" transform="translate(-366.8 -693.96)"/><path class="cls-4" d="M442.17,744.11c.31,0,.31-.08.62-.11s.33.13.64.1.29-.22.6-.26" transform="translate(-366.8 -693.96)"/><path class="cls-4" d="M443.27,740c-.14-.38-.4-.29-.54-.67l-.28-.76c-.14-.38.39-.57.25-.95" transform="translate(-366.8 -693.96)"/><path class="cls-4" d="M447.3,734.41c.31,0,.31,0,.62,0" transform="translate(-366.8 -693.96)"/><path class="cls-4" d="M449.94,727.11c.21.28-.07.49.14.76s.41.12.62.4" transform="translate(-366.8 -693.96)"/><path class="cls-4" d="M449.62,734.52c-.16.49-.34.43-.5.93" transform="translate(-366.8 -693.96)"/><path class="cls-4" d="M374.2,742.69c-.3.12-.24.26-.54.39s-.5-.37-.8-.24-.33,0-.63.17-.51-.38-.81-.26-.16.46-.46.59" transform="translate(-366.8 -693.96)"/><path class="cls-4" d="M371.32,750.26c-.12-.31.11-.39,0-.7s-.86,0-1-.32l-.24-.61c-.12-.3-.06-.33-.18-.64" transform="translate(-366.8 -693.96)"/><path class="cls-4" d="M378.92,732.13c.3.26.21.37.52.63s.86-.39,1.17-.13" transform="translate(-366.8 -693.96)"/><path class="cls-4" d="M377.65,735.76c-.31.25.13.79-.18,1s-.57-.07-.87.18" transform="translate(-366.8 -693.96)"/><path class="cls-4" d="M373.49,734.32c.16.25.54,0,.69.27s-.31.53-.15.78" transform="translate(-366.8 -693.96)"/><path class="cls-4" d="M390.79,738.68c-.23.31-.13.39-.36.7s-.54.07-.77.38" transform="translate(-366.8 -693.96)"/><path class="cls-4" d="M387.69,734.91c.08.4-1.14.64-1.07,1s.76.27.84.66" transform="translate(-366.8 -693.96)"/><path class="cls-4" d="M388.08,742.23c0,.42-1.16.42-1.16.84s-.25.42-.25.84" transform="translate(-366.8 -693.96)"/><path class="cls-4" d="M383.08,740.39c-.26-.24.55-1.12.29-1.36s-.2-.29-.46-.52-.6.15-.86-.08" transform="translate(-366.8 -693.96)"/><path class="cls-4" d="M398.17,743c-.08.42.19.47.12.88s.87.6.8,1" transform="translate(-366.8 -693.96)"/><path class="cls-4" d="M393.57,743.39c.17.33-.6.74-.43,1.06s0,.42.17.75.47.17.65.5,1.73-.5,1.9-.18" transform="translate(-366.8 -693.96)"/><path class="cls-4" d="M399.73,749.36c-.3.23-.26.29-.57.52s-.84-.5-1.14-.27" transform="translate(-366.8 -693.96)"/><path class="cls-4" d="M403.16,745.71c.16,0,.16-.08.31-.08" transform="translate(-366.8 -693.96)"/><path class="cls-4" d="M412.27,749.82c-.31.12,0,.94-.31,1.06s-.51-.43-.82-.31" transform="translate(-366.8 -693.96)"/><path class="cls-4" d="M408.17,754c-.18-.36-1.46.29-1.64-.07s.19-.55,0-.91-.74-.07-.92-.43" transform="translate(-366.8 -693.96)"/><path class="cls-4" d="M403.88,748.16c-.25.29.46.9.21,1.19s-.67-.08-.92.21" transform="translate(-366.8 -693.96)"/><path class="cls-4" d="M409.92,754.34c0-.23-.23-.23-.23-.45" transform="translate(-366.8 -693.96)"/><path class="cls-4" d="M411.82,757.16c-.11.38.82.66.71,1s-1.41,0-1.52.37" transform="translate(-366.8 -693.96)"/><path class="cls-4" d="M419.19,762.27c-.29-.15-.55.33-.83.18s.89-2.37.61-2.53-1.45,2-1.74,1.86.3-1.25,0-1.41" transform="translate(-366.8 -693.96)"/><path class="cls-4" d="M415.71,755.41c.23.31.48.12.71.43s-1,1.23-.78,1.54.56.06.79.37" transform="translate(-366.8 -693.96)"/><path class="cls-4" d="M417.09,753.65c.27,0,.29.16.56.13s.24-.28.51-.31" transform="translate(-366.8 -693.96)"/><path class="cls-4" d="M425.87,760.56c-.34.12-.39,0-.73.1s-.25.4-.6.51" transform="translate(-366.8 -693.96)"/><path class="cls-4" d="M421.19,763.86c.23.39.88,0,1.11.38s-.18.63.05,1" transform="translate(-366.8 -693.96)"/><path class="cls-4" d="M428.13,753c-.27-.16-.75.7-1,.54s0-.61-.28-.76-.32,0-.59-.21" transform="translate(-366.8 -693.96)"/><path class="cls-4" d="M430.21,749.75c.4-.07.58.86,1,.79s.29-.64.69-.71" transform="translate(-366.8 -693.96)"/><path class="cls-4" d="M437.44,741c-.31.18-.24.3-.56.48s-.21.36-.53.54" transform="translate(-366.8 -693.96)"/><path class="cls-4" d="M433.13,743.17c.3.14,0,.84.26,1s.12.52.41.66" transform="translate(-366.8 -693.96)"/><path class="cls-4" d="M438.22,737.82c-.46,0-.46.14-.92.14" transform="translate(-366.8 -693.96)"/><path class="cls-4" d="M440.92,734.29c-.45,0-.45-.29-.91-.29" transform="translate(-366.8 -693.96)"/><path class="cls-4" d="M446.05,723.14c-.23-.38-.38-.29-.61-.68" transform="translate(-366.8 -693.96)"/><path class="cls-4" d="M443.6,724.17c.17.27-.23.53-.06.79s.67-.05.84.22" transform="translate(-366.8 -693.96)"/><path class="cls-4" d="M442.07,731.17c-.14-.38-.66-.18-.8-.56s1.11-.85,1-1.23-1-.06-1.15-.44" transform="translate(-366.8 -693.96)"/><path class="cls-4" d="M448.76,712.9c.29-.12.27-.18.56-.3s.66.76,1,.64.17-.4.46-.53" transform="translate(-366.8 -693.96)"/><path class="cls-4" d="M449.33,718.42c-.15.5-.15.49-.31,1" transform="translate(-366.8 -693.96)"/><path class="cls-4" d="M374.71,731.36c-.34,0-.33-.18-.67-.21s-.3-.45-.65-.48-.19-1.61-.54-1.64-.33-.14-.67-.17" transform="translate(-366.8 -693.96)"/><path class="cls-4" d="M372.81,727.23c-.12-.31-.93,0-1.05-.29s0-.37-.08-.68.51-.55.39-.85-1,0-1.12-.27" transform="translate(-366.8 -693.96)"/><circle class="cls-4" cx="27.66" cy="15.53" r="5.3"/><ellipse class="cls-4" cx="392.43" cy="709.17" rx="1.04" ry="1.3" transform="translate(-710.49 -323.96) rotate(-36.3)"/><circle class="cls-4" cx="52.32" cy="32.22" r="5.13"/><ellipse class="cls-4" cx="420.34" cy="724.23" rx="1.01" ry="1.26" transform="translate(-776.98 137.16) rotate(-67.2)"/><circle class="cls-4" cx="47.18" cy="16.73" r="4.23"/><ellipse class="cls-4" cx="416" cy="711.55" rx="1.04" ry="0.83" transform="translate(-775 25.15) rotate(-60.21)"/><circle class="cls-4" cx="34.67" cy="30.99" r="4.97"/><ellipse class="cls-4" cx="400.43" cy="722.59" rx="1.22" ry="0.97" transform="translate(-561.03 -544.84) rotate(-17.05)"/><circle class="cls-4" cx="73.61" cy="6.42" r="4.24"/><ellipse class="cls-4" cx="439.41" cy="701.97" rx="0.83" ry="1.04" transform="translate(-744.78 141.11) rotate(-67.2)"/><ellipse class="cls-4" cx="428.59" cy="705.21" rx="1.43" ry="0.81" transform="translate(-394.87 -676.12) rotate(-2.31)"/><path class="cls-4" d="M422.7,720.24s5.24-2,9.74,0" transform="translate(-366.8 -693.96)"/><polygon class="cls-4" points="58.77 11.15 55.91 13.46 59.87 13.46 60.77 15.55 62.48 13.35 65.64 15.55 64.83 12.4 68.51 9.75 63.3 9.75 61.56 8.58 60.77 9.75 57.12 9.75 58.77 11.15"/><path class="cls-4" d="M425,704.63s-4.66.78-4.66,6.85c0,4.46,5.23,7.86,5.23,7.86" transform="translate(-366.8 -693.96)"/><path class="cls-4" d="M434,704.63a7,7,0,0,1,4.46,6.85c0,4.46-5.23,7.86-5.23,7.86" transform="translate(-366.8 -693.96)"/><line class="cls-4" x1="55.91" y1="15.55" x2="56.16" y2="16.47"/><line class="cls-4" x1="55.91" y1="19.24" x2="56.71" y2="20.2"/><line class="cls-4" x1="59.18" y1="17.65" x2="58.77" y2="19.24"/><line class="cls-4" x1="60.77" y1="22.1" x2="60.77" y2="22.91"/><line class="cls-4" x1="62.21" y1="18.03" x2="62.21" y2="19.24"/><line class="cls-4" x1="66.05" y1="17.65" x2="66.46" y2="19.24"/><line class="cls-4" x1="65.64" y1="22.1" x2="64.78" y2="22.91"/><line class="cls-4" x1="63.96" y1="19.72" x2="63.72" y2="21.02"/><line class="cls-4" x1="66.8" y1="13.85" x2="67.88" y2="14.83"/><line class="cls-4" x1="69.62" y1="18.03" x2="69.62" y2="19.72"/><line class="cls-4" x1="63.29" y1="14.83" x2="63.36" y2="16.01"/></g></g></svg>