<svg xmlns="http://www.w3.org/2000/svg" viewBox="0 0 46.11 40.52"><defs><style>.cls-1{isolation:isolate;}.cls-2{fill:#d5bd8c;}.cls-3{fill:#5f6060;opacity:0.2;mix-blend-mode:multiply;}.cls-4{fill:none;stroke:#fff;stroke-linecap:round;stroke-linejoin:round;stroke-width:1.5px;}</style></defs><title>Ресурс 2</title><g class="cls-1"><g id="Слой_2" data-name="Слой 2"><g id="Слой_1-2" data-name="Слой 1"><path class="cls-2" d="M14.47,39.77a9.19,9.19,0,0,1-8-4.64L3.27,29.65a18.75,18.75,0,0,1,0-18.78L6.43,5.39C8.21,2.3,12.78.73,15.9.72l15.72.44,4.77,1.59,2.9,2.12s4.32,9.46,4.63,9.87a49.39,49.39,0,0,1,1.43,4.85s-.8,6.14-.86,6.32S38.38,37.1,38.38,37.1l-4.63,2.43L15.1,39.48"/><path class="cls-3" d="M43.92,14.74c-.31-.41-4.63-9.87-4.63-9.87l-2.9-2.12L31.62,1.16l-2.51-.07a5.15,5.15,0,0,1-.94.55C23,3.91,20.11,12.58,19.45,17.79,18.83,22.72,20.6,28.35,19,33c-1.07,3.08-4.66,4.5-10.64,4.5.48.08,5.65,2.24,6.14,2.24l.63-.29,18.65.05,4.63-2.43s6-11,6.11-11.19.86-6.32.86-6.32A49.39,49.39,0,0,0,43.92,14.74Z"/><path class="cls-4" d="M14.47,39.77a9.19,9.19,0,0,1-8-4.64L3.27,29.65a18.75,18.75,0,0,1,0-18.78L6.43,5.39a9.18,9.18,0,0,1,8-4.64"/><path class="cls-4" d="M20.45,10.87l3.16-5.48a9.27,9.27,0,0,1,16.07,0l3.17,5.48a18.8,18.8,0,0,1,0,18.78l-3.17,5.48a9.27,9.27,0,0,1-16.07,0l-3.16-5.48A18.75,18.75,0,0,1,20.45,10.87Z"/><path class="cls-4" d="M32.88,31a3.67,3.67,0,0,1-2.69-1.44,8.12,8.12,0,0,1-2-2.62,14.49,14.49,0,0,1-.92-3.26c-.21-1.09-1.15-2.17-1.15-3.39s.76-2.33,1-3.43-.07-2.56.37-3.55a10.51,10.51,0,0,1,1.91-3.14c.92-.89,2.38-.36,3.51-.36s1.47.63,2.4,1.52c.75.73,2.49.81,3,2a15.35,15.35,0,0,1,1.16,3.41,19.13,19.13,0,0,1,.73,3.57,19.47,19.47,0,0,1-.59,3.6c-.23,1.22-2.17,1.79-2.62,2.78-.53,1.18.15,3-.6,3.71C35.44,31.24,34,31,32.88,31Z"/><line class="cls-4" x1="31.65" y1="0.75" x2="14.46" y2="0.75"/><path class="cls-4" d="M38,14.47s.69,3.31-1.13,2-1.75-1.24-2.28-.81"/><path class="cls-4" d="M29.89,18.07s1.59-1.91,0-2.6-1.44.41-1.44.41"/><path class="cls-4" d="M32.4,20.13s-2,.15-1.13,1.66-.49,1.9-.49,1.9"/><path class="cls-4" d="M38.87,21.46s-.7,1.47-1.31,1.12-3-2.39-1.36-2.62"/><path class="cls-4" d="M30.59,30s2.7-.31,2-1.6-1.93-1.67-2.46-1.06"/><path class="cls-4" d="M32.24,11.23s2.83-.34,2.23-1.14a3.5,3.5,0,0,0-2.23-.87"/><line class="cls-4" x1="14.47" y1="39.77" x2="31.65" y2="39.77"/></g></g></g></svg>