<svg xmlns="http://www.w3.org/2000/svg" viewBox="0 0 76.38 76.1"><defs><style>.cls-1{isolation:isolate;}.cls-2{fill:#d5bd8c;}.cls-3{fill:#5f6060;opacity:0.2;mix-blend-mode:multiply;}.cls-4{fill:none;stroke-width:1.5px;}.cls-4,.cls-5{stroke:#fff;stroke-linecap:round;stroke-linejoin:round;}.cls-5{fill:#fff;stroke-width:0.5px;}</style></defs><title>1</title><g class="cls-1"><g id="Layer_1" data-name="Layer 1"><circle class="cls-2" cx="38.19" cy="38.12" r="37.44"/><path class="cls-3" d="M431.74,710.3a37.43,37.43,0,0,1-52.53,52.53,37.43,37.43,0,1,0,52.53-52.53Z" transform="translate(-370.54 -701.71)"/><path class="cls-4" d="M443.76,751.69a1.14,1.14,0,0,1,.8-1.08,37.3,37.3,0,0,0-.38-22.86,1.14,1.14,0,0,1-.81-1.08,1.15,1.15,0,0,1,.19-.6A37.45,37.45,0,0,0,424,705.72a1.06,1.06,0,0,1-.5.13,1.13,1.13,0,0,1-1.08-.79,37.6,37.6,0,0,0-30.17,1.18,1.14,1.14,0,0,1-1.13,1.06,1.06,1.06,0,0,1-.56-.17,37.41,37.41,0,0,0-17.55,21.32,1.11,1.11,0,0,1,.54.94,1.14,1.14,0,0,1-1.14,1.15,37.39,37.39,0,0,0-1.16,9.22,37,37,0,0,0,4.84,18.32,1.16,1.16,0,0,1,1.09,1.14,1.1,1.1,0,0,1-.12.48,37.46,37.46,0,0,0,24.35,16.65,1.12,1.12,0,0,1,1.81.31,38,38,0,0,0,5.47.4A37.38,37.38,0,0,0,429.22,771a1.13,1.13,0,0,1,1.13-1.09,1.28,1.28,0,0,1,.34.07A37.31,37.31,0,0,0,444,752.33,1.17,1.17,0,0,1,443.76,751.69Z" transform="translate(-370.54 -701.71)"/><path class="cls-5" d="M443.76,751.69a.78.78,0,0,1,0-.22,10.61,10.61,0,0,1-4.68-1c-2.72-1.81-4.37-4.77-5.65-7.79.78-.66,1.54-1.33,2.25-2A36.59,36.59,0,0,0,444.27,728l-.09-.29a1.17,1.17,0,0,1-.55-.37A38.66,38.66,0,0,1,433,741.62l-.86-2.19c-2.88-8.31-2.61-16.71-3.45-23.84a26.17,26.17,0,0,0-4.36-9.72l-.31-.15a1.06,1.06,0,0,1-.5.13l-.14,0a22.1,22.1,0,0,1,4.45,13.93c.32,8.3,1.22,16.37,4.18,22.67-.52.4-1,.79-1.56,1.16-1.67,1.13-3.37,2.18-5.07,3.2a128.24,128.24,0,0,0-15.73-25c-5.87-7.39-12.05-12.76-17.29-15.54l-.09,0a1.19,1.19,0,0,1-.16.47c8.45,4.74,14.73,13.28,20.11,20.47a138,138,0,0,1,12,20.27q-4,2.37-8.06,4.33c-2.2-4-6-6.84-9.55-8.89a64.52,64.52,0,0,0-14.44-6.12,82.11,82.11,0,0,1-18.67-7.19,1.16,1.16,0,0,1-.26.56c7.62,4.35,16.08,7.08,23.74,9.6,7.23,2.65,14.52,7,17.94,12.65a112.86,112.86,0,0,1-15.89,6.16,42.86,42.86,0,0,1-21.9.92.92.92,0,0,1-.09.23l.27.4c9.23,2.31,19.31,1.09,27.69-2.14,3.63-1.4,7.17-2.86,10.56-4.43a12.41,12.41,0,0,1,1.14,8.13c-1.65,8.52-8.62,12.79-13.5,15h0c.37.05.74.08,1.11.12a27.9,27.9,0,0,0,6.56-3.89c5.05-3.83,8.3-10.48,6.89-16.73a14.48,14.48,0,0,0-1-3.19c2.82-1.33,5.52-2.73,8.06-4.23a69.28,69.28,0,0,1,3.4,9.19,42.7,42.7,0,0,1,2.05,12h0a1.28,1.28,0,0,1,.34.07l.44-.34A49.86,49.86,0,0,0,427.62,752c-.52-1.33-1.07-2.62-1.64-3.89a61.71,61.71,0,0,0,6.54-4.59s.05.11.08.16c1.55,3.17,3.39,6.23,6.21,7.63a11.31,11.31,0,0,0,5.05.82A1,1,0,0,1,443.76,751.69Z" transform="translate(-370.54 -701.71)"/><path class="cls-5" d="M418.91,750.4c-.89.46-1.79.94-2.69,1.38-2.2-4-6-6.84-9.55-8.89a64.52,64.52,0,0,0-14.44-6.12,82.11,82.11,0,0,1-18.67-7.19,1.16,1.16,0,0,1-.26.56c7.62,4.35,16.08,7.08,23.74,9.6,7.23,2.65,14.52,7,17.94,12.65a112.86,112.86,0,0,1-15.89,6.16,42.86,42.86,0,0,1-21.9.92.92.92,0,0,1-.09.23l.27.4c9.23,2.31,19.31,1.09,27.69-2.14,3.63-1.4,7.17-2.86,10.56-4.43a12.41,12.41,0,0,1,1.14,8.13c-1.65,8.52-8.62,12.79-13.5,15h0c.37.05.74.08,1.11.12a27.9,27.9,0,0,0,6.56-3.89c5.05-3.83,8.3-10.48,6.89-16.73a14.48,14.48,0,0,0-1-3.19c.94-.44,1.85-.89,2.75-1.34Z" transform="translate(-370.54 -701.71)"/></g></g></svg>