<svg xmlns="http://www.w3.org/2000/svg" viewBox="0 0 74.88 76.1"><defs><style>.cls-1{isolation:isolate;}.cls-2{fill:#d5bd8c;}.cls-3{fill:#5f6060;opacity:0.2;mix-blend-mode:multiply;}.cls-4{fill:none;stroke:#fff;stroke-linecap:round;stroke-linejoin:round;stroke-width:1.5px;}</style></defs><title>2</title><g class="cls-1"><g id="Layer_1" data-name="Layer 1"><circle class="cls-2" cx="37.44" cy="38.06" r="37.44"/><path class="cls-3" d="M432.21,709.82a37.43,37.43,0,0,1-52.6,52.6,37.43,37.43,0,1,0,52.6-52.6Z" transform="translate(-371.46 -701.05)"/><path class="cls-4" d="M440.39,719.29c-5.6-10.36-9.68-10.36-9.68-10.36s1.35,2.31,1.11,3.57c0,0,0,.06,0,.09a14.84,14.84,0,0,0-1.09-3.66s-3.14-3.55-11.55-5.94-13-.38-13-.38l-1.12,2.67c-9.61,2.45-12.73,5-12.73,5-.3.4.25-.48,0,0a12.91,12.91,0,0,0-7.36,1.33c-4.17,1.87-7.39,8-8.26,9.82a28.38,28.38,0,0,0-3,12.48,3.83,3.83,0,0,0,.71,1.9,1.32,1.32,0,0,0-1.13,1.14C372.85,739,372,743,374,750s5.53,11.47,6.5,11.89a20,20,0,0,0,4.14,1.35,4.27,4.27,0,0,0,1.24-.08c.27.38.47.53.49.49s.28.73,5.11,4.48a20.2,20.2,0,0,0,6.51,3.67l-.3,1.59c6.83,6,23.4,1.3,26.17.14a3,3,0,0,0,1.76-2.54l-.06,1.21c1.37.93,5.34-2.26,5.34-2.26a37.5,37.5,0,0,0,12-15.9,3.08,3.08,0,0,0-.1-2.84,29.26,29.26,0,0,0,1.93-7.89,20.14,20.14,0,0,0-.53-9.14c.16.34.3.68.44,1C444.7,735.25,446.59,730.8,440.39,719.29Zm-27.66,50a3.57,3.57,0,0,0,.4-.89c.67-2.38,1-11.48,1-11.63a61.14,61.14,0,0,0,14.6-5.19l.06-.19c.46.48,3,3.15,4.85,5.65a7.53,7.53,0,0,0,1.35,1.47m3-31.63-7,5.79c-2.9-3.2-12.7-8.21-12.7-8.21a3.16,3.16,0,0,0-.32,0c1.14-2.92,1.14-10.8,1.13-12.59a39.09,39.09,0,0,1,12.7,2.19l3.9,5.89a60.69,60.69,0,0,1,2.25,7Z" transform="translate(-371.46 -701.05)"/><path class="cls-4" d="M431.83,714.05s5.15,6.44,6.24,12.7l-.09.15s4.28,2.36,6.85,8.65c0,0,1.54-5.9-4.6-16.61s-9.51-10-9.51-10Z" transform="translate(-371.46 -701.05)"/><path class="cls-4" d="M404.68,705.51s4.17-1.12,9.62,2.61,3.14,3.93,10.45,4.17c0,0,5.92.52,7.08,1.76,0,0,.35-3.32-1.11-5.1-3.36-3.48-14.93-9.26-25.24-6.37Z" transform="translate(-371.46 -701.05)"/><path class="cls-4" d="M392.36,710.24l-5.71.55s-5.26,1.12-9.42,9.57a31.11,31.11,0,0,0-3.51,12.54,4.92,4.92,0,0,0,.64,2.8s1.9,1.53,5.78,1.43" transform="translate(-371.46 -701.05)"/><path class="cls-4" d="M388.24,725.08s.51-9.14,4-14.5" transform="translate(-371.46 -701.05)"/><path class="cls-4" d="M380.14,737.13l-5.8-1.39s-3.32,2-.72,13.19,8.5,14,8.5,14l4.28.79a41.92,41.92,0,0,1,.22-12.7" transform="translate(-371.46 -701.05)"/><path class="cls-4" d="M431,732.69s-.5,15.1-2.24,19.22c0,0,5.11,7.18,6.23,6.62s7.43-5.64,8.06-7.54,4.36-12.08.11-18.65l-4.57-5.62Z" transform="translate(-371.46 -701.05)"/><path class="cls-4" d="M405.94,705.17a24.7,24.7,0,0,1,13.73,7.36L418,724.69" transform="translate(-371.46 -701.05)"/><path class="cls-4" d="M388.24,725.08s.51-9.52,3.69-13.88" transform="translate(-371.46 -701.05)"/><path class="cls-4" d="M386.62,751s-1.33,8.51.11,13.52c0,0,9.68,7.26,11.76,7.62s12.45,1,15-3.8l.64-11.53s-11.5-6-13.67-8.64" transform="translate(-371.46 -701.05)"/><path class="cls-4" d="M400.48,748.15s6.35,5.85,13.67,8.64c0,0,14-4.13,14.6-5.19s3.1-11.4,2-19.15l-12.71-8s-15.18,3.11-16.34,6.79" transform="translate(-371.46 -701.05)"/><path class="cls-4" d="M418.94,711.86s5.54-1,13.4,2.5a42.69,42.69,0,0,1,6.13,12.36s-1.27,3.13-7.45,6c0,0-3.15-3.2-13-8.24C418,724.45,418.52,719.15,418.94,711.86Z" transform="translate(-371.46 -701.05)"/><path class="cls-4" d="M406.43,702.83s-.87-2-11,2.11-9.49,6.26-9.49,6.26a30.33,30.33,0,0,1,6.35-.62" transform="translate(-371.46 -701.05)"/><path class="cls-4" d="M401.93,731s-1.58,13-1.45,17.12A38.12,38.12,0,0,1,386.62,751s-3.25-3.79-5.82-11.34a9.13,9.13,0,0,1-.35-5.31c.58-3.46,7.78-9.76,7.78-9.76Z" transform="translate(-371.46 -701.05)"/><path class="cls-4" d="M398.4,774s-3.39.64-9.86-4.34-7.27-5.55-8-7.71" transform="translate(-371.46 -701.05)"/><path class="cls-4" d="M428.75,751.6l6.11,6.64s.94,1.19-.81,3.19-5.78,7.44-8.26,8.25a24.87,24.87,0,0,1-8.79.58c-1.8-.27-4.19-.24-4.29-1.8s1.44-11.67,1.44-11.67Z" transform="translate(-371.46 -701.05)"/></g></g></svg>