<svg xmlns="http://www.w3.org/2000/svg" xmlns:xlink="http://www.w3.org/1999/xlink" viewBox="0 0 100.04 302.23"><defs><style>.cls-1,.cls-10,.cls-9{fill:none;}.cls-2{isolation:isolate;}.cls-3{clip-path:url(#clip-path);}.cls-4{fill:#d5bd8c;}.cls-5{fill:#5f6060;opacity:0.2;mix-blend-mode:multiply;}.cls-6,.cls-7{fill:#fff;}.cls-10,.cls-6,.cls-9{stroke:#fff;stroke-linecap:round;stroke-linejoin:round;}.cls-6{stroke-width:0.25px;}.cls-8{clip-path:url(#clip-path-2);}.cls-9{stroke-width:1.5px;}.cls-10{stroke-width:1.18px;}</style><clipPath id="clip-path" transform="translate(-9.73 -23.98)"><path class="cls-1" d="M33.41,300.85c1.06-.48,61-35.42,61-35.42l37.2-176.08S128.51-1,124.25,0,7,15.53,7,15.53L0,195.76Z"/></clipPath><clipPath id="clip-path-2" transform="translate(-9.73 -23.98)"><path class="cls-1" d="M61.84,35.15c-23.31,13.46-42.2,55-42.09,92.57s19.16,57.21,42.48,43.75,42.2-55,42.09-92.58S85.16,21.69,61.84,35.15"/></clipPath></defs><title>Ресурс 1</title><g class="cls-2"><g id="Слой_2" data-name="Слой 2"><g id="Слой_1-2" data-name="Слой 1"><g class="cls-3"><path class="cls-4" d="M50.44,244.7l2.9-4.47s3.51-4.49,6.62-5.79c4.38-1.84,8.79-.45,8.79,1.83,0,3.89.5,78,.5,78s.57,5.3-8.42,9.05-10,0-10,0Z" transform="translate(-9.73 -23.98)"/><path class="cls-5" d="M55.9,243.91c0-3,4.37-6.39,4.37-6.39s8.48-5.15,8.48-1.25.5,78,.5,78,.57,5.3-8.42,9.05S56,305,56,305,55.9,246.93,55.9,243.91Z" transform="translate(-9.73 -23.98)"/><path class="cls-4" d="M78.24,25.11c-18.45,0-26.41,8.32-26.41,8.32S10.48,68.11,10.48,131.1c0,36.43,17.18,47.05,17.18,47.05s16.15,15.9,20.11,30.4S54,241.9,54,241.9H56.7a7,7,0,0,1,1.5-2.26,6.24,6.24,0,0,1,.95-1,7.06,7.06,0,0,1,1.16-1.09c-.19-7.57-1.22-23.27-6.27-33.66-6.85-14.1-12.84-21.26-12.84-21.26a38.54,38.54,0,0,0,19.16-4.09c12.55-6.57,21.83-19.9,21.83-19.9s-17.42,40.24-17.53,76.63a8.65,8.65,0,0,1,2.89-.58c.33-21.25,2.74-31.81,10.69-56.15,8.62-26.38,12-31.9,12-31.9s18.67-29.2,18.67-69.15S92.29,25.11,78.24,25.11Zm-26.8,151c-10.8,0-31.93-5.33-31.93-51.18,0-49,33.71-94.14,53.93-94.14,8.13,0,31.53,7,31.53,46.66C105,135.5,67.51,176.11,51.44,176.11Z" transform="translate(-9.73 -23.98)"/><path class="cls-5" d="M78.24,25.11c-14,0-24.52,10.2-24.52,10.2S14.65,70.8,14.65,130c0,36.43,16.07,46.65,16.07,46.65s13.66,11.15,19.92,27.56c4.26,11.15,6.89,20.61,7.08,36a6.61,6.61,0,0,1,2.6-2.39c-.18-7.47-1.18-23.39-6.28-33.89-6.85-14.1-13.26-22-13.26-22a36,36,0,0,0,19.58-3.38c12.55-6.45,21.83-19.9,21.83-19.9S64.83,198.69,64.66,235a7.63,7.63,0,0,1,2.89-.54h0c.33-21.48,2.75-31.68,10.69-56,8.62-26.38,12-31.9,12-31.9s18.67-29.2,18.67-69.15S92.29,25.11,78.24,25.11Zm-26.8,151c-10.8,0-31.93-5.33-31.93-51.18,0-54.33,37-94.14,53.93-94.14,10.76,0,31.53,7,31.53,46.66C105,135.5,67.51,176.11,51.44,176.11Z" transform="translate(-9.73 -23.98)"/><g class="cls-2"><path class="cls-6" d="M83,157.2c-6.25,8.47-13.28,15.27-20.72,19.56s-14.5,5.64-20.77,4.4l.06,0c.3.35.59.71.89,1.08,6,.84,12.76-.63,19.82-4.7S76,167.22,82,159.42c.29-.71.59-1.41.88-2.1l.07-.12m-47.51,23A23,23,0,0,0,41,182h0a23.27,23.27,0,0,1-5.53-1.87M89,149.27q-2.64,4.35-5.5,8.24h0q2.86-3.9,5.5-8.23v0M81.71,152c-.19.28-.39.56-.59.83l.59-.34V152m-39,22.52v.5l.59-.35c-.2,0-.4-.1-.59-.15m51.68-36.45q-1,2.14-2.13,4.23l.54.2h0c.73-1.39,1.44-2.79,2.13-4.22h0l-.53-.23M30,175.25l-.24.4.3,0-.3,0-.28.44.18-.31-.2.3c.71.63,1.43,1.22,2.17,1.76l.53-.83A27.24,27.24,0,0,1,30,175.25m0,0-.15.27.16-.26h0m13-121.45-.58.34v.49l.58-.83M81.37,31.59l-.58.34c.19,0,.39.09.58.15v-.49M59.6,36.54c.74-.49,1.49-1,2.24-1.39s1.51-.84,2.25-1.21L62.2,35v.31a33.54,33.54,0,0,1,5.91-2.66v-.41l.71-.23v.41a25.12,25.12,0,0,1,5.92-1.08v-.44l.71,0v.45a20.51,20.51,0,0,1,4.31.34l.62-.35,1,.23.7.2v.51a21,21,0,0,1,5.38,2.59l.47-.27.63.45.16.12v.61a26.72,26.72,0,0,1,3.91,3.72l.41-.24c.16.18.31.36.46.55l-.41.24c.54.65,1.06,1.34,1.56,2.06v-.8l.72,1v.83c.36.57.72,1.15,1.06,1.75l.39-.22.34.62-.38.22a46.52,46.52,0,0,1,2.49,5.36l.38-.21c.08.22.17.44.25.67l-.37.21q1,2.67,1.8,5.65V55.69l.39,1.43.18.71c0,.19.1.38.14.58V60.2c.27,1.27.52,2.58.74,3.92l.36-.2.12.74-.36.21c.32,2,.56,4.17.74,6.38l.35-.2.06.78-.35.2c.15,2.15.24,4.37.25,6.66l.35-.2v.81l-.35.2q0,3.45-.21,6.93l.35-.2c0,.28,0,.57,0,.85l-.36.2q-.24,3.6-.7,7.21l.36-.21c0,.29-.07.59-.11.88l-.36.21c-.21,1.59-.45,3.17-.72,4.76v1.79c-.05.25-.1.5-.14.75l-.18.91c-.12.63-.25,1.26-.38,1.88v-1.54q-.77,3.89-1.76,7.71l.37-.21c-.08.32-.17.64-.25,1l-.37.21q-1.11,4.17-2.46,8.23l.38-.23-.33,1-.39.23c-.34,1-.69,2-1,3v.84c-.23.62-.46,1.23-.7,1.85v-.81c-.5,1.3-1,2.59-1.55,3.87l.42-.24c-.15.36-.3.72-.46,1.08l-.42.24c-1.21,2.82-2.5,5.57-3.87,8.21v.62c0,.1-.1.2-.16.3l-.63,1.18-.47.28c-1.68,3.08-3.47,6-5.34,8.77v.51l-.7,1c-.32.46-.66.93-1,1.39l-.63.36q-2.09,2.81-4.29,5.3V160l-.7.78v-.45a62.33,62.33,0,0,1-5.9,5.75v.42l-.71.59v-.42a46.82,46.82,0,0,1-5.91,4.17v.32l1.9-1.1c-.75.5-1.49,1-2.25,1.4s-1.5.83-2.25,1.2l1.89-1.09v-.32A34.28,34.28,0,0,1,56,173.92v.42l-.71.23v-.42a25.09,25.09,0,0,1-5.92,1.07v.45c-.24,0-.47,0-.71,0v-.45a20.42,20.42,0,0,1-4.3-.35l-.63.37c-.33-.07-.67-.15-1-.24l-.7-.2v-.51a20.93,20.93,0,0,1-5.37-2.59l-.48.28-.63-.45-.16-.12v-.62a26.66,26.66,0,0,1-3.9-3.72l-.42.24c-.15-.18-.31-.36-.46-.55l.42-.24c-.54-.65-1.07-1.35-1.58-2.07v.81l-.72-1v-.85c-.36-.56-.71-1.13-1.05-1.73l-.4.22-.34-.61.39-.23a47.45,47.45,0,0,1-2.5-5.36l-.37.22c-.09-.22-.18-.45-.26-.67l.38-.22a57.13,57.13,0,0,1-1.81-5.67v1.56l-.39-1.43-.18-.71c-.05-.19-.1-.38-.14-.58v-1.82c-.27-1.26-.52-2.56-.74-3.89l-.36.21-.12-.75.36-.21c-.31-2-.56-4.17-.73-6.38l-.36.21-.06-.78.36-.21c-.15-2.15-.24-4.37-.25-6.66l-.36.21v-.81l.35-.21c0-2.3.08-4.61.22-6.93l-.36.21c0-.29,0-.57.05-.85l.36-.21c.16-2.4.4-4.8.7-7.2l-.36.2c0-.29.07-.58.11-.88l.36-.21c.21-1.57.45-3.15.72-4.73v-1.82c.05-.25.1-.49.14-.74l.18-.92c.12-.63.25-1.25.38-1.87v1.55q.76-3.88,1.76-7.73L24,95.2c.08-.32.17-.64.25-1l.38-.22c.73-2.77,1.56-5.52,2.45-8.22l-.38.22L27,85l.39-.22c.34-1,.69-2,1.05-3V81c.23-.62.46-1.23.7-1.85V80q.75-2,1.56-3.87l-.42.23c.15-.36.31-.72.46-1.07l.41-.24q1.83-4.25,3.88-8.22v-.61l.16-.31.63-1.18.47-.27c1.68-3.08,3.47-6,5.34-8.78v-.5c.23-.34.46-.68.7-1s.66-.94,1-1.39l.62-.36q2.09-2.8,4.29-5.31v-.45l.7-.78v.44a64.93,64.93,0,0,1,5.91-5.75V40.1l.71-.59v.42a46.82,46.82,0,0,1,5.91-4.17v-.31L59.6,36.54m2.24-1.8C38.33,48.31,19.29,90.12,19.39,127.92s19.33,57.53,42.84,44,42.56-55.38,42.45-93.19S85.36,21.16,61.84,34.74m0-5.7c-26.26,15.15-47.52,60.8-47.4,101.75.06,21.19,5.83,37,15,45.29l.52-.85c-9.07-8.18-14.76-23.87-14.82-44.85C15,89.88,36,44.78,61.83,29.85s47,5.87,47.1,46.38c.06,20.93-5.5,43.08-14.46,61.67l.31-.57.3.64c9-18.76,14.63-41.08,14.57-62.16C109.53,34.86,88.07,13.88,61.83,29" transform="translate(-9.73 -23.98)"/><path class="cls-6" d="M68.63,237.88,68.84,314a8.75,8.75,0,0,1-1.74,4.89c0,.34,0,.69.07,1a10.74,10.74,0,0,0,2.51-6.4l-.21-76.12c0-1.82-.76-3-1.92-3.39v1.21h-.14A2.88,2.88,0,0,1,68.63,237.88Z" transform="translate(-9.73 -23.98)"/><path class="cls-6" d="M60.34,237.91l4.14-2.4.18-.09-.42,0v-.75l-3.64,2.1c0,.16,0,.32,0,.48v.27l-.43.46Z" transform="translate(-9.73 -23.98)"/><path class="cls-6" d="M56.22,245.48V245a8.4,8.4,0,0,1,1.2-4l-.13.14v-.62c0-.2,0-.4,0-.59a10.35,10.35,0,0,0-1.89,5.59v.24C55.44,246.49,56.12,246.32,56.22,245.48Z" transform="translate(-9.73 -23.98)"/><path class="cls-7" d="M29.74,175.65l.3,0-.3,0m.23-.42h0l-.52.85h0l.2-.3-.18.31.28-.44.24-.4h0l-.16.26.15-.27h0" transform="translate(-9.73 -23.98)"/><path class="cls-6" d="M35.46,180.16A23.27,23.27,0,0,0,41,182h0c8.54,10.25,18.7,28.12,18.89,55.2,0,.07,0,.13,0,.19L58,239.48V239c-.42-31.67-14.69-50.73-22.53-58.83M32.15,177h0l-.53.83h0c6,5.21,25.37,25,25.68,62.09,0,.19,0,.39,0,.59v.62l.13-.14,2.75-3,.43-.46v-.27c0-.16,0-.32,0-.48-.19-26.38-9.76-44.07-18.16-54.52-.3-.37-.59-.73-.89-1.08l-.06,0,0,0a23.19,23.19,0,0,1-9.3-4.13" transform="translate(-9.73 -23.98)"/><path class="cls-6" d="M83.45,157.52h0q2.85-3.88,5.5-8.24v0c-7.77,17.11-21.87,52.55-22.11,84.59v.49l-1.9.13v-.19C65,207.1,75,177.58,83.45,157.52m8.79-15.21A118,118,0,0,1,83,157.15l0,0-.07.12c-.29.69-.59,1.39-.88,2.1-8.31,20.11-17.75,48.76-17.79,75.28v.75l.42,0,2.75-.2h.14V234c.1-37.28,19.32-79.41,25.24-91.48h0l-.54-.2h0" transform="translate(-9.73 -23.98)"/><path class="cls-7" d="M94.58,138.11l-.17-.09.17.09m.2-.78-.31.57-.07.13,0,.05h0l.53.23h0l.17-.3v0l-.3-.64" transform="translate(-9.73 -23.98)"/><g class="cls-8"><path class="cls-7" d="M22.73,149.27l-.39.22.39,1.43v-1.65m0-7.61-.71.41v6.13c0,.2.09.39.14.58l.57-.32,0-6.8m0-7.61-.71.41,0,6.8.71-.41,0-6.8m0-7.6-.7.41,0,6.79.7-.41,0-6.79m0-7.61-.71.41L22,126l.71-.41,0-6.79m0-7.61-.71.41,0,6.79.71-.41,0-6.79m0-7.61L22,104c0,.25-.09.49-.14.74v6.14l.71-.41,0-6.8m0-2.46c-.13.62-.26,1.24-.38,1.87l.39-.22v-1.65" transform="translate(-9.73 -23.98)"/><path class="cls-7" d="M29.39,160.66l-.71.41v3.19l.72,1v-4.63m0-7.6-.71.4,0,6.8.71-.41,0-6.79m0-7.61-.71.41,0,6.79.71-.41,0-6.79m0-7.61-.71.41,0,6.79.71-.41,0-6.79m0-7.61-.71.41,0,6.79.71-.4,0-6.8m0-7.61-.71.41,0,6.8.71-.41,0-6.8m0-7.6-.7.4v6.8l.71-.41,0-6.79m0-7.61-.71.41,0,6.79.71-.41,0-6.79m0-7.61-.71.41,0,6.79.71-.41,0-6.79m0-7.61-.71.41,0,6.79.71-.4,0-6.8m0-7.61-.71.41,0,6.8.71-.41,0-6.8m0-5.44c-.24.62-.47,1.23-.7,1.85v3.19l.71-.41,0-3.82v-.81" transform="translate(-9.73 -23.98)"/><path class="cls-7" d="M36,164.45l-.71.41v6.58l.16.12.55-.32,0-6.79m0-7.61-.7.41,0,6.79.7-.41,0-6.79m0-7.61-.71.41,0,6.8L36,156l0-6.8m0-7.61-.71.41,0,6.8.71-.41,0-6.8m0-7.6-.71.41,0,6.79.71-.41L36,134m0-7.61-.71.41,0,6.79.71-.41,0-6.79m0-7.61-.71.41,0,6.79.71-.41,0-6.79m0-7.61-.71.41,0,6.8.7-.41v-6.8m0-7.6-.71.4,0,6.8.71-.41,0-6.79m0-7.61-.71.41,0,6.79.71-.41,0-6.79m0-7.61-.71.41,0,6.79.71-.41,0-6.79m0-7.61-.71.41,0,6.79.71-.4,0-6.8m0-7.61-.71.41,0,6.8L35.8,80l0-6.8m0-7.6-.55.31-.16.31v.61l0,6,.7-.41V65.55" transform="translate(-9.73 -23.98)"/><path class="cls-7" d="M42.68,168.23l-.71.41,0,5.68v.51l.7.2h0v-.5l0-6.3m0-7.6L42,161l0,6.79.71-.41,0-6.79m0-7.61-.71.41,0,6.79.7-.41V153m0-7.61-.7.41v6.79l.71-.41,0-6.79m0-7.61-.71.41,0,6.79.71-.4,0-6.8m0-7.61-.71.41,0,6.8.71-.41,0-6.8m0-7.6-.71.41,0,6.79.71-.41,0-6.79m0-7.61-.71.41,0,6.79.71-.41,0-6.79m0-7.61-.71.41,0,6.79.71-.41,0-6.79m0-7.61-.7.41V107l.71-.41,0-6.8m0-7.61-.71.41,0,6.8.71-.41,0-6.8m0-7.6-.71.41,0,6.79.71-.41,0-6.79m0-7.61-.71.41,0,6.79.71-.41,0-6.79m0-7.61-.71.41,0,6.79.71-.41,0-6.79m0-7.61-.71.41,0,6.8.71-.41,0-6.8m0-7.6h0c-.24.33-.47.67-.7,1v.5l0,5.69.7-.41V54.12" transform="translate(-9.73 -23.98)"/><path class="cls-7" d="M49.32,172l-.71.41v3.27c.24,0,.47,0,.71,0V172m0-7.61-.71.41,0,6.79.71-.41,0-6.79m0-7.61-.71.41,0,6.8.71-.41,0-6.8m0-7.6-.71.4,0,6.8.71-.41,0-6.79m0-7.61-.7.41,0,6.79.7-.41,0-6.79m0-7.61-.71.41,0,6.79.71-.41,0-6.79m0-7.61-.71.41,0,6.79.71-.4,0-6.8m0-7.61-.71.41,0,6.8.71-.41,0-6.8m0-7.6-.71.41,0,6.79.71-.41,0-6.79m0-7.61-.71.41,0,6.79.71-.41,0-6.79m0-7.61-.71.41,0,6.79.7-.41V95.94m0-7.61-.7.41v6.79l.71-.4,0-6.8m0-7.61-.71.41,0,6.8.71-.41,0-6.8m0-7.6-.71.41,0,6.79.71-.41,0-6.79m0-7.61-.71.41,0,6.79L49,72.3l0-6.79m0-7.61-.71.41,0,6.79.71-.41,0-6.79m0-7.61-.71.41,0,6.8.71-.41,0-6.8m0-4.46-.7.78v3.28l.71-.41V45.83" transform="translate(-9.73 -23.98)"/><path class="cls-7" d="M55.94,168.2l-.71.41,0,5.54v.42l.71-.23v-.42l0-5.72m0-7.61-.71.41,0,6.79.71-.41,0-6.79m0-7.61-.71.41,0,6.79.71-.41,0-6.79m0-7.61-.71.41,0,6.8.71-.41,0-6.8m0-7.61-.71.41,0,6.8.7-.41v-6.8m0-7.6-.7.41v6.79l.71-.41,0-6.79m0-7.61-.71.41,0,6.79.71-.41,0-6.79m0-7.61-.71.41,0,6.79.71-.41,0-6.79m0-7.61-.71.41,0,6.8.71-.41,0-6.8m0-7.6-.71.4,0,6.8.71-.41,0-6.79m0-7.61-.71.41,0,6.79.71-.41,0-6.79m0-7.61-.7.41,0,6.79.7-.41,0-6.79m0-7.61-.71.41,0,6.79.71-.4,0-6.8m0-7.61L55,69.7l0,6.8.71-.41,0-6.8m0-7.6-.71.41,0,6.79.71-.41,0-6.79m0-7.61-.71.41,0,6.79.71-.41,0-6.79m0-7.61-.71.41,0,6.79.71-.41,0-6.79m0-7-.71.59v.42l0,5.54.7-.4V39.51" transform="translate(-9.73 -23.98)"/><path class="cls-7" d="M62.56,164.37l-.71.41,0,6.48v.32l.71-.41v-.32l0-6.48m0-7.6-.71.41,0,6.79.71-.41,0-6.79m0-7.61-.71.41,0,6.79.71-.41,0-6.79m0-7.61-.71.41,0,6.79.71-.41,0-6.79m0-7.61-.71.41,0,6.8.71-.41,0-6.8m0-7.61-.7.41,0,6.8.7-.41,0-6.8m0-7.6-.71.41,0,6.79.71-.41,0-6.79m0-7.61-.71.41,0,6.79.71-.41,0-6.79m0-7.61-.71.41,0,6.79.71-.41,0-6.79m0-7.61-.71.41,0,6.8.71-.41,0-6.8m0-7.61-.71.41,0,6.8.71-.41,0-6.8m0-7.6-.71.41,0,6.79.7-.41V80.69m0-7.61-.7.41v6.79l.71-.41,0-6.79m0-7.61-.71.41,0,6.79.71-.41,0-6.79m0-7.61-.71.41,0,6.8.71-.41,0-6.8m0-7.6-.71.4,0,6.8.71-.41,0-6.79m0-7.61-.71.41,0,6.79.71-.41,0-6.79m0-7.61-.71.41v.31l0,6.48.71-.41,0-6.48V35" transform="translate(-9.73 -23.98)"/><path class="cls-7" d="M69.18,160.55l-.7.41v6.14l.71-.59v-.42l0-5.54m0-7.61-.71.41,0,6.8.71-.41,0-6.8m0-7.6-.71.4,0,6.8.71-.41,0-6.79m0-7.61-.71.41,0,6.79.71-.41,0-6.79m0-7.61-.71.41,0,6.79.71-.41,0-6.79m0-7.61-.71.41,0,6.79.71-.4,0-6.8m0-7.61-.7.41v6.8l.71-.41,0-6.8m0-7.6-.71.41,0,6.79.71-.41,0-6.79m0-7.61-.71.41,0,6.79.71-.41,0-6.79m0-7.61-.71.41,0,6.79.71-.41,0-6.79m0-7.61-.71.41,0,6.8.71-.41,0-6.8m0-7.61-.71.41,0,6.8.71-.41,0-6.8m0-7.6-.7.41,0,6.79.7-.41,0-6.79m0-7.61-.71.41,0,6.79.71-.41,0-6.79m0-7.61-.71.41,0,6.79.71-.41,0-6.79m0-7.61-.71.41,0,6.8.71-.41,0-6.8m0-7.61-.71.41,0,6.8.71-.41,0-6.8m-.73-6.54v.41l0,5.73.71-.41,0-5.55v-.41l-.71.23" transform="translate(-9.73 -23.98)"/><path class="cls-7" d="M75.8,156.73l-.7.41v3.65l.7-.78v-3.28m0-7.61-.71.41,0,6.79.71-.41,0-6.79m0-7.61-.71.41,0,6.8.71-.41,0-6.8m0-7.6-.71.4,0,6.8.71-.41,0-6.79m0-7.61-.71.41,0,6.79.71-.41,0-6.79m0-7.61-.71.41,0,6.79.71-.41,0-6.79m0-7.61-.71.41,0,6.79.7-.4v-6.8m0-7.61-.71.41,0,6.8.71-.41,0-6.8m0-7.6-.71.4,0,6.8.71-.41,0-6.79m0-7.61-.71.41,0,6.79.71-.41,0-6.79m0-7.61-.71.41,0,6.79.71-.41,0-6.79m0-7.61-.71.41,0,6.79.71-.4,0-6.8m0-7.61-.71.41,0,6.8.71-.41,0-6.8m0-7.6-.7.41V65l.71-.41,0-6.79m0-7.61-.71.41,0,6.79.71-.41,0-6.79m0-7.61-.71.41,0,6.79.71-.41,0-6.79m0-7.61-.71.41,0,6.8.71-.41,0-6.8m-.72-4.06V34.6l.71-.41V30.91l-.71,0" transform="translate(-9.73 -23.98)"/><path class="cls-7" d="M82.4,145.3l-.7.41v6.79h0l.7-1V151l0-5.68m0-7.61-.71.41,0,6.79.71-.41,0-6.79m0-7.61-.71.41,0,6.8.71-.41,0-6.8m0-7.61-.71.41,0,6.8.71-.41,0-6.8m0-7.6-.71.41,0,6.79.71-.41,0-6.79m0-7.61-.71.41,0,6.79.71-.41,0-6.79m0-7.61-.7.41,0,6.79.7-.41,0-6.79m0-7.61-.71.41,0,6.8.71-.41,0-6.8m0-7.6-.71.4,0,6.8.71-.41,0-6.79m0-7.61-.71.41,0,6.79.71-.41,0-6.79m0-7.61-.71.41,0,6.79.71-.41,0-6.79m0-7.61-.71.41,0,6.79.71-.41,0-6.79m0-7.61-.71.41,0,6.8.7-.41V54m0-7.6-.71.4,0,6.8.71-.41,0-6.79m0-7.61-.71.41,0,6.79.71-.41,0-6.79m-.72-7.21h0v.49l0,6.3L82.1,38l0-5.68v-.51l-.7-.2" transform="translate(-9.73 -23.98)"/><path class="cls-7" d="M89,133.87l-.71.41,0,6.79.55-.32c.06-.1.11-.2.16-.3v-.62l0-6m0-7.61-.71.41,0,6.79.71-.41,0-6.79m0-7.61-.71.41,0,6.79.71-.4,0-6.8m0-7.61-.71.41,0,6.8.71-.41,0-6.8m0-7.6-.71.41,0,6.79.71-.41,0-6.79m0-7.61-.71.41,0,6.79.7-.41V95.83m0-7.61-.7.41v6.79l.71-.41,0-6.79m0-7.61-.71.41,0,6.8.71-.41,0-6.8m0-7.61-.71.41,0,6.8.71-.41,0-6.8m0-7.6-.71.41,0,6.79.71-.41,0-6.79m0-7.61-.71.41,0,6.79.71-.41,0-6.79m0-7.61-.71.41,0,6.79.71-.41,0-6.79m0-7.61L88,43v6.8l.71-.41,0-6.8m-.18-7.51-.55.31,0,6.8.71-.41V35.18l-.16-.12" transform="translate(-9.73 -23.98)"/><path class="cls-7" d="M95.6,122.44l-.71.41v4.63c.24-.62.47-1.23.7-1.85v-3.19m0-7.61-.71.41,0,6.79.71-.41,0-6.79m0-7.61-.71.41,0,6.79.71-.4,0-6.8m0-7.61-.71.41,0,6.8.71-.41,0-6.8m0-7.6-.71.41,0,6.79.71-.41,0-6.79m0-7.61-.7.41,0,6.79.7-.41,0-6.79m0-7.61-.71.41,0,6.79.71-.41,0-6.79m0-7.61-.71.41,0,6.79.71-.4,0-6.8m0-7.61-.71.41,0,6.8.71-.41,0-6.8m0-7.6-.71.41,0,6.79.71-.41,0-6.79m0-7.61-.71.41,0,6.79.71-.41,0-6.79m-.73-5v.8l0,3.83.7-.41V42.35l-.72-1" transform="translate(-9.73 -23.98)"/><path class="cls-7" d="M101.86,103.58l-.39.23v1.65c.13-.62.26-1.25.38-1.88m.3-7.79-.71.41,0,6.79.57-.32c0-.25.09-.5.14-.75V95.79m0-7.61-.71.41,0,6.8.71-.41,0-6.8m0-7.6-.71.4,0,6.8.7-.41V80.58m0-7.61-.7.41v6.79l.71-.41,0-6.79m0-7.61-.71.41,0,6.79.71-.41,0-6.79m-.16-7.53-.57.33,0,6.79.71-.4V58.41c0-.2-.09-.39-.14-.58m-.57-2.14v1.66l.39-.23-.39-1.43" transform="translate(-9.73 -23.98)"/><path class="cls-7" d="M64.48,170.07l-1.9,1.1-.71.41L60,172.67q1.13-.55,2.25-1.2c.76-.44,1.5-.9,2.25-1.4" transform="translate(-9.73 -23.98)"/><path class="cls-7" d="M81.72,152.5h0l-.59.34-5.32,3.07-.71.41-5.91,3.42-.71.41-5.91,3.41-.71.41-5.91,3.41-.71.41-5.91,3.41-.71.41-5.32,3.07-.59.35h0c.33.09.67.17,1,.24l.63-.37,4.29-2.47.71-.41,5.91-3.41.71-.41,5.91-3.42.71-.41L68.48,161l.7-.41,5.92-3.41.7-.41,4.3-2.48.63-.36c.33-.46.67-.93,1-1.39" transform="translate(-9.73 -23.98)"/><path class="cls-7" d="M88.86,140.75l-.55.32-5.91,3.41-.71.41-5.91,3.42-.71.41-5.91,3.41-.71.41L62.54,156l-.71.41-5.91,3.41-.71.41L49.3,163.6l-.71.41-5.91,3.41-.71.41-5.91,3.41-.55.32.63.45.48-.28L42,168.64l.71-.41,5.91-3.41.71-.41L55.21,161l.71-.41,5.91-3.41.71-.41,5.91-3.42.71-.41,5.91-3.41.71-.41,5.92-3.41.7-.41,5.36-3.09.47-.28.63-1.18" transform="translate(-9.73 -23.98)"/><path class="cls-7" d="M93.77,130.3l-.42.24L89,133.05l-.71.41-5.91,3.42-.71.41-5.91,3.41-.71.41-5.91,3.41-.71.41-5.91,3.41-.71.41-5.91,3.42-.71.41L49.28,156l-.71.41-5.92,3.41-.7.41L36,163.63l-.7.41L31,166.55l-.42.24c.15.19.31.37.46.55l.42-.24,3.89-2.24.71-.41L42,161l.71-.41,5.91-3.42.71-.41,5.91-3.41.71-.41,5.91-3.41.71-.41,5.91-3.42.71-.4,5.91-3.42.71-.41,5.91-3.41.71-.41,5.91-3.41.71-.41,3.89-2.25.42-.24c.16-.36.31-.72.46-1.08" transform="translate(-9.73 -23.98)"/><path class="cls-7" d="M97.38,120.59l-.38.23-1.4.8-.71.41L89,125.45l-.71.4-5.91,3.42-.71.41-5.91,3.41-.71.41-5.91,3.41-.71.41-5.91,3.42-.71.41-5.92,3.41-.7.41-5.92,3.41-.7.41-5.92,3.41-.71.41L36,156l-.71.41-5.91,3.41-.71.41-1.39.8-.39.23.34.61.4-.22,1-.61.71-.41,5.92-3.41.7-.41,5.92-3.41.71-.41,5.91-3.42.71-.4,5.91-3.42.71-.41L61.79,142l.71-.41,5.91-3.41.71-.41L75,134.31l.71-.4,5.91-3.42.71-.41,5.91-3.41.71-.41,5.91-3.41.71-.41,1.06-.61.39-.23.33-1" transform="translate(-9.73 -23.98)"/><path class="cls-7" d="M100.08,111.42l-.37.21L95.58,114l-.71.4L89,117.84l-.71.41-5.91,3.41-.71.41-5.91,3.41-.71.41-5.91,3.42-.71.4-5.92,3.42-.7.41L55.85,137l-.71.41-5.91,3.41-.71.41-5.91,3.42-.71.4L36,148.42l-.71.41-5.91,3.41-.71.41L24.54,155l-.38.22c.08.22.17.45.26.67l.37-.22,3.87-2.24.71-.4,5.91-3.42.71-.41,5.92-3.41.7-.41L48.53,142l.7-.41,5.92-3.42.71-.41,5.91-3.41.71-.41,5.91-3.41.71-.41L75,126.71l.71-.41,5.91-3.42.71-.41,5.91-3.41.71-.41,5.91-3.41.71-.41,3.88-2.24.37-.21c.08-.32.17-.64.25-1" transform="translate(-9.73 -23.98)"/><path class="cls-7" d="M102,102.67l-.57.32-5.91,3.42-.71.41-5.91,3.41-.71.41-5.91,3.41-.71.41-5.92,3.42-.7.4-5.92,3.42-.71.41-5.91,3.41-.71.41-5.91,3.41-.71.41-5.91,3.42-.71.4L42.59,137l-.71.41L36,140.81l-.71.41-5.91,3.41-.71.41-5.91,3.42-.57.32.18.71.39-.22,5.91-3.41.71-.41L35.26,142l.71-.41,5.91-3.41.71-.41,5.91-3.41.71-.41,5.92-3.41.7-.41,5.92-3.42.7-.41,5.92-3.41.71-.41L75,119.1l.71-.41,5.91-3.41.71-.41,5.91-3.42.71-.41,5.91-3.41.71-.41,5.91-3.41.39-.23.18-.91" transform="translate(-9.73 -23.98)"/><path class="cls-7" d="M103.36,94.28l-.36.21-.84.49-.71.41L95.54,98.8l-.71.41-5.92,3.41-.7.41-5.92,3.41-.7.41-5.92,3.42-.71.41-5.91,3.41-.71.41-5.91,3.41-.71.41-5.91,3.41-.71.41-5.91,3.42-.71.41-5.91,3.41-.71.41L36,133.2l-.71.41L29.33,137l-.71.4-5.91,3.42-.71.41-.85.48-.36.21.12.75.36-.21.73-.42.71-.41,5.91-3.41.71-.41,5.91-3.41L36,134l5.91-3.42.71-.41,5.91-3.41.71-.41L55.1,123l.71-.41,5.91-3.41.71-.41,5.92-3.42.7-.41L75,111.49l.71-.41,5.91-3.41.71-.41,5.91-3.41.71-.41L94.83,100l.71-.41,5.91-3.41.71-.41.73-.42.36-.21c0-.29.07-.59.11-.88" transform="translate(-9.73 -23.98)"/><path class="cls-7" d="M104.11,86.23l-.35.2-1.63.94-.7.41-5.92,3.41-.7.41L88.89,95l-.71.41-5.91,3.42-.71.41-5.91,3.41-.71.41L69,106.48l-.71.41-5.91,3.41-.71.41-5.91,3.42-.71.41L49.17,118l-.71.41-5.91,3.41-.71.41-5.91,3.41-.71.41-5.91,3.42-.71.41-5.92,3.41-.7.41-1.62.93-.36.21.06.78.36-.21,1.56-.9.71-.41,5.91-3.41.71-.41,5.91-3.41.71-.41L41.84,123l.71-.41,5.91-3.42.71-.41,5.91-3.41.71-.41,5.91-3.41.71-.41,5.91-3.41.71-.41,5.91-3.42.71-.41,5.92-3.41.7-.41,5.92-3.41.71-.41,5.91-3.41.71-.41,5.91-3.42.71-.41,1.56-.9.36-.2c0-.28,0-.57,0-.85" transform="translate(-9.73 -23.98)"/><path class="cls-7" d="M104.32,78.49l-.35.2-1.86,1.07-.71.41-5.91,3.41-.71.41-5.91,3.42-.71.41-5.91,3.41-.71.41-5.91,3.41-.71.41L69,98.87l-.71.41-5.91,3.42-.71.41-5.91,3.41-.71.41-5.91,3.41-.71.41-5.91,3.41-.71.41L35.9,118l-.7.41-5.92,3.41-.71.41-5.91,3.41L22,126l-1.85,1.07-.35.21v.81l.36-.21L22,126.86l.7-.41L28.58,123l.71-.41,5.91-3.41.71-.41,5.91-3.41.71-.41,5.91-3.41.71-.41,5.91-3.42.71-.41,5.91-3.41.71-.41,5.91-3.41.71-.41,5.91-3.42.71-.4,5.91-3.42.71-.41,5.92-3.41.7-.41,5.92-3.41.7-.41L101.41,81l.71-.4L104,79.5l.35-.2v-.81" transform="translate(-9.73 -23.98)"/><path class="cls-7" d="M104,71.05l-.35.2-1.57.9-.71.41L95.47,76l-.71.4L88.85,79.8l-.71.41-5.91,3.41-.71.41-5.91,3.41-.71.41L69,91.27l-.71.41-5.91,3.41-.71.41-5.91,3.41-.71.41-5.92,3.41-.7.41-5.92,3.42-.71.41-5.91,3.41-.71.41-5.91,3.41-.71.41L22.64,118l-.71.41-1.56.9-.36.21c0,.28,0,.56-.05.85l.36-.21,1.61-.93.71-.41,5.92-3.42.7-.4,5.92-3.42.71-.41,5.91-3.41.71-.41L48.42,104l.71-.41L55,100.13l.71-.4,5.91-3.42.71-.41,5.91-3.41.71-.41,5.91-3.41.71-.41,5.91-3.42.71-.4L88.14,81l.71-.41,5.91-3.41.71-.41,5.92-3.41.7-.41,1.63-.94.35-.2-.06-.78" transform="translate(-9.73 -23.98)"/><path class="cls-7" d="M103.16,63.92l-.36.2-.73.43-.71.4-5.91,3.42-.71.41-5.91,3.41-.71.41L82.21,76l-.71.41-5.91,3.42-.71.4L69,83.66l-.71.41-5.92,3.41-.7.41L55.72,91.3l-.7.41L49.1,95.13l-.71.4L42.48,99l-.71.41-5.91,3.41-.71.41-5.91,3.41-.71.41-5.91,3.42-.71.41-.73.41-.36.21c0,.3-.07.59-.11.88l.36-.2.84-.49.71-.41,5.91-3.41.71-.41L35.15,104l.71-.4,5.92-3.42.7-.41,5.92-3.41.71-.41L55,92.53l.71-.41,5.91-3.42.71-.41,5.91-3.41.71-.41,5.91-3.41.71-.41,5.91-3.41.71-.41,5.91-3.42.71-.41,5.91-3.41.71-.41,5.91-3.41.71-.41.85-.49.36-.21-.12-.74" transform="translate(-9.73 -23.98)"/><path class="cls-7" d="M101.73,57.12l-.39.23-5.91,3.41-.71.41-5.91,3.41L88.1,65,82.19,68.4l-.71.41-5.91,3.42-.71.41-5.92,3.41-.7.41-5.92,3.41-.71.41L55.7,83.7l-.71.4-5.91,3.42-.71.41-5.91,3.41-.71.41-5.91,3.41-.71.41L29.22,99l-.71.4-5.91,3.42-.39.22L22,104l.57-.33,5.91-3.41.71-.41,5.91-3.41.71-.41,5.91-3.42.71-.41,5.92-3.41.7-.41L55,84.92l.7-.41,5.92-3.41.71-.41,5.91-3.42.71-.41,5.91-3.41.71-.41,5.91-3.41.71-.41,5.91-3.41.71-.41L94.72,62l.71-.41,5.91-3.41.57-.33-.18-.71" transform="translate(-9.73 -23.98)"/><path class="cls-7" d="M99.66,50.7l-.38.21-3.87,2.24-.71.41L88.79,57l-.71.41L82.16,60.8l-.7.41-5.92,3.41-.71.41-5.91,3.41-.71.41L62.3,72.26l-.71.41-5.91,3.42L55,76.5l-5.91,3.41-.71.41-5.91,3.41-.71.41-5.91,3.42-.71.4L29.2,91.38l-.71.41L24.62,94l-.38.22c-.08.32-.17.64-.25,1l.37-.22,4.13-2.38.71-.41,5.91-3.41.71-.41L41.73,85l.71-.41,5.91-3.42.71-.41L55,77.31l.71-.41,5.92-3.41.7-.41,5.92-3.41.7-.41,5.92-3.42.71-.41L81.46,62l.71-.41,5.91-3.41.71-.41,5.91-3.41.71-.41,4.13-2.39.37-.21c-.08-.23-.17-.45-.25-.67" transform="translate(-9.73 -23.98)"/><path class="cls-7" d="M96.83,44.71l-.39.22-1.06.61-.7.41-5.92,3.42-.71.41-5.91,3.41-.71.41L75.52,57l-.71.41L68.9,60.83l-.71.41-5.91,3.42-.71.41-5.91,3.41-.71.41L49,72.3l-.71.41-5.91,3.41-.71.41L35.8,80l-.71.41-5.91,3.41-.71.41-1.06.61L27,85l-.33,1,.38-.22,1.4-.81.71-.41,5.91-3.41.71-.41,5.91-3.41.71-.41,5.91-3.41.71-.41L55,69.7l.71-.41,5.91-3.41.71-.41,5.91-3.41.71-.41,5.92-3.41.7-.41,5.92-3.42.71-.41,5.91-3.41.71-.41,5.91-3.41.71-.41,1.4-.81.38-.22-.34-.62" transform="translate(-9.73 -23.98)"/><path class="cls-7" d="M93.05,39.27l-.41.24-3.9,2.25-.71.41-5.91,3.41-.71.41L75.5,49.4l-.71.41-5.91,3.42-.71.41-5.91,3.41-.71.41-5.91,3.41-.71.41L49,64.69l-.71.41L42.4,68.52l-.71.41-5.92,3.41-.7.41L31.17,75l-.41.24c-.15.35-.31.71-.46,1.07l.42-.23,4.35-2.52.71-.41,5.91-3.41.71-.41,5.91-3.41.71-.41,5.91-3.41.71-.41,5.91-3.42.71-.41,5.91-3.41.71-.41,5.91-3.41.71-.41,5.91-3.42.71-.4L88,43l.7-.41,4.36-2.51.41-.24c-.15-.19-.3-.37-.46-.55" transform="translate(-9.73 -23.98)"/><path class="cls-7" d="M87.93,34.61l-.47.27L82.1,38l-.71.41L75.48,41.8l-.71.41-5.91,3.41-.71.41-5.91,3.41-.71.41-5.91,3.41-.71.41L49,57.09l-.71.41-5.92,3.41-.7.41-5.36,3.09-.47.27-.63,1.18.55-.31,5.91-3.42.71-.41,5.91-3.41L49,57.9l5.91-3.41.71-.41,5.91-3.42.71-.4,5.91-3.42.71-.41L74.77,43l.71-.41,5.91-3.41.71-.41L88,35.37l.55-.31-.63-.45" transform="translate(-9.73 -23.98)"/><path class="cls-7" d="M80.38,31.35l-.62.35-4.3,2.49-.71.41L68.84,38l-.71.41-5.91,3.41-.71.41-5.92,3.42-.7.4L49,49.48l-.71.41L44,52.37l-.62.36c-.34.45-.67.92-1,1.39h0l.58-.34,5.33-3.08.71-.41,5.91-3.41.71-.41,5.91-3.41.71-.41,5.91-3.42.71-.41,5.91-3.41.71-.41,5.33-3.07.58-.34h0l-1-.23" transform="translate(-9.73 -23.98)"/><path class="cls-7" d="M61.84,35.15c-.75.43-1.5.9-2.24,1.39l1.89-1.09L62.2,35l1.89-1.1c-.74.37-1.49.77-2.25,1.21" transform="translate(-9.73 -23.98)"/></g></g><path class="cls-9" d="M57.88,29.33C31.63,44.49,10.37,90.14,10.48,131.1c.06,21.18,5.83,37,15,45.28l2.16,1.77c6,5.2,25.37,25,25.68,62.08" transform="translate(-9.73 -23.98)"/><path class="cls-9" d="M53.34,240.23c-1.16,1.72-2.9,3.78-2.9,5.6l.22,76.11c0,3.15,3.24,4.42,6,2.84" transform="translate(-9.73 -23.98)"/><path class="cls-10" d="M67.51,312.23l-9.61,5.56a4,4,0,0,1-2,.52H54.14" transform="translate(-9.73 -23.98)"/><path class="cls-10" d="M67.51,300.23l-9.61,5.55a4,4,0,0,1-2,.53H54.14" transform="translate(-9.73 -23.98)"/><path class="cls-10" d="M67.51,288.22l-9.61,5.55a3.91,3.91,0,0,1-2,.53H54.14" transform="translate(-9.73 -23.98)"/><path class="cls-10" d="M69,264.44,57.9,281.77a4,4,0,0,1-2,.52H54.14" transform="translate(-9.73 -23.98)"/><path class="cls-10" d="M69,252.44,57.9,269.76a4,4,0,0,1-2,.53H54.14" transform="translate(-9.73 -23.98)"/><path class="cls-10" d="M69,240.43,57.9,257.75a3.91,3.91,0,0,1-2,.53H54.14" transform="translate(-9.73 -23.98)"/><path class="cls-10" d="M64.28,233.31s-.2-.73-3.85.93" transform="translate(-9.73 -23.98)"/></g></g></g></g></svg>