<svg xmlns="http://www.w3.org/2000/svg" viewBox="0 0 132.09 114.57"><defs><style>.cls-1{isolation:isolate;}.cls-2{fill:none;stroke:#fff;stroke-linecap:round;stroke-linejoin:round;stroke-width:1.5px;}.cls-3{fill:#d5bd8c;}.cls-4{fill:#5f6060;opacity:0.2;mix-blend-mode:multiply;}</style></defs><title>4</title><g class="cls-1"><g id="Layer_1" data-name="Layer 1"><path class="cls-2" d="M469.69,762.27c5.39,7.64.87,15.44-10,19.78-19.15,7.83-42-2.94-56.29-11.85" transform="translate(-342.57 -682.44)"/><path class="cls-3" d="M473.88,771.9c0-1.15-1.48-2-1.48-2l-.5-.14a10.89,10.89,0,0,0-2.21-7.44C465.57,756.42,450.8,747.82,442,740c-8.64-7.62-15.68-17.07-23.15-25.94a2.81,2.81,0,0,1-.58-1.46h0c-.31-2,.45-4.71-3.31-5.57a13.89,13.89,0,0,0-4.61-.36l1-.35c-.22-.72-.44-1.39-.66-2l1.95-1.89a18.11,18.11,0,0,0-2.56.17c-2.25-6-4.31-8.07-6.65-6.79-2.77,1.51-.81,4.64-4.79,6.62-4.71,2.34-7.22,0-10.5.67l-.07-.46a78.07,78.07,0,0,1-16.08-6.44c-2.73-1.56-5-3.83-8.18-3.61l-.06-.65c-1.78-7.53-5-9.66-7.88-8.4-3.56,1.56-7.13,3.28-7,8.36a129.11,129.11,0,0,1-.73,15.35c-.86,8.72-2.34,13.36-2.67,22.09a10,10,0,0,0,.75,3.87l-2.81.92v8.66c0,1.64-.12,2.93.81,3.47s9.81,6.56,24.24,15.39c15.56,9.51,46.58,34.62,78.76,34.62a43,43,0,0,0,23.76-8.75,7.14,7.14,0,0,0,3-6.14C473.91,780.39,473.88,773.05,473.88,771.9Z" transform="translate(-342.57 -682.44)"/><path class="cls-4" d="M353.55,706.64c2.17,5.24,4.89,10.06,10.39,12.29a23,23,0,0,0,11.7,1.16c1.92-.23,3.79-.82,5.67-1.21-5.66-8.59-11.57-17-16.19-26.24a6.18,6.18,0,0,0-1.37-.06l-.06-.65c-1.78-7.53-5-9.66-7.88-8.4-3.56,1.56-7.13,3.28-7,8.36,0,1,0,1.9,0,2.86C350.24,698.78,351.92,702.74,353.55,706.64Z" transform="translate(-342.57 -682.44)"/><path class="cls-4" d="M473.89,771.9c0-.94-1-1.7-1.35-1.95a5.77,5.77,0,0,1-.78,1.21c-3,3.51-5,6.83-9.17,9.09a41.42,41.42,0,0,1-13.29,4.06c-7.75,1.23-15.81-1-23.52-3a65.15,65.15,0,0,0,5.43,13,70.66,70.66,0,0,0,15.92,1.92,43,43,0,0,0,23.76-8.75,7.14,7.14,0,0,0,3-6.14C473.91,780.39,473.89,773.05,473.89,771.9Z" transform="translate(-342.57 -682.44)"/><path class="cls-2" d="M343.32,734.12v8.66c0,1.64-.12,2.93.81,3.47s9.81,6.56,24.24,15.39c15.56,9.51,46.58,34.62,78.76,34.62a43,43,0,0,0,23.76-8.75,7.14,7.14,0,0,0,3-6.14c0-1,0-8.32,0-9.47s-1.48-2-1.48-2" transform="translate(-342.57 -682.44)"/><path class="cls-2" d="M369.59,750.24c-4.75-3.19-10.93-7.14-18-11.34-5.5-3.25-6.26-7.34-6.17-9.57.33-8.73,1.81-13.37,2.67-22.09a129.11,129.11,0,0,0,.73-15.35c-.1-5.08,3.47-6.8,7-8.36,2.85-1.26,6.1.87,7.88,8.4" transform="translate(-342.57 -682.44)"/><path class="cls-2" d="M388,702.62a77.58,77.58,0,0,1-16.08-6.43c-3.61-2.07-6.35-5.38-11.65-2.51s-9.36,4.42-8.65,9.52c2,14.79,16.24,19.36,25.57,16.84,4.59-1,8.83-3.81,12.39-6.86" transform="translate(-342.57 -682.44)"/><path class="cls-2" d="M404.91,709.55c2.8-3,5.88-3.44,10-2.5,4.77,1.09,2.26,5.09,3.89,7C426.29,723,433.33,732.4,442,740c8.83,7.8,23.6,16.4,27.72,22.25,5.39,7.64.87,15.44-10,19.78-19.15,7.83-42-2.94-56.29-11.85" transform="translate(-342.57 -682.44)"/><path class="cls-2" d="M347.82,709.4c9.63,7,14.71,23.73,14.71,36.23" transform="translate(-342.57 -682.44)"/><path class="cls-2" d="M412.58,714.92c8,9.77,15.76,18.12,23.93,27.86" transform="translate(-342.57 -682.44)"/><path class="cls-2" d="M407.21,723c1.66-10.66-1.66-15.87-10.75-12.7-5.37,1.53-5.38,5.39-5.28,7.67s.58,6.42,1.5,6.6c4,.77,5.56-2.8,6.78-5.86a43.59,43.59,0,0,0,1.61-6.88" transform="translate(-342.57 -682.44)"/><path class="cls-2" d="M442.07,745.63c-4.57,1.54-18.72,8.79-20.31,11.55" transform="translate(-342.57 -682.44)"/><path class="cls-2" d="M412.58,702.42c-6.77,0-9.29,3-8.11,7.83" transform="translate(-342.57 -682.44)"/><path class="cls-2" d="M407.21,712.62c1.79.77,10,3.77,11,0" transform="translate(-342.57 -682.44)"/><path class="cls-2" d="M435.61,736.91s-18.35,8.7-19.66,11.73" transform="translate(-342.57 -682.44)"/><path class="cls-2" d="M428.44,728.85s-18.32,9.13-19.22,12" transform="translate(-342.57 -682.44)"/><path class="cls-2" d="M421.08,720.45s-17,9.36-17.71,12" transform="translate(-342.57 -682.44)"/><path class="cls-2" d="M384.66,717.64s26.3,34.66,31.86,40.77,9.64,3.41,12.55,2.34c-7.43-9.73-22.12-30-29.54-39.69" transform="translate(-342.57 -682.44)"/><polyline class="cls-2" points="21.92 64.06 24.91 64.03 26.83 61.74 29.82 61.8 31.79 59.56 34.78 59.69 36.8 57.49 39.78 57.7 41.87 55.55 44.84 55.84 47 53.76 49.96 54.15 52.19 52.15 55.14 52.66"/><polyline class="cls-2" points="31.02 69.32 33.69 69.44 35.27 67.3 37.93 67.49 39.57 65.38 42.23 65.63 43.9 63.56 46.55 63.86 48.27 61.82 50.91 62.19 52.69 60.19 55.32 60.62 57.15 58.67 59.77 59.18"/><polyline class="cls-2" points="40.12 74.2 42.49 74.47 43.77 72.46 46.14 72.78 47.46 70.8 49.82 71.16 51.18 69.2 53.53 69.6 54.92 67.67 57.27 68.11 58.7 66.2 61.04 66.69 62.52 64.81 64.84 65.36"/><polyline class="cls-2" points="49.22 80.3 51.35 80.67 52.4 78.77 54.53 79.19 55.62 77.31 57.74 77.76 58.85 75.9 60.96 76.38 62.1 74.53 64.21 75.05 65.38 73.22 67.49 73.78 68.69 71.96 70.79 72.56"/><path class="cls-2" d="M387.44,714.92s-5.13-9.28-1-11.29,6.66,1.5,12.11-1.21c4-2,2-5.11,4.79-6.62s5.15,1.65,7.92,10.54" transform="translate(-342.57 -682.44)"/><path class="cls-2" d="M441.06,748.64l2.84,3.69s4.1-2.82,1.08-7.56" transform="translate(-342.57 -682.44)"/><line class="cls-2" x1="127.51" y1="92.11" x2="127.51" y2="100.27"/><line class="cls-2" x1="123.07" y1="96.45" x2="123.07" y2="105.91"/><line class="cls-2" x1="117.09" y1="99.61" x2="117.09" y2="111.23"/><line class="cls-2" x1="111.97" y1="101.25" x2="111.97" y2="112.75"/><line class="cls-2" x1="106.09" y1="102.18" x2="106.09" y2="113.71"/><line class="cls-2" x1="98.49" y1="102.13" x2="98.49" y2="113.23"/><line class="cls-2" x1="90.97" y1="101.25" x2="90.97" y2="112.07"/><line class="cls-2" x1="85.71" y1="99.54" x2="85.71" y2="110.74"/><line class="cls-2" x1="79.19" y1="97.22" x2="79.19" y2="108.84"/><line class="cls-2" x1="73.38" y1="94.68" x2="73.38" y2="106.66"/><line class="cls-2" x1="66.66" y1="97.22" x2="66.66" y2="103.71"/><line class="cls-2" x1="60.04" y1="96.45" x2="60.04" y2="99.61"/><line class="cls-2" x1="53.52" y1="93.46" x2="53.52" y2="96.45"/><line class="cls-2" x1="47.02" y1="89.61" x2="47.02" y2="92.11"/><path class="cls-2" d="M471,765.19c.52,5.41-3.88,10.42-11.75,13.56-12.84,5.24-27.4,1.76-39.68-3.73" transform="translate(-342.57 -682.44)"/></g></g></svg>