<svg xmlns="http://www.w3.org/2000/svg" viewBox="0 0 38.89 38.8"><defs><style>.cls-1{isolation:isolate;}.cls-2{fill:#d5bd8c;}.cls-3{fill:#5f6060;opacity:0.2;mix-blend-mode:multiply;}.cls-4{fill:none;stroke:#fff;stroke-linecap:round;stroke-linejoin:round;stroke-width:1.5px;}</style></defs><title>5</title><g class="cls-1"><g id="Layer_1" data-name="Layer 1"><circle class="cls-2" cx="19.45" cy="19.4" r="18.72"/><path class="cls-3" d="M419.78,723.78a18.72,18.72,0,0,1-26,26,18.72,18.72,0,1,0,26-26Z" transform="translate(-389.82 -719.87)"/><path class="cls-4" d="M409.36,720.62a1.14,1.14,0,0,1-1,.61,1.16,1.16,0,0,1-1-.52,18.84,18.84,0,0,0-5.76,1.52c-.36.17-.71.34-1.05.52-.35.51-.69-.09-1,.57-.33.15-.66.54-1,.64-.32.42-.63.45-.94.69s-.59.09-.88.75c-.29.12-.57.53-.84.8a18.74,18.74,0,0,0-2.81,3.69,1.14,1.14,0,0,1,.19.63,1.15,1.15,0,0,1-1.1,1.14,18.57,18.57,0,0,0-1.62,7.61c0,.39,0,.54,0,1.17,0,.2-.16.45.05.67-.08.22.09.41.06.48.24.22-.08.4.08.58s-.36.35.1.55a.89.89,0,0,1,.11.59.4.4,0,0,0,.13.52c.21.14.06.34.14.54s-.24.39.16.54,0,.36.18.53.13.35.19.52a18.89,18.89,0,0,0,3.41,5.63c.26.29.54.58.82.87s.57.2.87.81c.3,0,.6.34.92.76s.64.86,1,.7c.33.75.67.51,1,.64a1.6,1.6,0,0,0,1.06.58c.36.18.72.35,1.1.5a18.46,18.46,0,0,0,7.26,1.47c.43,0,.85,0,1.27,0s.84-.66,1.26-.13c.41.19.82-.63,1.22-.21.41.18.81-.27,1.21-.29.39-.67.78.12,1.16-.36.39-.13.76-.28,1.14-.44a18.56,18.56,0,0,0,3.16-1.72,11.4,11.4,0,0,0,1-.7c.32-.09.63.13.93-.76s.58-.37.87-.81c.28-.83.55-.72.81-.87s.52-.7.76-.93a4.68,4.68,0,0,1,.7-1,18.66,18.66,0,0,0,3.05-8.15c0-.37.37-.75.1-1.13.21-.38-.22-.77,0-1.15-.21-.32.05-.64,0-1s.29-.63-.07-.94c-.09-.31-.39-.62-.12-.93,0-.31-.1-.61-.16-.92s-.18-.8-.28-1.19l-.36-1.17a2.56,2.56,0,0,0-.44-1.13c-.15-.85-.32-.43-.5-1.09-.18.12-.37-.54-.57-1.05-.1-.18-.2-.35-.31-.52-.11.1-.21-.41-.32-.5s-.34,0-.52-.72c-.18-.15-.36.21-.55-.71-.19-.43-.38-.8-.58-.67s-.41-.35-.62-.65-.28.2-.42-.42c-.15-.18-.29-.43-.44-.4a2.23,2.23,0,0,1-.45-.43,1,1,0,0,0-.47-.33c-.31-.68-.63-.6-1-.7-.33.14-.66-1-1-.64-.34-.37-.69,0-1.05-.57-.35-.15-.72-.35-1.09-.51A18.68,18.68,0,0,0,409.36,720.62Z" transform="translate(-389.82 -719.87)"/><path class="cls-4" d="M409.11,720.93a1.12,1.12,0,0,1-.75.3,1.16,1.16,0,0,1-1-.52,18.65,18.65,0,0,0-14.27,9.18,1.14,1.14,0,0,1,.19.63,1.17,1.17,0,0,1-.35.82,17.22,17.22,0,0,1,2.89,3.51c.5,1.31,5.12,14.63,12.31,15.5s14.69-2.81,15.75-10.87C424.94,731.72,415.56,724.83,409.11,720.93Z" transform="translate(-389.82 -719.87)"/></g></g></svg>