<svg xmlns="http://www.w3.org/2000/svg" viewBox="0 0 144.86 88.79"><defs><style>.cls-1{isolation:isolate;}.cls-2,.cls-5{fill:#d5bd8c;}.cls-3{fill:#5f6060;opacity:0.2;mix-blend-mode:multiply;}.cls-4{fill:none;}.cls-4,.cls-5,.cls-6{stroke:#fff;stroke-linecap:round;stroke-linejoin:round;stroke-width:1.5px;}.cls-6{fill:#606060;}</style></defs><title>6</title><g class="cls-1"><g id="Layer_1" data-name="Layer 1"><path class="cls-2" d="M464.85,704.41c-16.3-9.41-41.4-10.58-59.81-3.5A12.91,12.91,0,0,0,382.84,713l-5.59,3.25c-8.21,4.77-11.81,11.2-10.81,17.44-.68,4.28.81,8.67,4.47,12.55l-1.17,6.15-32.38,18.81c-2.17,1.27-2.43,3.21-.78,4.64-1.65,1.43-1.39,3.39.81,4.65l3.53,2a9.87,9.87,0,0,0,9,0l32.43-18.84,16.39-1.08v0c14.53,5,33.51,3.85,45.92-3.37l20.42-11.86c10.1-5.87,14.64-13.73,13.67-21.4C479.71,718.25,475.09,710.32,464.85,704.41Zm-92.51,39.2-.23-.21-.14-.13.51.46Zm1,.87-.46-.38h0l.58.47Zm1.15.88-.43-.32.5.37Z" transform="translate(-334.76 -695.6)"/><path class="cls-3" d="M478.73,726s1.91,11.91-11.19,19.84S447,758.58,442.06,760.61a114.61,114.61,0,0,1-11.2,3.73l-5.27-3.19s9.68-.93,15.81-4.29,22.3-12.81,26.64-15.44S478.16,732.77,478.73,726Z" transform="translate(-334.76 -695.6)"/><ellipse class="cls-3" cx="405.23" cy="726.17" rx="9.92" ry="13.44" transform="translate(-761.03 18.42) rotate(-60)"/><path class="cls-4" d="M464.85,704.41c-18.61-10.74-48.69-10.74-67.18,0l-20.42,11.87c-14.25,8.28-14.62,21.55-1.16,30.15h0l.32.2h0l.29.18,0,0,.3.18.07,0,.31.18.6.35,12.53,7.24.6.34.32.18.06,0,.31.17.05,0,.28.15.06,0,.32.17.05,0,.68.34,0,0c14.89,7.38,37.29,7,51.31-1.16l20.42-11.86c18.49-10.75,18.4-28.17-.21-38.91" transform="translate(-334.76 -695.6)"/><path class="cls-4" d="M465.06,743.32l-20.42,11.86c-14,8.15-36.42,8.54-51.31,1.16l0,0-.68-.34-.05,0-.32-.17-.06,0-.28-.15-.05,0-.31-.17-.06,0-.32-.18-.6-.34L378,747.6l-.6-.35-.31-.18-.07,0-.3-.18,0,0-.29-.18h0l-.32-.2h0c-5.71-3.64-8.92-8.12-9.65-12.71-.95,5.93,2.26,12,9.65,16.77h0l.32.2,0,0,.29.18,0,0,.3.18.07,0,.31.18.6.35,12.53,7.24.6.34.32.18.06,0,.31.17.05,0,.28.15.06,0,.32.17.05,0,.68.35h0c14.89,7.38,37.29,7,51.31-1.15l20.42-11.86c10.1-5.87,14.64-13.73,13.67-21.4C477.92,732.3,473.38,738.49,465.06,743.32Z" transform="translate(-334.76 -695.6)"/><path class="cls-5" d="M390.57,758.92,378,751.68l-8.3,4.82-32.38,18.82c-2.47,1.44-2.46,3.76,0,5.2l3.53,2a9.87,9.87,0,0,0,9,0l40.67-23.64" transform="translate(-334.76 -695.6)"/><path class="cls-3" d="M390.57,758.92,378,751.68l-8.3,4.82-32.38,18.82c-2.47,1.44-2.46,3.76,0,5.2l3.53,2a9.87,9.87,0,0,0,9,0l40.67-23.64" transform="translate(-334.76 -695.6)"/><path class="cls-5" d="M371.56,742.89l-1.82,9.53,8.3-4.82-.6-.35-.31-.18-.07,0-.3-.18,0,0-.29-.18h0l-.32-.2h0a28.15,28.15,0,0,1-4.53-3.54" transform="translate(-334.76 -695.6)"/><path class="cls-5" d="M398.72,758.57a45.45,45.45,0,0,1-5.39-2.23l0,0-.68-.34-.05,0-.32-.17-.06,0-.28-.15-.05,0-.31-.17-.06,0-.32-.18-.6-.34-8.29,4.82,16.44-1.09" transform="translate(-334.76 -695.6)"/><circle class="cls-5" cx="60.44" cy="13.67" r="12.92"/><path class="cls-3" d="M402.77,698.82a12.9,12.9,0,0,1-18,18,12.91,12.91,0,1,0,18-18Z" transform="translate(-334.76 -695.6)"/><path class="cls-5" d="M390.57,754.84,378,747.6l-8.3,4.82-32.38,18.81c-2.47,1.44-2.46,3.77,0,5.21l3.53,2a9.87,9.87,0,0,0,9,0l40.67-23.63" transform="translate(-334.76 -695.6)"/><path class="cls-6" d="M382.28,764" transform="translate(-334.76 -695.6)"/><polygon class="cls-5" points="47.52 64.06 47.52 68.12 63.96 67.03 63.96 62.97 47.52 64.06"/><polygon class="cls-3" points="47.52 64.06 47.52 68.12 63.96 67.03 63.96 62.97 47.52 64.06"/><circle class="cls-4" cx="60.44" cy="13.67" r="12.92"/><path class="cls-4" d="M377.06,751.09" transform="translate(-334.76 -695.6)"/><path class="cls-4" d="M376.09,750.49" transform="translate(-334.76 -695.6)"/><path class="cls-4" d="M335.53,773.68c0,1.43,0,3.3,0,4.24a3.2,3.2,0,0,0,1.88,2.6l3.53,2a9.87,9.87,0,0,0,9,0l32.38-18.84" transform="translate(-334.76 -695.6)"/><path class="cls-4" d="M390.57,758.92" transform="translate(-334.76 -695.6)"/><path class="cls-4" d="M390.57,754.84,378,747.6l-8.3,4.82-32.38,18.81c-2.47,1.44-2.46,3.77,0,5.21l3.53,2a9.87,9.87,0,0,0,9,0l40.67-23.63" transform="translate(-334.76 -695.6)"/><polygon class="cls-4" points="47.52 64.06 47.52 68.12 63.96 67.03 63.96 62.97 47.52 64.06"/></g></g></svg>